IBM Plex Mono-Thin Italic.ufo
<glyph name="exclam" format="2">
  <advance width="600"/>
  <unicode hex="0021"/>
  <outline>
    <contour>
      <point x="292" y="176" type="line" identifier="6hnJM1PMQx"/>
      <point x="337" y="415" type="line" identifier="OYBVyimvIe"/>
      <point x="384" y="698" type="line" identifier="GdjSNajtii"/>
      <point x="362" y="698" type="line" identifier="tqGP3uRQq5"/>
      <point x="315" y="415" type="line" identifier="z8rIVoGtNA"/>
      <point x="280" y="176" type="line" identifier="bGcWAVAP2X"/>
    </contour>
    <contour>
      <point x="256" y="-5" type="curve" smooth="yes" identifier="hsM97Eni2q"/>
      <point x="277" y="-5" identifier="foIt74dutB"/>
      <point x="290" y="5" identifier="bXNCUKjkV4"/>
      <point x="293" y="21" type="curve" smooth="yes" identifier="SjKoUISqhJ"/>
      <point x="294" y="26" identifier="hlkLb1wPHq"/>
      <point x="295" y="31" identifier="mppbouLPMC"/>
      <point x="295" y="35" type="curve" smooth="yes" identifier="cU4CrsTsRk"/>
      <point x="295" y="49" identifier="x9YpkdejKS"/>
      <point x="286" y="57" identifier="AifK9KLeb2"/>
      <point x="266" y="57" type="curve" smooth="yes" identifier="1BjVKefe9q"/>
      <point x="245" y="57" identifier="JDU2rC0Nfi"/>
      <point x="232" y="47" identifier="bBYb7S7YJo"/>
      <point x="229" y="31" type="curve" smooth="yes" identifier="G6uM3WSP25"/>
      <point x="228" y="26" identifier="Ur5LHVY6Ex"/>
      <point x="227" y="21" identifier="ErBLdHf0zk"/>
      <point x="227" y="17" type="curve" smooth="yes" identifier="gLfg6E26AS"/>
      <point x="227" y="3" identifier="SXdNrJXwRw"/>
      <point x="236" y="-5" identifier="2fmXkWsyFA"/>
    </contour>
  </outline>
</glyph>
<glyph name="numbersign" format="2">
  <advance width="600"/>
  <unicode hex="0023"/>
  <outline>
    <contour>
      <point x="97" y="0" type="line" identifier="Fzi8Ny0H8e"/>
      <point x="119" y="0" type="line" identifier="ca3Fa3VC0L"/>
      <point x="358" y="698" type="line" identifier="p2SeYkpm02"/>
      <point x="336" y="698" type="line" identifier="6moJ6nVnbb"/>
      <point x="254" y="459" type="line" identifier="N5SeoDMJhS"/>
      <point x="91" y="459" type="line" identifier="NLDYDU8i5b"/>
      <point x="88" y="440" type="line" identifier="k6YwO0dvSN"/>
      <point x="248" y="440" type="line" identifier="YKFEPU6lna"/>
      <point x="186" y="258" type="line" identifier="y0gA7tKQSf"/>
      <point x="22" y="258" type="line" identifier="dqQ3kGSM5q"/>
      <point x="19" y="239" type="line" identifier="UyMynSI0x7"/>
      <point x="179" y="239" type="line" identifier="WEjjVTHi41"/>
    </contour>
    <contour>
      <point x="272" y="0" type="line" identifier="3uU6S8F5hZ"/>
      <point x="294" y="0" type="line" identifier="XgfqonpTuC"/>
      <point x="376" y="239" type="line" identifier="SezujrLkSw"/>
      <point x="539" y="239" type="line" identifier="cawTlfL0iy"/>
      <point x="542" y="258" type="line" identifier="E8oYWC3uFT"/>
      <point x="382" y="258" type="line" identifier="nSusBhYtxS"/>
      <point x="444" y="440" type="line" identifier="Wq5ESQOj8X"/>
      <point x="608" y="440" type="line" identifier="nu0yJoCvIs"/>
      <point x="611" y="459" type="line" identifier="WbJGtlv20S"/>
      <point x="451" y="459" type="line" identifier="ING9Dachkd"/>
      <point x="533" y="698" type="line" identifier="mImtMwNQAB"/>
      <point x="511" y="698" type="line" identifier="VmohZ2UDfI"/>
    </contour>
  </outline>
</glyph>
<glyph name="dollar" format="2">
  <advance width="600"/>
  <unicode hex="0024"/>
  <outline>
    <contour>
      <point x="223" y="-113" type="line" identifier="EjlLmYvVfA"/>
      <point x="243" y="-113" type="line" identifier="SvJ4wSyqeC"/>
      <point x="260" y="-12" type="line" identifier="TMETBwfFjR"/>
      <point x="265" y="-12" identifier="rURQYMwU8x"/>
      <point x="269" y="-12" identifier="GKaGtOg5C4"/>
      <point x="274" y="-12" type="curve" smooth="yes" identifier="eUlEfAXhLY"/>
      <point x="414" y="-12" identifier="PtU6Q4jNpQ"/>
      <point x="506" y="61" identifier="wIBkwqIvsK"/>
      <point x="506" y="196" type="curve" smooth="yes" identifier="hoajb9bYbn"/>
      <point x="506" y="281" identifier="10Lc3rqm7Q"/>
      <point x="458" y="335" identifier="nc6xTLWEnC"/>
      <point x="358" y="358" type="curve" smooth="yes" identifier="jr53SJ2iuE"/>
      <point x="323" y="366" type="line" identifier="NNLLpP7SAX"/>
      <point x="377" y="689" type="line" identifier="T8tRqpmugU"/>
      <point x="465" y="685" identifier="7Svv4mQfKj"/>
      <point x="513" y="659" identifier="mhityZHJNJ"/>
      <point x="547" y="601" type="curve" identifier="nWH1qGlMZP"/>
      <point x="565" y="612" type="line" identifier="WB8OBlfHKh"/>
      <point x="532" y="669" identifier="LLKSxBgyEG"/>
      <point x="481" y="703" identifier="upF4Alj3mT"/>
      <point x="380" y="709" type="curve" identifier="qJbaTPJuu3"/>
      <point x="397" y="811" type="line" identifier="VfEHYFmwQW"/>
      <point x="377" y="811" type="line" identifier="tkhF9sbq3q"/>
      <point x="360" y="710" type="line" identifier="eNjY7mi3y6"/>
      <point x="355" y="710" identifier="Mrjvh9Glcm"/>
      <point x="350" y="710" identifier="E89Qo1T2Qu"/>
      <point x="345" y="710" type="curve" smooth="yes" identifier="uGFWMKuj0w"/>
      <point x="214" y="710" identifier="cPQLAbbOra"/>
      <point x="122" y="645" identifier="bODoIX6DRX"/>
      <point x="122" y="519" type="curve" smooth="yes" identifier="802lCtOGaE"/>
      <point x="122" y="434" identifier="YtNm1tt3jt"/>
      <point x="167" y="381" identifier="AXjIlAxxz6"/>
      <point x="266" y="358" type="curve" smooth="yes" identifier="PWETKCkhXR"/>
      <point x="300" y="350" type="line" identifier="XXLJEPYRBI"/>
      <point x="243" y="9" type="line" identifier="lteB8iPhUr"/>
      <point x="142" y="15" identifier="xh97ITXMTS"/>
      <point x="92" y="54" identifier="qHDUQIkvak"/>
      <point x="54" y="114" type="curve" identifier="1RkX1SAWVu"/>
      <point x="37" y="101" type="line" identifier="p1cIC2R1Of"/>
      <point x="76" y="39" identifier="HZrJUtdu8A"/>
      <point x="133" y="-4" identifier="fDhFgVfsNe"/>
      <point x="240" y="-11" type="curve" identifier="h0G9eHi587"/>
    </contour>
    <contour>
      <point x="144" y="519" type="curve" smooth="yes" identifier="8gsdUo3EUV"/>
      <point x="144" y="632" identifier="y2L18zsb40"/>
      <point x="222" y="690" identifier="SMMugNaheu"/>
      <point x="344" y="690" type="curve" smooth="yes" identifier="vZI7FON7Js"/>
      <point x="348" y="690" identifier="VsvveCCI1m"/>
      <point x="352" y="690" identifier="rXmFBEImj7"/>
      <point x="357" y="690" type="curve" identifier="DqlIzgmmQm"/>
      <point x="304" y="371" type="line" identifier="eDckhypvDO"/>
      <point x="274" y="378" type="line" smooth="yes" identifier="ljkw7UNRS5"/>
      <point x="184" y="399" identifier="uAabA39rjF"/>
      <point x="144" y="441" identifier="Af15UeBczE"/>
    </contour>
    <contour>
      <point x="483" y="196" type="curve" smooth="yes" identifier="Z5QK4ufKu6"/>
      <point x="483" y="76" identifier="E2KyRvDQUn"/>
      <point x="405" y="8" identifier="jqEBzwS80L"/>
      <point x="275" y="8" type="curve" smooth="yes" identifier="4uSfHBz3sE"/>
      <point x="272" y="8" identifier="ZwkxVfRZCr"/>
      <point x="266" y="8" identifier="lJV8oUc33m"/>
      <point x="263" y="8" type="curve" identifier="hLn1jrijTh"/>
      <point x="319" y="346" type="line" identifier="XAhnTuYxtJ"/>
      <point x="352" y="338" type="line" smooth="yes" identifier="KNVjZs5ODL"/>
      <point x="444" y="316" identifier="9rTlqhHMkb"/>
      <point x="483" y="274" identifier="PWdGJyOxKF"/>
    </contour>
  </outline>
</glyph>
<glyph name="percent" format="2">
  <advance width="600"/>
  <unicode hex="0025"/>
  <outline>
    <contour>
      <point x="198" y="377" type="curve" smooth="yes" identifier="UZtTi51nmX"/>
      <point x="279" y="377" identifier="hgfffDqEL3"/>
      <point x="360" y="438" identifier="k4nwlgsEGq"/>
      <point x="360" y="587" type="curve" smooth="yes" identifier="cUPpcNSePj"/>
      <point x="360" y="665" identifier="KH7kucjs7q"/>
      <point x="308" y="710" identifier="LTyd1MV5pj"/>
      <point x="242" y="710" type="curve" smooth="yes" identifier="FNyupbRjTg"/>
      <point x="161" y="710" identifier="6PmSIKWu7m"/>
      <point x="80" y="649" identifier="R25tTHyBKw"/>
      <point x="80" y="500" type="curve" smooth="yes" identifier="VumsDs0hGo"/>
      <point x="80" y="422" identifier="4AipUr2F0K"/>
      <point x="132" y="377" identifier="lBsvOnnK7S"/>
    </contour>
    <contour>
      <point x="198" y="394" type="curve" smooth="yes" identifier="a042riZggd"/>
      <point x="145" y="394" identifier="77GuvB3lIG"/>
      <point x="99" y="426" identifier="TKeGAhq6oe"/>
      <point x="99" y="500" type="curve" smooth="yes" identifier="x0Q9Nhh2rj"/>
      <point x="99" y="511" identifier="tMWM5DRavi"/>
      <point x="100" y="523" identifier="SIrUpqoi4c"/>
      <point x="107" y="563" type="curve" smooth="yes" identifier="2zDrBBDzYF"/>
      <point x="124" y="658" identifier="NvgJ0lRlMc"/>
      <point x="181" y="693" identifier="rByKYvKXOy"/>
      <point x="242" y="693" type="curve" smooth="yes" identifier="GEQmv39mbT"/>
      <point x="295" y="693" identifier="jLrz6WTjwM"/>
      <point x="341" y="661" identifier="McibUBXdMR"/>
      <point x="341" y="587" type="curve" smooth="yes" identifier="4YxPQPamTj"/>
      <point x="341" y="576" identifier="Jb0UmIUcuQ"/>
      <point x="340" y="564" identifier="pHKx5U4RcA"/>
      <point x="333" y="524" type="curve" smooth="yes" identifier="mDLyesodJl"/>
      <point x="316" y="430" identifier="gSx5rIkhp1"/>
      <point x="259" y="394" identifier="WuhcUd1nGr"/>
    </contour>
    <contour>
      <point x="394" y="398" type="line" identifier="9KWHVIMj1X"/>
      <point x="416" y="398" type="line" identifier="DDQbdMkaUn"/>
      <point x="645" y="698" type="line" identifier="7Ycn580rwv"/>
      <point x="623" y="698" type="line" identifier="HPRs5Jv8Ku"/>
    </contour>
    <contour>
      <point x="-15" y="0" type="line" identifier="GqiOEAUpPc"/>
      <point x="7" y="0" type="line" identifier="9zikdGtMgq"/>
      <point x="236" y="300" type="line" identifier="yvv7DXsrQT"/>
      <point x="214" y="300" type="line" identifier="uBN5R1BoZD"/>
    </contour>
    <contour>
      <point x="388" y="-12" type="curve" smooth="yes" identifier="Q1QsNpVKVG"/>
      <point x="469" y="-12" identifier="pYE8KFeOnk"/>
      <point x="550" y="49" identifier="gmye7m5Zw2"/>
      <point x="550" y="198" type="curve" smooth="yes" identifier="3Xqgjaze6G"/>
      <point x="550" y="276" identifier="ILIOoiCR8v"/>
      <point x="498" y="321" identifier="sxPyoK3jYR"/>
      <point x="432" y="321" type="curve" smooth="yes" identifier="lkiXRbvI4R"/>
      <point x="351" y="321" identifier="oXyUsdfpgg"/>
      <point x="270" y="260" identifier="yX3D6sNZX8"/>
      <point x="270" y="111" type="curve" smooth="yes" identifier="5zpOHB7CyC"/>
      <point x="270" y="33" identifier="9ZVSMxWiJv"/>
      <point x="322" y="-12" identifier="3eFRUl3nNR"/>
    </contour>
    <contour>
      <point x="388" y="5" type="curve" smooth="yes" identifier="rL9VEoAGdp"/>
      <point x="335" y="5" identifier="V1CJGRHJHS"/>
      <point x="289" y="37" identifier="7pd3nmFbXB"/>
      <point x="289" y="111" type="curve" smooth="yes" identifier="0dKwd5ob8l"/>
      <point x="289" y="122" identifier="9vkqpjEZmE"/>
      <point x="290" y="134" identifier="vcsN4ai4IA"/>
      <point x="297" y="174" type="curve" smooth="yes" identifier="vvZEkWlhVk"/>
      <point x="314" y="269" identifier="HsWzTcSOb0"/>
      <point x="371" y="304" identifier="556L7FqYWk"/>
      <point x="432" y="304" type="curve" smooth="yes" identifier="svvSAjM2HG"/>
      <point x="485" y="304" identifier="FlH1PIwYAJ"/>
      <point x="531" y="272" identifier="UDNQFnEYAQ"/>
      <point x="531" y="198" type="curve" smooth="yes" identifier="vOwxQ8QTX1"/>
      <point x="531" y="187" identifier="NOmJRfgsVz"/>
      <point x="530" y="175" identifier="fhpagmKa1e"/>
      <point x="523" y="135" type="curve" smooth="yes" identifier="BgWx5LTH49"/>
      <point x="506" y="41" identifier="Uwu89hPC27"/>
      <point x="449" y="5" identifier="wTZwojroxc"/>
    </contour>
  </outline>
</glyph>
<glyph name="ampersand" format="2">
  <advance width="600"/>
  <unicode hex="0026"/>
  <outline>
    <contour>
      <point x="178" y="-12" type="curve" smooth="yes" identifier="u2fCswz7ym"/>
      <point x="265" y="-12" identifier="izWOkVUhoz"/>
      <point x="338" y="31" identifier="JslBGdog2V"/>
      <point x="360" y="145" type="curve" identifier="rxNPI2vHyB"/>
      <point x="363" y="145" type="line" identifier="T5hmOC1gjV"/>
      <point x="440" y="21" type="line" smooth="yes" identifier="gyNISWNKgd"/>
      <point x="459" y="-10" identifier="KgfPB5lE6V"/>
      <point x="465" y="-12" identifier="QvkpPPzkCO"/>
      <point x="478" y="-12" type="curve" smooth="yes" identifier="zgRJVSzkeC"/>
      <point x="491" y="-12" identifier="MpHKPlyEk6"/>
      <point x="498" y="1" identifier="9rPDPJxGOj"/>
      <point x="517" y="31" type="curve" smooth="yes" identifier="hV7OW4aaHF"/>
      <point x="589" y="145" type="line" identifier="QKeT0Nr9Mq"/>
      <point x="573" y="154" type="line" identifier="J1Tom7rwuZ"/>
      <point x="477" y="8" type="line" identifier="oodKAReEBU"/>
      <point x="474" y="8" type="line" identifier="M7tNDeAbXf"/>
      <point x="272" y="328" type="line" identifier="UqtNIMVy05"/>
      <point x="382" y="349" identifier="xcbOMBQ5TP"/>
      <point x="462" y="416" identifier="K3VW3YuSxb"/>
      <point x="462" y="562" type="curve" smooth="yes" identifier="lFpNHvR1pk"/>
      <point x="462" y="661" identifier="qk06YRMTg9"/>
      <point x="395" y="710" identifier="R5BgS1QirJ"/>
      <point x="310" y="710" type="curve" smooth="yes" identifier="WN2vELgbvF"/>
      <point x="224" y="710" identifier="bcJsuy0elY"/>
      <point x="154" y="663" identifier="TWtxBnQ7y7"/>
      <point x="154" y="547" type="curve" smooth="yes" identifier="SHlz9OLOTW"/>
      <point x="154" y="498" identifier="jkK0sWjUqh"/>
      <point x="168" y="459" identifier="utAop4WAJD"/>
      <point x="214" y="382" type="curve" identifier="RjhaL2Y3rQ"/>
      <point x="75" y="368" identifier="Zf2P2CLbr9"/>
      <point x="13" y="294" identifier="C3cwdCCgpO"/>
      <point x="13" y="153" type="curve" smooth="yes" identifier="K55hcPvnd8"/>
      <point x="13" y="62" identifier="RSK15E5m9t"/>
      <point x="71" y="-12" identifier="7KQz3ZVnjF"/>
    </contour>
    <contour>
      <point x="178" y="8" type="curve" smooth="yes" identifier="LhUSf3IhWY"/>
      <point x="80" y="8" identifier="PqRTWGdRrn"/>
      <point x="34" y="76" identifier="SRMKmA2c6K"/>
      <point x="34" y="153" type="curve" smooth="yes" identifier="hry201UXA0"/>
      <point x="34" y="167" identifier="YGsy3n6bAx"/>
      <point x="33" y="174" identifier="Lc4OUcdszz"/>
      <point x="42" y="224" type="curve" smooth="yes" identifier="8XPaIjUtmV"/>
      <point x="57" y="311" identifier="lF4njdtUe6"/>
      <point x="111" y="353" identifier="wptnXAFbdh"/>
      <point x="224" y="366" type="curve" identifier="D3mwVnGQ1H"/>
      <point x="350" y="165" type="line" identifier="LtGXZX8rlw"/>
      <point x="328" y="38" identifier="ItLN8JKBgI"/>
      <point x="246" y="8" identifier="3hhpejUeKS"/>
    </contour>
    <contour>
      <point x="310" y="690" type="curve" smooth="yes" identifier="KmMss69ggx"/>
      <point x="391" y="690" identifier="Npm21hmkTn"/>
      <point x="441" y="644" identifier="SyB2fACfy7"/>
      <point x="441" y="562" type="curve" smooth="yes" identifier="8kFrOpj1lk"/>
      <point x="441" y="552" identifier="AeTZiGjo36"/>
      <point x="440" y="539" identifier="htFgTJDX7d"/>
      <point x="432" y="492" type="curve" smooth="yes" identifier="AhBA7ClCtr"/>
      <point x="417" y="403" identifier="lG9KIGNtRk"/>
      <point x="353" y="361" identifier="Eu9tLacYzk"/>
      <point x="262" y="343" type="curve" identifier="ke37r257YK"/>
      <point x="240" y="378" type="line" smooth="yes" identifier="UUN2RoEVXq"/>
      <point x="185" y="465" identifier="QVI9fGaPDJ"/>
      <point x="175" y="504" identifier="MyJe3XBNZS"/>
      <point x="175" y="547" type="curve" smooth="yes" identifier="xSCNZYe1KA"/>
      <point x="175" y="654" identifier="Ft6Abt0iM1"/>
      <point x="236" y="690" identifier="VOfgYp0vEN"/>
    </contour>
  </outline>
</glyph>
<glyph name="quotesingle" format="2">
  <advance width="600"/>
  <unicode hex="0027"/>
  <outline>
    <contour>
      <point x="351" y="490" type="line" identifier="EoK1VDQUfi"/>
      <point x="393" y="740" type="line" identifier="ZR9Ft75ph5"/>
      <point x="369" y="740" type="line" identifier="Vg6lRLvxWy"/>
      <point x="327" y="490" type="line" identifier="yJBMmlh0tj"/>
    </contour>
  </outline>
</glyph>
<glyph name="parenleft" format="2">
  <advance width="600"/>
  <unicode hex="0028"/>
  <outline>
    <contour>
      <point x="236" y="232" type="curve" smooth="yes" identifier="54DKAP0QAD"/>
      <point x="236" y="76" identifier="igch4p0iyL"/>
      <point x="299" y="-47" identifier="QD17FNxAIA"/>
      <point x="374" y="-138" type="curve" identifier="3uEKYpcFWR"/>
      <point x="395" y="-138" type="line" identifier="mAUvXsiO20"/>
      <point x="307" y="-32" identifier="xd9sMtGFBY"/>
      <point x="255" y="83" identifier="joZ2TIz0Ml"/>
      <point x="255" y="232" type="curve" smooth="yes" identifier="b7aH6Hawtl"/>
      <point x="255" y="261" identifier="M6EEb6LATs"/>
      <point x="256" y="289" identifier="TdClKfd2MS"/>
      <point x="262" y="319" type="curve" smooth="yes" identifier="M9hfxg3eBy"/>
      <point x="268" y="353" type="line" smooth="yes" identifier="eoyXIru4Kn"/>
      <point x="298" y="522" identifier="Qh4gnstlH7"/>
      <point x="415" y="669" identifier="HvefKgbevN"/>
      <point x="546" y="760" type="curve" identifier="4y9m33LIUA"/>
      <point x="520" y="760" type="line" identifier="yTD0CObYaK"/>
      <point x="369" y="654" identifier="QlNyfR1PE9"/>
      <point x="236" y="473" identifier="5VISEYBkXQ"/>
    </contour>
  </outline>
</glyph>
<glyph name="parenright" format="2">
  <advance width="600"/>
  <unicode hex="0029"/>
  <outline>
    <contour>
      <point x="383" y="390" type="curve" smooth="yes" identifier="bgWDZ7c7TD"/>
      <point x="383" y="546" identifier="cWwHXI3xGT"/>
      <point x="320" y="669" identifier="hVP6xZGk7c"/>
      <point x="245" y="760" type="curve" identifier="9hClxQgPDO"/>
      <point x="224" y="760" type="line" identifier="vt4tZRkkzK"/>
      <point x="312" y="654" identifier="Qb5YqARXYx"/>
      <point x="364" y="539" identifier="WwJ79LUL7a"/>
      <point x="364" y="390" type="curve" smooth="yes" identifier="CMj0gPt9d1"/>
      <point x="364" y="361" identifier="hMTBtIuFHX"/>
      <point x="363" y="333" identifier="spF4HfxttL"/>
      <point x="357" y="303" type="curve" smooth="yes" identifier="i1FiZFmpU7"/>
      <point x="351" y="269" type="line" smooth="yes" identifier="EUFh3VlC4P"/>
      <point x="321" y="100" identifier="yTeUSOOheF"/>
      <point x="204" y="-47" identifier="mbjt9GCIGk"/>
      <point x="73" y="-138" type="curve" identifier="afrfk0ii43"/>
      <point x="99" y="-138" type="line" identifier="eSDwtyGSQp"/>
      <point x="250" y="-32" identifier="it08witvzA"/>
      <point x="383" y="149" identifier="d184ZdnECp"/>
    </contour>
  </outline>
</glyph>
<glyph name="asterisk" format="2">
  <advance width="600"/>
  <unicode hex="002A"/>
  <outline>
    <contour>
      <point x="303" y="269" type="line" identifier="c1wq2WVmRE"/>
      <point x="426" y="51" type="line" identifier="ZPq1lxCDIS"/>
      <point x="444" y="61" type="line" identifier="76JSdp3D7j"/>
      <point x="322" y="278" type="line" identifier="y2dFf9MCbT"/>
      <point x="571" y="353" type="line" identifier="alZtOzeudI"/>
      <point x="567" y="372" type="line" identifier="c5gxBOd2o1"/>
      <point x="318" y="298" type="line" identifier="CJcDM3Wf0E"/>
      <point x="360" y="549" type="line" identifier="opWUY09klc"/>
      <point x="339" y="549" type="line" identifier="Lu4GIswIsh"/>
      <point x="297" y="297" type="line" identifier="a1vpiW0Chn"/>
      <point x="73" y="371" type="line" identifier="7LJu0sUxxB"/>
      <point x="64" y="354" type="line" identifier="aTKU6xMcEc"/>
      <point x="287" y="280" type="line" identifier="FvX4ELxfS4"/>
      <point x="93" y="63" type="line" identifier="LzTFnwKmZX"/>
      <point x="109" y="51" type="line" identifier="yUsc5w0gLf"/>
    </contour>
  </outline>
</glyph>
<glyph name="plus" format="2">
  <advance width="600"/>
  <unicode hex="002B"/>
  <outline>
    <contour>
      <point x="278" y="62" type="line" identifier="lX7gXBvkU8"/>
      <point x="317" y="296" type="line" identifier="oZbaqFMaA5"/>
      <point x="545" y="296" type="line" identifier="tB37agNoYT"/>
      <point x="548" y="315" type="line" identifier="qJpFnWqSef"/>
      <point x="320" y="315" type="line" identifier="4LwjrFSchG"/>
      <point x="359" y="549" type="line" identifier="esfjLOCGgM"/>
      <point x="338" y="549" type="line" identifier="NVsivhFYLE"/>
      <point x="299" y="315" type="line" identifier="s81rNFJjUT"/>
      <point x="71" y="315" type="line" identifier="mkGhgZ9Wbu"/>
      <point x="68" y="296" type="line" identifier="vOk53R5gHY"/>
      <point x="296" y="296" type="line" identifier="0D1UFqhUw9"/>
      <point x="257" y="62" type="line" identifier="T4p1wx3aOX"/>
    </contour>
  </outline>
</glyph>
<glyph name="comma" format="2">
  <advance width="600"/>
  <unicode hex="002C"/>
  <outline>
    <contour>
      <point x="158" y="-172" type="line" identifier="hWpmcjeHKv"/>
      <point x="176" y="-172" type="line" identifier="LH3wNNQFvk"/>
      <point x="295" y="78" type="line" identifier="OlHrqI8C9Q"/>
      <point x="253" y="78" type="line" identifier="VKPUbxK9Mq"/>
    </contour>
  </outline>
</glyph>
<glyph name="hyphen" format="2">
  <advance width="600"/>
  <unicode hex="002D"/>
  <outline>
    <contour>
      <point x="438" y="295" type="line" identifier="yPRcQ2BeGl"/>
      <point x="441" y="315" type="line" identifier="opo6mnUlQJ"/>
      <point x="177" y="315" type="line" identifier="y98rkyuOKg"/>
      <point x="174" y="295" type="line" identifier="0qFfFFrp8h"/>
    </contour>
  </outline>
</glyph>
<glyph name="period" format="2">
  <advance width="600"/>
  <unicode hex="002E"/>
  <outline>
    <contour>
      <point x="256" y="-5" type="curve" smooth="yes" identifier="PHrdwEq2qH"/>
      <point x="277" y="-5" identifier="1Bg1PLFf7j"/>
      <point x="290" y="5" identifier="AbSbUXDyb6"/>
      <point x="293" y="21" type="curve" smooth="yes" identifier="gejlcxRDq5"/>
      <point x="294" y="26" identifier="nekeEzS5vO"/>
      <point x="295" y="31" identifier="uTJ9h2UjeL"/>
      <point x="295" y="35" type="curve" smooth="yes" identifier="P5WLBj2Nhv"/>
      <point x="295" y="49" identifier="QkUVateMZR"/>
      <point x="286" y="57" identifier="a4IBuWv1da"/>
      <point x="266" y="57" type="curve" smooth="yes" identifier="ZDTLa0mjdv"/>
      <point x="245" y="57" identifier="xqcO0fo6J3"/>
      <point x="232" y="47" identifier="QW0Xr6u7RF"/>
      <point x="229" y="31" type="curve" smooth="yes" identifier="HXLmewGLUW"/>
      <point x="228" y="26" identifier="ruC03eFbD6"/>
      <point x="227" y="21" identifier="jq2kaW5GZk"/>
      <point x="227" y="17" type="curve" smooth="yes" identifier="j3H2KUtQJP"/>
      <point x="227" y="3" identifier="W46VfP7e1i"/>
      <point x="236" y="-5" identifier="kqySA99lTU"/>
    </contour>
  </outline>
</glyph>
<glyph name="slash" format="2">
  <advance width="600"/>
  <unicode hex="002F"/>
  <outline>
    <contour>
      <point x="59" y="-138" type="line" identifier="b7Nvrw1e7h"/>
      <point x="570" y="760" type="line" identifier="6FwknxispV"/>
      <point x="550" y="760" type="line" identifier="qYKh4CDJZA"/>
      <point x="39" y="-138" type="line" identifier="Y5v0oZjIKL"/>
    </contour>
  </outline>
</glyph>
<glyph name="zero" format="2">
  <advance width="600"/>
  <unicode hex="0030"/>
  <outline>
    <contour>
      <point x="262" y="-12" type="curve" smooth="yes" identifier="7PKuCX170V"/>
      <point x="466" y="-12" identifier="WmUmQb8BEY"/>
      <point x="550" y="237" identifier="lj8FhQoTd8"/>
      <point x="550" y="479" type="curve" smooth="yes" identifier="6V0VSCCmyf"/>
      <point x="550" y="640" identifier="q4kyjvKqkx"/>
      <point x="485" y="710" identifier="LlAUfo8kzT"/>
      <point x="364" y="710" type="curve" smooth="yes" identifier="fABmKqbbfF"/>
      <point x="160" y="710" identifier="t4aVWAviEG"/>
      <point x="76" y="461" identifier="Fzek7bhAcJ"/>
      <point x="76" y="219" type="curve" smooth="yes" identifier="VjyeHKXDUH"/>
      <point x="76" y="58" identifier="RGWggC6KWp"/>
      <point x="141" y="-12" identifier="fWJuhIFhpx"/>
    </contour>
    <contour>
      <point x="262" y="8" type="curve" smooth="yes" identifier="1KJRVbxyPl"/>
      <point x="146" y="8" identifier="aWujQnOJMB"/>
      <point x="97" y="79" identifier="49DJ4UWXsB"/>
      <point x="97" y="219" type="curve" smooth="yes" identifier="M0Ss7GN6JQ"/>
      <point x="97" y="253" identifier="EHNeBjEmbc"/>
      <point x="98" y="291" identifier="gACbt7dIzK"/>
      <point x="105" y="331" type="curve" smooth="yes" identifier="aNKb1aRlvT"/>
      <point x="115" y="390" type="line" smooth="yes" identifier="lM6rk5A65S"/>
      <point x="148" y="582" identifier="3YR6Cl2kut"/>
      <point x="237" y="690" identifier="zsT0LaMgn0"/>
      <point x="364" y="690" type="curve" smooth="yes" identifier="pb1cRHcR0P"/>
      <point x="480" y="690" identifier="xmch3qrOlZ"/>
      <point x="529" y="619" identifier="EKxWKK9KcJ"/>
      <point x="529" y="479" type="curve" smooth="yes" identifier="8quLJkkJR9"/>
      <point x="529" y="445" identifier="IUFVJkWp8J"/>
      <point x="528" y="407" identifier="4vW0SSGMfX"/>
      <point x="521" y="367" type="curve" smooth="yes" identifier="TR0FvrtVcv"/>
      <point x="511" y="308" type="line" smooth="yes" identifier="AAt4qtDZA6"/>
      <point x="478" y="116" identifier="vW8LHCrGfP"/>
      <point x="389" y="8" identifier="UAtsyErdWm"/>
    </contour>
    <contour>
      <point x="309" y="324" type="curve" smooth="yes" identifier="51UZKAalFP"/>
      <point x="327" y="324" identifier="nqWotUTkQE"/>
      <point x="335" y="331" identifier="VyZbtgBHKN"/>
      <point x="338" y="344" type="curve" smooth="yes" identifier="z4wSnxg0N9"/>
      <point x="340" y="351" identifier="o4Eamu07QO"/>
      <point x="340" y="354" identifier="Lo56Zh365K"/>
      <point x="340" y="358" type="curve" smooth="yes" identifier="hQLM9FmoJi"/>
      <point x="340" y="366" identifier="QICeoouH8c"/>
      <point x="334" y="374" identifier="To3uAS8XZc"/>
      <point x="317" y="374" type="curve" smooth="yes" identifier="rgeRSlOgef"/>
      <point x="299" y="374" identifier="swCi1rq4TX"/>
      <point x="291" y="367" identifier="IBT5syMnDJ"/>
      <point x="288" y="354" type="curve" smooth="yes" identifier="tRIFa1nSRH"/>
      <point x="286" y="347" identifier="G4gadi69hl"/>
      <point x="286" y="344" identifier="OlZ4YvzVQb"/>
      <point x="286" y="340" type="curve" smooth="yes" identifier="3q5EvUiYPu"/>
      <point x="286" y="332" identifier="oX6fuux2pk"/>
      <point x="292" y="324" identifier="OVAlo9UB1Q"/>
    </contour>
  </outline>
</glyph>
<glyph name="one" format="2">
  <advance width="600"/>
  <unicode hex="0031"/>
  <outline>
    <contour>
      <point x="502" y="0" type="line" identifier="E7CuZt1LUE"/>
      <point x="505" y="20" type="line" identifier="9dAYuPJim4"/>
      <point x="294" y="20" type="line" identifier="VQt5QM3sfl"/>
      <point x="407" y="698" type="line" identifier="UkPtUj9PgT"/>
      <point x="367" y="698" type="line" identifier="JX6PKil9CF"/>
      <point x="123" y="517" type="line" identifier="U8crFX1xk0"/>
      <point x="134" y="501" type="line" identifier="GqytvqsdXF"/>
      <point x="379" y="682" type="line" identifier="YxBHq1Fiig"/>
      <point x="382" y="682" type="line" identifier="jCsbegllJM"/>
      <point x="272" y="20" type="line" identifier="Nv3rk0Z2nh"/>
      <point x="53" y="20" type="line" identifier="WTLt1TH2g2"/>
      <point x="50" y="0" type="line" identifier="ThO6KJz9tP"/>
    </contour>
  </outline>
</glyph>
<glyph name="two" format="2">
  <advance width="600"/>
  <unicode hex="0032"/>
  <outline>
    <contour>
      <point x="481" y="20" type="line" identifier="1sigqd8jA0"/>
      <point x="73" y="20" type="line" identifier="bc6v3WgIaM"/>
      <point x="384" y="289" type="line" smooth="yes" identifier="uAA3Bd49RA"/>
      <point x="489" y="380" identifier="402jtEDppH"/>
      <point x="532" y="449" identifier="rIjyuMkaJG"/>
      <point x="532" y="553" type="curve" smooth="yes" identifier="qNDUDACRVS"/>
      <point x="532" y="640" identifier="23qf5dM1Od"/>
      <point x="474" y="710" identifier="U3P5NYpC75"/>
      <point x="359" y="710" type="curve" smooth="yes" identifier="csEq6NzBIP"/>
      <point x="252" y="710" identifier="RqdPYlISCj"/>
      <point x="177" y="662" identifier="IsaGmkNpaH"/>
      <point x="140" y="557" type="curve" identifier="wsSfVkrqBt"/>
      <point x="159" y="551" type="line" identifier="KmpoJmuBgC"/>
      <point x="196" y="648" identifier="EVd3aIwgxo"/>
      <point x="260" y="690" identifier="uE7HZdFetO"/>
      <point x="357" y="690" type="curve" smooth="yes" identifier="ywQNRQu9BN"/>
      <point x="460" y="690" identifier="2K5TxW22Jc"/>
      <point x="511" y="632" identifier="IrbcMgLfbU"/>
      <point x="511" y="553" type="curve" smooth="yes" identifier="GOkFpPOWTI"/>
      <point x="511" y="542" identifier="HujeH8h5Ev"/>
      <point x="511" y="531" identifier="aW2Zn1IUyy"/>
      <point x="504" y="490" type="curve" smooth="yes" identifier="vADjHF0ZwA"/>
      <point x="493" y="426" identifier="0EYOpIEP0a"/>
      <point x="441" y="363" identifier="gH5EvhvmXv"/>
      <point x="369" y="302" type="curve" smooth="yes" identifier="rBBzWtfKdy"/>
      <point x="48" y="24" type="line" identifier="ZNjMP1I6Li"/>
      <point x="44" y="0" type="line" identifier="k52qmMU3R8"/>
      <point x="478" y="0" type="line" identifier="9VtCGxoapQ"/>
    </contour>
  </outline>
</glyph>
<glyph name="three" format="2">
  <advance width="600"/>
  <unicode hex="0033"/>
  <outline>
    <contour>
      <point x="210" y="376" type="line" identifier="ChxLsPaZ0a"/>
      <point x="207" y="356" type="line" identifier="28vG7xquBO"/>
      <point x="302" y="356" type="line" smooth="yes" identifier="oN8v7LT53z"/>
      <point x="407" y="356" identifier="wTF9zPEpwZ"/>
      <point x="463" y="298" identifier="5x1rXVdyeX"/>
      <point x="463" y="213" type="curve" smooth="yes" identifier="JaKmoP4fa2"/>
      <point x="463" y="204" identifier="xXuc6lNuRe"/>
      <point x="463" y="195" identifier="hE28WieHTy"/>
      <point x="457" y="160" type="curve" smooth="yes" identifier="2tdQAe2z4F"/>
      <point x="442" y="66" identifier="OlYlakFfr4"/>
      <point x="366" y="8" identifier="B9E2XQfUkR"/>
      <point x="257" y="8" type="curve" smooth="yes" identifier="onwSkLUbTq"/>
      <point x="162" y="8" identifier="iscvZYKkQN"/>
      <point x="98" y="36" identifier="5IeHtKEumU"/>
      <point x="65" y="105" type="curve" identifier="P9uksCOyoI"/>
      <point x="48" y="95" type="line" identifier="4g66T9rn3f"/>
      <point x="82" y="21" identifier="02wHDcdUlv"/>
      <point x="158" y="-12" identifier="yFpnSJ4XHv"/>
      <point x="256" y="-12" type="curve" smooth="yes" identifier="I2ee9w5eIV"/>
      <point x="393" y="-12" identifier="LrdY8BsR7n"/>
      <point x="485" y="69" identifier="fshrDvghYg"/>
      <point x="485" y="213" type="curve" smooth="yes" identifier="NYmXEelvE2"/>
      <point x="485" y="295" identifier="hBQqNPL1Vx"/>
      <point x="430" y="354" identifier="L861Wuq5HH"/>
      <point x="361" y="363" type="curve" identifier="senPNrTnrD"/>
      <point x="361" y="366" type="line" identifier="UjrfouuAo5"/>
      <point x="466" y="382" identifier="TuwTWTQhTf"/>
      <point x="526" y="447" identifier="fTtVhTbVkW"/>
      <point x="526" y="558" type="curve" smooth="yes" identifier="D1iYOHKVwu"/>
      <point x="526" y="653" identifier="SgLbXugvtZ"/>
      <point x="449" y="710" identifier="B9IzEgP5PN"/>
      <point x="352" y="710" type="curve" smooth="yes" identifier="avfMeqLIDa"/>
      <point x="247" y="710" identifier="lAmJ3mwNCI"/>
      <point x="183" y="669" identifier="A3KuyzDsoo"/>
      <point x="146" y="599" type="curve" identifier="qUzsRme3PI"/>
      <point x="164" y="590" type="line" identifier="eTaq7T7Nmt"/>
      <point x="202" y="659" identifier="YcVfAeZayQ"/>
      <point x="256" y="690" identifier="X543MFMcSI"/>
      <point x="349" y="690" type="curve" smooth="yes" identifier="BjmWnjDtTl"/>
      <point x="442" y="690" identifier="x6UfhahLO7"/>
      <point x="504" y="640" identifier="kJfMMTxGoV"/>
      <point x="504" y="557" type="curve" smooth="yes" identifier="YqnDoRQceI"/>
      <point x="504" y="549" identifier="4crHiBxTUZ"/>
      <point x="503" y="539" identifier="zD53tL2Zod"/>
      <point x="499" y="512" type="curve" smooth="yes" identifier="3gQ5t8Gxhs"/>
      <point x="485" y="424" identifier="kdF1XraEf8"/>
      <point x="412" y="376" identifier="kwiTDFcYOy"/>
      <point x="304" y="376" type="curve" smooth="yes" identifier="rq8cp9nolj"/>
    </contour>
  </outline>
</glyph>
<glyph name="four" format="2">
  <advance width="600"/>
  <unicode hex="0034"/>
  <outline>
    <contour>
      <point x="390" y="0" type="line" identifier="tG0I6VFOxn"/>
      <point x="417" y="160" type="line" identifier="eq8FHVVdsl"/>
      <point x="534" y="160" type="line" identifier="3nZZEXJNbf"/>
      <point x="537" y="179" type="line" identifier="FOvK7BZvzC"/>
      <point x="420" y="179" type="line" identifier="Z1JCSq54n0"/>
      <point x="507" y="698" type="line" identifier="k24JUoscZ0"/>
      <point x="480" y="698" type="line" identifier="SwEaBnY5tZ"/>
      <point x="34" y="181" type="line" identifier="y0haCyMoie"/>
      <point x="31" y="160" type="line" identifier="0pVh3VOp1n"/>
      <point x="396" y="160" type="line" identifier="ffnoWCgHXt"/>
      <point x="369" y="0" type="line" identifier="J3qJNgMTSI"/>
    </contour>
    <contour>
      <point x="477" y="667" type="line" identifier="KfPa6wptKK"/>
      <point x="480" y="667" type="line" identifier="cQHZPUwiSw"/>
      <point x="399" y="179" type="line" identifier="dvPAk3sQXx"/>
      <point x="58" y="179" type="line" identifier="h8Wqk9vpwP"/>
    </contour>
  </outline>
</glyph>
<glyph name="five" format="2">
  <advance width="600"/>
  <unicode hex="0035"/>
  <outline>
    <contour>
      <point x="554" y="698" type="line" identifier="n9QwnWlm38"/>
      <point x="212" y="698" type="line" identifier="wt26ZMgxGw"/>
      <point x="124" y="326" type="line" identifier="tp1vBmeHsa"/>
      <point x="148" y="323" type="line" identifier="CEUZBZBI5j"/>
      <point x="196" y="370" identifier="jDCZVMpDTx"/>
      <point x="237" y="393" identifier="bmgDE3iSrX"/>
      <point x="316" y="393" type="curve" smooth="yes" identifier="QPHag1SanO"/>
      <point x="422" y="393" identifier="lwF4wIAZx6"/>
      <point x="476" y="334" identifier="nRO6LEx1zG"/>
      <point x="476" y="242" type="curve" smooth="yes" identifier="6dnQzox0TI"/>
      <point x="476" y="230" identifier="N91L12acoR"/>
      <point x="476" y="218" identifier="H05yp1GZAQ"/>
      <point x="469" y="178" type="curve" smooth="yes" identifier="Mc8gLnchyn"/>
      <point x="452" y="75" identifier="un7zHxjuRB"/>
      <point x="385" y="8" identifier="h9ad1s7x8p"/>
      <point x="260" y="8" type="curve" smooth="yes" identifier="5JBqqAwZee"/>
      <point x="184" y="8" identifier="kAaR4NJDov"/>
      <point x="109" y="33" identifier="BRPoX4daQZ"/>
      <point x="76" y="105" type="curve" identifier="74STsmaCPn"/>
      <point x="59" y="95" type="line" identifier="FIRrqcOUbp"/>
      <point x="92" y="21" identifier="uMdtKpWS7m"/>
      <point x="173" y="-12" identifier="yErrRpFmBu"/>
      <point x="261" y="-12" type="curve" smooth="yes" identifier="DSnamgJuBJ"/>
      <point x="407" y="-12" identifier="m0prxxsr72"/>
      <point x="498" y="78" identifier="u0ifwZiGb7"/>
      <point x="498" y="242" type="curve" smooth="yes" identifier="HVfJpeKxVA"/>
      <point x="498" y="346" identifier="Xn0gTsoHKC"/>
      <point x="434" y="413" identifier="INkpVUZay4"/>
      <point x="317" y="413" type="curve" smooth="yes" identifier="aDvjKwdEVn"/>
      <point x="246" y="413" identifier="xJqQVL6m5n"/>
      <point x="194" y="393" identifier="1EyRZJdujj"/>
      <point x="151" y="343" type="curve" identifier="vrvkrPz9lh"/>
      <point x="148" y="344" type="line" identifier="ugnjGpYom6"/>
      <point x="227" y="678" type="line" identifier="de6ghg29bH"/>
      <point x="551" y="678" type="line" identifier="nWx9NADDwj"/>
    </contour>
  </outline>
</glyph>
<glyph name="six" format="2">
  <advance width="600"/>
  <unicode hex="0036"/>
  <outline>
    <contour>
      <point x="268" y="-12" type="curve" smooth="yes" identifier="4dzooG1sio"/>
      <point x="415" y="-12" identifier="3eTLyXLyOZ"/>
      <point x="511" y="97" identifier="bVDqNjmrR0"/>
      <point x="511" y="243" type="curve" smooth="yes" identifier="IOhdqBd5yH"/>
      <point x="511" y="349" identifier="ld9JHClyVz"/>
      <point x="436" y="416" identifier="BEXLJgaz9a"/>
      <point x="327" y="416" type="curve" smooth="yes" identifier="uqIGXKsPNa"/>
      <point x="242" y="416" identifier="KUw7wmtMH6"/>
      <point x="163" y="384" identifier="VjPuBFMuXq"/>
      <point x="119" y="296" type="curve" identifier="8xrMjG39g8"/>
      <point x="116" y="297" type="line" identifier="jkrqIo6nmG"/>
      <point x="171" y="465" identifier="jAYOELr4v7"/>
      <point x="277" y="585" identifier="Rv3ce68Hl2"/>
      <point x="473" y="698" type="curve" identifier="iWkmmWKtqd"/>
      <point x="439" y="698" type="line" identifier="s8KVamS0UL"/>
      <point x="239" y="586" identifier="NYab7jVzxk"/>
      <point x="80" y="396" identifier="ia3IyO5Dzp"/>
      <point x="80" y="171" type="curve" smooth="yes" identifier="2ArNcs2qCR"/>
      <point x="80" y="65" identifier="xpz3slFGDw"/>
      <point x="141" y="-12" identifier="NRM6ix7bhz"/>
    </contour>
    <contour>
      <point x="267" y="8" type="curve" smooth="yes" identifier="13gQlak4ZV"/>
      <point x="158" y="8" identifier="9VkTIzVemX"/>
      <point x="102" y="72" identifier="rZo4s6QiYr"/>
      <point x="102" y="161" type="curve" smooth="yes" identifier="DRuUZj94Au"/>
      <point x="102" y="171" identifier="nSF7VRINIL"/>
      <point x="102" y="182" identifier="GtjRUBtThT"/>
      <point x="108" y="221" type="curve" smooth="yes" identifier="duBHgdrwij"/>
      <point x="125" y="320" identifier="QJd3ZAWgKD"/>
      <point x="206" y="396" identifier="SWP5vJEL8D"/>
      <point x="324" y="396" type="curve" smooth="yes" identifier="hBewjJC33c"/>
      <point x="433" y="396" identifier="NzjRN4zS70"/>
      <point x="489" y="332" identifier="eVEjPYsY8G"/>
      <point x="489" y="243" type="curve" smooth="yes" identifier="Tq0EPbzOSy"/>
      <point x="489" y="233" identifier="DhLEdn0nQb"/>
      <point x="489" y="222" identifier="o4LKwbHz68"/>
      <point x="483" y="183" type="curve" smooth="yes" identifier="qvuAG14mnR"/>
      <point x="466" y="84" identifier="P9Az4DVJli"/>
      <point x="385" y="8" identifier="gD6RahCGxP"/>
    </contour>
  </outline>
</glyph>
<glyph name="seven" format="2">
  <advance width="600"/>
  <unicode hex="0037"/>
  <outline>
    <contour>
      <point x="168" y="0" type="line" identifier="NZc7lBzmOL"/>
      <point x="582" y="678" type="line" identifier="kfat5kGnW7"/>
      <point x="585" y="698" type="line" identifier="HloLxU5fFt"/>
      <point x="150" y="698" type="line" identifier="2uoE2Fknwh"/>
      <point x="119" y="512" type="line" identifier="0XJZew59Ec"/>
      <point x="140" y="512" type="line" identifier="pEIVPtyvTA"/>
      <point x="168" y="678" type="line" identifier="lxLRU0hgpM"/>
      <point x="558" y="678" type="line" identifier="AQtJuKXt82"/>
      <point x="144" y="0" type="line" identifier="jegYN7G8CH"/>
    </contour>
  </outline>
</glyph>
<glyph name="eight" format="2">
  <advance width="600"/>
  <unicode hex="0038"/>
  <outline>
    <contour>
      <point x="263" y="-12" type="curve" smooth="yes" identifier="K5H2Cwk7Fg"/>
      <point x="414" y="-12" identifier="uLC2gPCjGI"/>
      <point x="518" y="75" identifier="ldawIocGyK"/>
      <point x="518" y="206" type="curve" smooth="yes" identifier="H3aYrKOvJJ"/>
      <point x="518" y="287" identifier="ajPZpi1kK5"/>
      <point x="473" y="341" identifier="1ByUEyJPST"/>
      <point x="395" y="362" type="curve" identifier="OvhWlsRJNL"/>
      <point x="395" y="366" type="line" identifier="MAfMxKOKPo"/>
      <point x="490" y="385" identifier="woHZiUcRyN"/>
      <point x="553" y="456" identifier="UE9rYKoKcz"/>
      <point x="553" y="558" type="curve" smooth="yes" identifier="ipFvADKHjT"/>
      <point x="553" y="649" identifier="G9CPcbfwib"/>
      <point x="483" y="710" identifier="Cj9VVAQNHm"/>
      <point x="368" y="710" type="curve" smooth="yes" identifier="l8YysSby9J"/>
      <point x="233" y="710" identifier="VYfSONjLzX"/>
      <point x="141" y="632" identifier="2uLjDHOV7F"/>
      <point x="141" y="509" type="curve" smooth="yes" identifier="P9vqHWQ8YT"/>
      <point x="141" y="437" identifier="tq24B4Aj3g"/>
      <point x="181" y="388" identifier="f9khMuzmdt"/>
      <point x="248" y="371" type="curve" identifier="d7nwQPgXnq"/>
      <point x="248" y="367" type="line" identifier="TF2BBjfXVY"/>
      <point x="133" y="349" identifier="PnL5OFHvVi"/>
      <point x="60" y="268" identifier="SESHQ7uccH"/>
      <point x="60" y="156" type="curve" smooth="yes" identifier="2LF6pHnly4"/>
      <point x="60" y="56" identifier="RRAwBeDe5P"/>
      <point x="136" y="-12" identifier="uB5YyKMLhg"/>
    </contour>
    <contour>
      <point x="264" y="8" type="curve" smooth="yes" identifier="zEd2l1lHCh"/>
      <point x="150" y="8" identifier="NxFb4eRhQD"/>
      <point x="83" y="67" identifier="vpOjqlHhqK"/>
      <point x="83" y="151" type="curve" smooth="yes" identifier="MJx2I21Gw5"/>
      <point x="83" y="159" identifier="SWelVmeN2v"/>
      <point x="83" y="166" identifier="NAR63h2rQ7"/>
      <point x="88" y="200" type="curve" smooth="yes" identifier="5UoetHmpJ7"/>
      <point x="103" y="293" identifier="2bPZK2gAxa"/>
      <point x="193" y="356" identifier="gwrAbGGmNT"/>
      <point x="314" y="356" type="curve" smooth="yes" identifier="zEZO0aXehe"/>
      <point x="428" y="356" identifier="UVLJTvhnsW"/>
      <point x="495" y="297" identifier="KLJRiC3I4C"/>
      <point x="495" y="213" type="curve" smooth="yes" identifier="Lh4WYlWLZP"/>
      <point x="495" y="205" identifier="NsZsv25bx3"/>
      <point x="495" y="198" identifier="QxVGS1iWDY"/>
      <point x="490" y="164" type="curve" smooth="yes" identifier="3ZQ6GP3ASt"/>
      <point x="475" y="71" identifier="Pv7iMpDlUG"/>
      <point x="385" y="8" identifier="8MlMyCJWug"/>
    </contour>
    <contour>
      <point x="328" y="376" type="curve" smooth="yes" identifier="o4HYiX4LVQ"/>
      <point x="225" y="376" identifier="AUUQ5h7bHv"/>
      <point x="164" y="425" identifier="dqCjxcTqiF"/>
      <point x="164" y="502" type="curve" smooth="yes" identifier="LwGlkKDRY8"/>
      <point x="164" y="510" identifier="EqpVhV5rS3"/>
      <point x="164" y="518" identifier="MBGwr1Pwve"/>
      <point x="169" y="550" type="curve" smooth="yes" identifier="F1z9jZaQee"/>
      <point x="183" y="636" identifier="1EJ0EKPwZ3"/>
      <point x="257" y="690" identifier="T46nBxSAU8"/>
      <point x="366" y="690" type="curve" smooth="yes" identifier="UCTFOrAQ8m"/>
      <point x="469" y="690" identifier="JQvgzIOprH"/>
      <point x="530" y="641" identifier="TmrhAlirNo"/>
      <point x="530" y="564" type="curve" smooth="yes" identifier="DmIPyRt62u"/>
      <point x="530" y="556" identifier="mdr8oxzHm9"/>
      <point x="530" y="548" identifier="d5JSqzWdXl"/>
      <point x="525" y="516" type="curve" smooth="yes" identifier="kUao0CDWkm"/>
      <point x="511" y="430" identifier="aGvEQDsifA"/>
      <point x="437" y="376" identifier="UfO9DD6yKW"/>
    </contour>
  </outline>
</glyph>
<glyph name="nine" format="2">
  <advance width="600"/>
  <unicode hex="0039"/>
  <outline>
    <contour>
      <point x="537" y="527" type="curve" smooth="yes" identifier="7i7TkSXqrc"/>
      <point x="537" y="633" identifier="UkwREiLeJL"/>
      <point x="476" y="710" identifier="bdoqOVsHYc"/>
      <point x="349" y="710" type="curve" smooth="yes" identifier="yWs9prTr3f"/>
      <point x="202" y="710" identifier="bSTcnyS9oi"/>
      <point x="106" y="601" identifier="33IbrAaOFG"/>
      <point x="106" y="455" type="curve" smooth="yes" identifier="a9Nf6g97k0"/>
      <point x="106" y="349" identifier="MGkiopgCTC"/>
      <point x="181" y="282" identifier="LVTVWn0DPp"/>
      <point x="290" y="282" type="curve" smooth="yes" identifier="eyYoEztnvB"/>
      <point x="375" y="282" identifier="ryUfwY6GNL"/>
      <point x="454" y="314" identifier="qerm125mgz"/>
      <point x="498" y="402" type="curve" identifier="yi0yYts8EY"/>
      <point x="501" y="401" type="line" identifier="7bkZBz3WCU"/>
      <point x="446" y="233" identifier="VHq6LwrEPj"/>
      <point x="340" y="113" identifier="ecrOnGT5Jn"/>
      <point x="144" y="0" type="curve" identifier="G6inVJ8EQK"/>
      <point x="178" y="0" type="line" identifier="bQyFLFO1HR"/>
      <point x="378" y="112" identifier="6Rs2MkozeM"/>
      <point x="537" y="302" identifier="N1djbeX3gg"/>
    </contour>
    <contour>
      <point x="293" y="302" type="curve" smooth="yes" identifier="euYamD7qIC"/>
      <point x="184" y="302" identifier="uDUYWdoUxI"/>
      <point x="128" y="366" identifier="gex20wy9pI"/>
      <point x="128" y="455" type="curve" smooth="yes" identifier="iELfRJ3J4z"/>
      <point x="128" y="465" identifier="Q0BGuJTykW"/>
      <point x="128" y="476" identifier="UdEQfT28FS"/>
      <point x="134" y="515" type="curve" smooth="yes" identifier="DWHtRMwMfg"/>
      <point x="151" y="614" identifier="48JPBissXO"/>
      <point x="232" y="690" identifier="sV09Rb3LfA"/>
      <point x="350" y="690" type="curve" smooth="yes" identifier="dylvY2Q3J9"/>
      <point x="459" y="690" identifier="nFLmgz4Z7m"/>
      <point x="515" y="626" identifier="SRrW0BAp9K"/>
      <point x="515" y="537" type="curve" smooth="yes" identifier="r9YciQS1nZ"/>
      <point x="515" y="527" identifier="GPZn0jfnmz"/>
      <point x="515" y="516" identifier="RPdXO1tv3h"/>
      <point x="509" y="477" type="curve" smooth="yes" identifier="QybiFtOJgO"/>
      <point x="492" y="378" identifier="b6vAnLVl2c"/>
      <point x="411" y="302" identifier="VdLZPqIk5A"/>
    </contour>
  </outline>
</glyph>
<glyph name="less" format="2">
  <advance width="600"/>
  <unicode hex="003C"/>
  <outline>
    <contour>
      <point x="478" y="38" type="line" identifier="8o9hrC4tDc"/>
      <point x="482" y="59" type="line" identifier="9h9ZKhLUzr"/>
      <point x="116" y="303" type="line" identifier="5UirLgZ6lM"/>
      <point x="116" y="305" type="line" identifier="u5tkPkJURg"/>
      <point x="563" y="547" type="line" identifier="B6TYPVTw2U"/>
      <point x="567" y="572" type="line" identifier="imbFO5CDiR"/>
      <point x="94" y="314" type="line" identifier="a0lKSd0Utl"/>
      <point x="91" y="296" type="line" identifier="klA4RQVUVm"/>
    </contour>
  </outline>
</glyph>
<glyph name="equal" format="2">
  <advance width="600"/>
  <unicode hex="003D"/>
  <outline>
    <contour>
      <point x="560" y="385" type="line" identifier="J9Xsdi2Lpb"/>
      <point x="563" y="404" type="line" identifier="bT7dpOPnBF"/>
      <point x="86" y="404" type="line" identifier="1u3sEjtCA3"/>
      <point x="83" y="385" type="line" identifier="iC9qtoHAXe"/>
    </contour>
    <contour>
      <point x="530" y="207" type="line" identifier="yCL2gwWtGy"/>
      <point x="533" y="226" type="line" identifier="KAylKvVwRB"/>
      <point x="56" y="226" type="line" identifier="z8NwfXX0kf"/>
      <point x="53" y="207" type="line" identifier="KeJoT4vBWP"/>
    </contour>
  </outline>
</glyph>
<glyph name="greater" format="2">
  <advance width="600"/>
  <unicode hex="003E"/>
  <outline>
    <contour>
      <point x="48" y="38" type="line" identifier="X65cO1M4eE"/>
      <point x="521" y="296" type="line" identifier="QVgqmmL61G"/>
      <point x="524" y="314" type="line" identifier="ttBUGfQobo"/>
      <point x="137" y="572" type="line" identifier="ZTiErAAnLA"/>
      <point x="133" y="551" type="line" identifier="m1N8nbR8GP"/>
      <point x="499" y="307" type="line" identifier="bpFCj4uagK"/>
      <point x="499" y="305" type="line" identifier="nVzv5sLPyr"/>
      <point x="52" y="63" type="line" identifier="lDNwpR1fAH"/>
    </contour>
  </outline>
</glyph>
<glyph name="question" format="2">
  <advance width="600"/>
  <unicode hex="003F"/>
  <outline>
    <contour>
      <point x="276" y="176" type="line" identifier="RZZVnnK7Ii"/>
      <point x="302" y="331" type="line" identifier="OC73KkXxdN"/>
      <point x="469" y="346" identifier="z9bxS70xA1"/>
      <point x="544" y="428" identifier="pQ7ZBm9kx3"/>
      <point x="544" y="554" type="curve" smooth="yes" identifier="LJOG6OLeNm"/>
      <point x="544" y="648" identifier="7tKJprem9k"/>
      <point x="477" y="710" identifier="zJ1qtZwapS"/>
      <point x="371" y="710" type="curve" smooth="yes" identifier="lq9oQmWqFv"/>
      <point x="258" y="710" identifier="jTTFUFYkZ3"/>
      <point x="188" y="652" identifier="8YkyXPhVAG"/>
      <point x="152" y="560" type="curve" identifier="IjZ0JYChXL"/>
      <point x="171" y="554" type="line" identifier="ybXGiRPoxF"/>
      <point x="207" y="640" identifier="6NLG7OV5NL"/>
      <point x="265" y="691" identifier="EzDRmTtwWn"/>
      <point x="370" y="691" type="curve" smooth="yes" identifier="lUkPOTVGQg"/>
      <point x="469" y="691" identifier="MFNZdqiF7d"/>
      <point x="522" y="639" identifier="GNNWvYxtBg"/>
      <point x="522" y="554" type="curve" smooth="yes" identifier="M44xoJex0t"/>
      <point x="522" y="545" identifier="MeQNCfGoVG"/>
      <point x="519" y="522" identifier="EOa88edJJv"/>
      <point x="517" y="508" type="curve" smooth="yes" identifier="zIeSdsZGeY"/>
      <point x="503" y="411" identifier="yCHSsEAbCO"/>
      <point x="429" y="360" identifier="aPAmEWbvub"/>
      <point x="283" y="349" type="curve" identifier="qRjdnvnzec"/>
      <point x="254" y="176" type="line" identifier="JiTlpz3VsK"/>
    </contour>
    <contour>
      <point x="235" y="-5" type="curve" smooth="yes" identifier="HUlgGUTRFG"/>
      <point x="256" y="-5" identifier="WAAsSHRCEX"/>
      <point x="269" y="5" identifier="FfTVr4lGxD"/>
      <point x="272" y="21" type="curve" smooth="yes" identifier="tPlghlpXZE"/>
      <point x="273" y="26" identifier="VgIxfzl1VV"/>
      <point x="274" y="31" identifier="1pqunbZxQR"/>
      <point x="274" y="35" type="curve" smooth="yes" identifier="w2bSrp4X1A"/>
      <point x="274" y="49" identifier="rYrIffXeax"/>
      <point x="265" y="57" identifier="o0tIqVHJeE"/>
      <point x="245" y="57" type="curve" smooth="yes" identifier="qQO5Cebe98"/>
      <point x="224" y="57" identifier="xk6bpNuzWl"/>
      <point x="211" y="47" identifier="jgehySsly4"/>
      <point x="208" y="31" type="curve" smooth="yes" identifier="HWoAQBMTbQ"/>
      <point x="207" y="26" identifier="YooOwP4mSf"/>
      <point x="206" y="21" identifier="U4fA1Cuu0R"/>
      <point x="206" y="17" type="curve" smooth="yes" identifier="LSNRr8pvsD"/>
      <point x="206" y="3" identifier="rYfoEKYHcW"/>
      <point x="215" y="-5" identifier="YY8EczIapM"/>
    </contour>
  </outline>
</glyph>
<glyph name="at" format="2">
  <advance width="600"/>
  <unicode hex="0040"/>
  <outline>
    <contour>
      <point x="415" y="-87" type="line" identifier="c1nqe1TP6q"/>
      <point x="276" y="-87" type="line" smooth="yes" identifier="ee7XphtfEH"/>
      <point x="145" y="-87" identifier="3gb3slKCIz"/>
      <point x="102" y="-15" identifier="UPd4MplZSr"/>
      <point x="102" y="107" type="curve" smooth="yes" identifier="cykdtN8Omo"/>
      <point x="102" y="155" identifier="Vyq5Mlnj9q"/>
      <point x="109" y="210" identifier="uhOE9MzPJJ"/>
      <point x="119" y="272" type="curve" smooth="yes" identifier="khb1J2aQn1"/>
      <point x="126" y="317" type="line" smooth="yes" identifier="DvUvxQOLOH"/>
      <point x="166" y="572" identifier="xTQX8de1Sl"/>
      <point x="241" y="691" identifier="jMgg3dfkYy"/>
      <point x="370" y="691" type="curve" smooth="yes" identifier="9jCfHJM3f4"/>
      <point x="478" y="691" identifier="Gb5pfExTUZ"/>
      <point x="516" y="638" identifier="bwNX6nFaYS"/>
      <point x="516" y="543" type="curve" smooth="yes" identifier="wAEUKHVoiA"/>
      <point x="516" y="518" identifier="osQIbvo6ad"/>
      <point x="513" y="491" identifier="NTdsLmmon6"/>
      <point x="508" y="463" type="curve" smooth="yes" identifier="L9Vgmm6wX0"/>
      <point x="502" y="426" type="line" identifier="lbvqsmkDiU"/>
      <point x="499" y="426" type="line" identifier="skWbfexzsm"/>
      <point x="489" y="467" identifier="iuVYILENGE"/>
      <point x="451" y="499" identifier="vGlr6eEC03"/>
      <point x="393" y="499" type="curve" smooth="yes" identifier="5qEJb9LGna"/>
      <point x="308" y="499" identifier="7CDMQfBMXS"/>
      <point x="255" y="443" identifier="bdNZdkEFio"/>
      <point x="232" y="302" type="curve" smooth="yes" identifier="pUuCKE20NB"/>
      <point x="227" y="273" identifier="P4dtpCUTkh"/>
      <point x="225" y="248" identifier="G2gCcUpju2"/>
      <point x="225" y="226" type="curve" smooth="yes" identifier="wlgDgQZ4Kh"/>
      <point x="225" y="135" identifier="at43GIMzoU"/>
      <point x="265" y="87" identifier="p1NvZpQp5x"/>
      <point x="335" y="87" type="curve" smooth="yes" identifier="6263k6L3iH"/>
      <point x="394" y="87" identifier="AbxMj5RMJU"/>
      <point x="428" y="125" identifier="PJp3NmDJpG"/>
      <point x="457" y="174" type="curve" identifier="L26upfTfGt"/>
      <point x="460" y="174" type="line" identifier="2wQogbwzGq"/>
      <point x="447" y="95" type="line" identifier="R2iWSgj73E"/>
      <point x="467" y="95" type="line" identifier="cHEXnAXFAW"/>
      <point x="528" y="463" type="line" smooth="yes" identifier="VIqyqa9xrC"/>
      <point x="533" y="492" identifier="aNQksZeOxf"/>
      <point x="535" y="521" identifier="iDIQk9GBih"/>
      <point x="535" y="549" type="curve" smooth="yes" identifier="4ezAAMOjpv"/>
      <point x="535" y="641" identifier="kFUA6wksvk"/>
      <point x="493" y="710" identifier="cPsZoSbFon"/>
      <point x="372" y="710" type="curve" smooth="yes" identifier="sGu3IcWxt5"/>
      <point x="230" y="710" identifier="RwUDbeocP6"/>
      <point x="150" y="594" identifier="A0Z0khLBkm"/>
      <point x="102" y="304" type="curve" smooth="yes" identifier="BxTco5V7ob"/>
      <point x="90" y="230" identifier="DYBfzIbiOm"/>
      <point x="82" y="163" identifier="SsR0b5pl6U"/>
      <point x="82" y="106" type="curve" smooth="yes" identifier="tcvIPb2FwL"/>
      <point x="82" y="-27" identifier="MwiFgkE7lD"/>
      <point x="137" y="-106" identifier="IG1N9w68jZ"/>
      <point x="273" y="-106" type="curve" smooth="yes" identifier="hU0SUFkwHv"/>
      <point x="412" y="-106" type="line" identifier="GLZ7VyO9Mf"/>
    </contour>
    <contour>
      <point x="341" y="105" type="curve" smooth="yes" identifier="67Kpgqx8Y7"/>
      <point x="281" y="105" identifier="yMN8YAugFc"/>
      <point x="245" y="137" identifier="sFx5o5LnAe"/>
      <point x="245" y="226" type="curve" smooth="yes" identifier="pduqZBpSHu"/>
      <point x="245" y="243" identifier="SmKm55RRlk"/>
      <point x="247" y="263" identifier="0PySb2B6Se"/>
      <point x="251" y="286" type="curve" smooth="yes" identifier="L0UWQZWzfv"/>
      <point x="256" y="318" type="line" smooth="yes" identifier="WtYtkDo0Ik"/>
      <point x="275" y="438" identifier="mxoQFCWuup"/>
      <point x="328" y="481" identifier="n9zfiqmfJy"/>
      <point x="393" y="481" type="curve" smooth="yes" identifier="4iP3utDEJB"/>
      <point x="468" y="481" identifier="OJwItG4rKy"/>
      <point x="502" y="434" identifier="FmYlxdqNWN"/>
      <point x="491" y="365" type="curve" smooth="yes" identifier="xmARmgaWj0"/>
      <point x="472" y="248" type="line" smooth="yes" identifier="FgNuMvmgW9"/>
      <point x="466" y="212" identifier="WnJbtgfFYp"/>
      <point x="448" y="177" identifier="UVqypYHJ6T"/>
      <point x="424" y="150" type="curve" smooth="yes" identifier="ffLUHXqxJM"/>
      <point x="400" y="123" identifier="2qtBoJ3FFY"/>
      <point x="370" y="105" identifier="iAaVFlTTws"/>
    </contour>
  </outline>
</glyph>
<glyph name="A" format="2">
  <advance width="600"/>
  <unicode hex="0041"/>
  <anchor x="257.0" y="0.0" name="bottom"/>
  <anchor x="505.0" y="0.0" name="bottomright"/>
  <anchor x="374.0" y="698.0" name="top"/>
  <outline>
    <contour>
      <point x="505" y="0" type="line" identifier="ey3F7xA47i"/>
      <point x="388" y="698" type="line" identifier="I4qk2xQbXl"/>
      <point x="358" y="698" type="line" identifier="RZUMfHE6I7"/>
      <point x="9" y="0" type="line" identifier="s1sDb9USNQ"/>
      <point x="33" y="0" type="line" identifier="1aAnelWkFV"/>
      <point x="150" y="234" type="line" identifier="cNgqpoM4ES"/>
      <point x="444" y="234" type="line" identifier="nsnQvJoo26"/>
      <point x="483" y="0" type="line" identifier="h8Obt6w9ug"/>
    </contour>
    <contour>
      <point x="441" y="253" type="line" identifier="ETDDuetfmJ"/>
      <point x="159" y="253" type="line" identifier="d2Vf5Ncser"/>
      <point x="368" y="673" type="line" identifier="hBAJo9DLRe"/>
      <point x="371" y="673" type="line" identifier="s9oWX4WS5d"/>
    </contour>
  </outline>
</glyph>
<glyph name="B" format="2">
  <advance width="600"/>
  <unicode hex="0042"/>
  <anchor x="250.0" y="0.0" name="bottom"/>
  <anchor x="346.0" y="698.0" name="top"/>
  <outline>
    <contour>
      <point x="59" y="0" type="line" identifier="w2d1d0E3o5"/>
      <point x="306" y="0" type="line" smooth="yes" identifier="F1TriRCeNT"/>
      <point x="436" y="0" identifier="l2YdAKaJ8W"/>
      <point x="509" y="75" identifier="S4cg4WQeFp"/>
      <point x="509" y="216" type="curve" smooth="yes" identifier="dEyGsg5X3n"/>
      <point x="509" y="286" identifier="c7FdqKaeCc"/>
      <point x="475" y="340" identifier="HlwXxpS9f6"/>
      <point x="407" y="354" type="curve" identifier="lOVxHhnGVM"/>
      <point x="407" y="357" type="line" identifier="JEHn4vvXPg"/>
      <point x="496" y="380" identifier="nK2VOxnBTe"/>
      <point x="533" y="458" identifier="L98b9NPvJk"/>
      <point x="533" y="549" type="curve" smooth="yes" identifier="E0xOEsuOTy"/>
      <point x="533" y="646" identifier="qZ5YyKfRPx"/>
      <point x="478" y="698" identifier="ZgPExSYR02"/>
      <point x="379" y="698" type="curve" smooth="yes" identifier="NY0oVFuHxN"/>
      <point x="175" y="698" type="line" identifier="DQhkeKnxBN"/>
    </contour>
    <contour>
      <point x="84" y="20" type="line" identifier="KY1eGoCekr"/>
      <point x="138" y="344" type="line" identifier="piVIpt94im"/>
      <point x="357" y="344" type="line" smooth="yes" identifier="wgnApjnVYG"/>
      <point x="448" y="344" identifier="SgKzg2cVuu"/>
      <point x="487" y="286" identifier="mmqR6cuRzK"/>
      <point x="487" y="216" type="curve" smooth="yes" identifier="yoojXeBHt0"/>
      <point x="487" y="206" identifier="ZWMmQpxPCO"/>
      <point x="487" y="198" identifier="fLDDjYhAFY"/>
      <point x="485" y="186" type="curve" smooth="yes" identifier="JyH6IAQKzs"/>
      <point x="479" y="149" type="line" smooth="yes" identifier="qrBB5H7qaA"/>
      <point x="467" y="75" identifier="TFcEZd9gYT"/>
      <point x="408" y="20" identifier="8INmhU9qZt"/>
      <point x="306" y="20" type="curve" smooth="yes" identifier="CKbzmYoRRR"/>
    </contour>
    <contour>
      <point x="142" y="364" type="line" identifier="lXMcKQFHmO"/>
      <point x="194" y="678" type="line" identifier="PtG1HrFXqm"/>
      <point x="379" y="678" type="line" smooth="yes" identifier="XakyGpKKSs"/>
      <point x="473" y="678" identifier="BCM4YkEyVW"/>
      <point x="511" y="626" identifier="2reZdgrD3p"/>
      <point x="511" y="555" type="curve" smooth="yes" identifier="apujt6o59w"/>
      <point x="511" y="546" identifier="9iqLhqHrza"/>
      <point x="511" y="541" identifier="fcNtYOIsJu"/>
      <point x="509" y="527" type="curve" smooth="yes" identifier="bffZC4JmsR"/>
      <point x="504" y="495" type="line" smooth="yes" identifier="HfCGWRaZ9W"/>
      <point x="493" y="422" identifier="gtdhcVEqb0"/>
      <point x="439" y="364" identifier="blPn9DUpIM"/>
      <point x="345" y="364" type="curve" smooth="yes" identifier="G9ilEG10w8"/>
    </contour>
  </outline>
</glyph>
<glyph name="C" format="2">
  <advance width="600"/>
  <unicode hex="0043"/>
  <anchor x="278.0" y="0.0" name="bottom"/>
  <anchor x="385.0" y="698.0" name="top"/>
  <outline>
    <contour>
      <point x="280" y="-12" type="curve" smooth="yes" identifier="UZhTR894HW"/>
      <point x="376" y="-12" identifier="0rGtvksJcU"/>
      <point x="439" y="34" identifier="KbyY9LF8RY"/>
      <point x="498" y="142" type="curve" identifier="5QUxqMWdPY"/>
      <point x="479" y="151" type="line" identifier="0d04dehPiz"/>
      <point x="429" y="56" identifier="yQtxLJRoBA"/>
      <point x="369" y="8" identifier="PBkpuupWFq"/>
      <point x="280" y="8" type="curve" smooth="yes" identifier="NOnHKLwx2i"/>
      <point x="173" y="8" identifier="d6UPUuVRh4"/>
      <point x="111" y="79" identifier="jaD4RGsJ14"/>
      <point x="111" y="219" type="curve" smooth="yes" identifier="NTd1RMBlPo"/>
      <point x="111" y="253" identifier="hEX4i7a6y2"/>
      <point x="112" y="291" identifier="s8V8fOilqO"/>
      <point x="119" y="331" type="curve" smooth="yes" identifier="Xz0nvs15jn"/>
      <point x="129" y="390" type="line" smooth="yes" identifier="er0qQWX8RC"/>
      <point x="162" y="582" identifier="MM0VRMXuoo"/>
      <point x="259" y="690" identifier="6nXU250ibW"/>
      <point x="380" y="690" type="curve" smooth="yes" identifier="LVLvCIdop3"/>
      <point x="472" y="690" identifier="9lEhrKyHoz"/>
      <point x="514" y="642" identifier="hKHTgcjsgi"/>
      <point x="537" y="563" type="curve" identifier="fGPVkGH46j"/>
      <point x="557" y="569" type="line" identifier="deDE1yaQzw"/>
      <point x="532" y="656" identifier="Kq7qw6qeeD"/>
      <point x="482" y="710" identifier="Ut4qgBMHNa"/>
      <point x="381" y="710" type="curve" smooth="yes" identifier="nvBsYwZseL"/>
      <point x="182" y="710" identifier="KNJ4WoXasI"/>
      <point x="90" y="461" identifier="XzsmVfDPpZ"/>
      <point x="90" y="219" type="curve" smooth="yes" identifier="YsOt7y7i8f"/>
      <point x="90" y="58" identifier="cvoBt7oTKA"/>
      <point x="168" y="-12" identifier="kDodyW3HzQ"/>
    </contour>
  </outline>
</glyph>
<glyph name="D" format="2">
  <advance width="600"/>
  <unicode hex="0044"/>
  <anchor x="242.0" y="0.0" name="bottom"/>
  <anchor x="345.0" y="698.0" name="top"/>
  <outline>
    <contour>
      <point x="65" y="0" type="line" identifier="ioVY2focvK"/>
      <point x="260" y="0" type="line" smooth="yes" identifier="BXIHFRZaXC"/>
      <point x="472" y="0" identifier="TgpNy5wabI"/>
      <point x="552" y="228" identifier="GJbtxlNmr7"/>
      <point x="552" y="469" type="curve" smooth="yes" identifier="qEUuOzck3d"/>
      <point x="552" y="620" identifier="OFFAsebqRB"/>
      <point x="466" y="698" identifier="aNMbzEU0yd"/>
      <point x="343" y="698" type="curve" smooth="yes" identifier="HZ4iKNpDJ9"/>
      <point x="181" y="698" type="line" identifier="eYLiZxbVUc"/>
    </contour>
    <contour>
      <point x="90" y="20" type="line" identifier="Om7qir1ZYU"/>
      <point x="200" y="678" type="line" identifier="8px5BYmWqX"/>
      <point x="344" y="678" type="line" smooth="yes" identifier="BX4cIApAcV"/>
      <point x="460" y="678" identifier="o4pBX70pDE"/>
      <point x="531" y="603" identifier="JhaYRcRXd7"/>
      <point x="531" y="468" type="curve" smooth="yes" identifier="KpG2M8KKVk"/>
      <point x="531" y="434" identifier="JQy1IxyqQL"/>
      <point x="530" y="397" identifier="WzfaA8PQaq"/>
      <point x="523" y="357" type="curve" smooth="yes" identifier="J17qVltlea"/>
      <point x="513" y="298" type="line" smooth="yes" identifier="TR461IQVgV"/>
      <point x="482" y="115" identifier="jUm7CziJlH"/>
      <point x="389" y="20" identifier="hXVCfmh6yq"/>
      <point x="260" y="20" type="curve" smooth="yes" identifier="egfI5ckAJG"/>
    </contour>
  </outline>
</glyph>
<glyph name="E" format="2">
  <advance width="600"/>
  <unicode hex="0045"/>
  <anchor x="268.0" y="0.0" name="bottom"/>
  <anchor x="471.0" y="0.0" name="bottomright"/>
  <anchor x="385.0" y="698.0" name="top"/>
  <outline>
    <contour>
      <point x="471" y="0" type="line" identifier="S421uMSfim"/>
      <point x="474" y="20" type="line" identifier="udZp91Ib1i"/>
      <point x="90" y="20" type="line" identifier="gsueF9SCYw"/>
      <point x="144" y="344" type="line" identifier="3rXx5Hhzrf"/>
      <point x="514" y="344" type="line" identifier="LH3yDLpNGj"/>
      <point x="518" y="364" type="line" identifier="e5eyLFANn4"/>
      <point x="148" y="364" type="line" identifier="fJNiCAL92B"/>
      <point x="200" y="678" type="line" identifier="vx0FV0DhKx"/>
      <point x="584" y="678" type="line" identifier="PTPX1g0kpI"/>
      <point x="587" y="698" type="line" identifier="7E1f45IZm0"/>
      <point x="181" y="698" type="line" identifier="QIpDWN65kp"/>
      <point x="65" y="0" type="line" identifier="wG4BKO23xP"/>
    </contour>
  </outline>
</glyph>
<glyph name="F" format="2">
  <advance width="600"/>
  <unicode hex="0046"/>
  <anchor x="76.0" y="0.0" name="bottom"/>
  <anchor x="385.0" y="698.0" name="top"/>
  <outline>
    <contour>
      <point x="87" y="0" type="line" identifier="SLhrQTSAjy"/>
      <point x="144" y="344" type="line" identifier="W4KbUUcTJJ"/>
      <point x="504" y="344" type="line" identifier="XQxBItX0rn"/>
      <point x="508" y="364" type="line" identifier="IJECssMqfB"/>
      <point x="148" y="364" type="line" identifier="keWHDJrc8l"/>
      <point x="200" y="678" type="line" identifier="VRymueMSXJ"/>
      <point x="588" y="678" type="line" identifier="UT5szWx9rB"/>
      <point x="591" y="698" type="line" identifier="1uoiHB3jOS"/>
      <point x="181" y="698" type="line" identifier="OoCjjDTbK0"/>
      <point x="65" y="0" type="line" identifier="smlgeAhg46"/>
    </contour>
  </outline>
</glyph>
<glyph name="G" format="2">
  <advance width="600"/>
  <unicode hex="0047"/>
  <anchor x="271.0" y="0.0" name="bottom"/>
  <anchor x="378.0" y="698.0" name="top"/>
  <outline>
    <contour>
      <point x="448" y="0" type="line" identifier="CyfSN2qlAN"/>
      <point x="470" y="0" type="line" identifier="lshyPCzFWt"/>
      <point x="523" y="315" type="line" identifier="SvLWAUbhZ4"/>
      <point x="323" y="315" type="line" identifier="pMayLcDJgL"/>
      <point x="319" y="295" type="line" identifier="b8xRyw4yDs"/>
      <point x="498" y="295" type="line" identifier="sTcdgxZrt7"/>
      <point x="481" y="195" type="line" smooth="yes" identifier="nulHSuHZAw"/>
      <point x="462" y="86" identifier="4EUSVbpOmT"/>
      <point x="388" y="8" identifier="HL1mC7cZFo"/>
      <point x="284" y="8" type="curve" smooth="yes" identifier="AhiCJfGh6i"/>
      <point x="161" y="8" identifier="roEVJipTfW"/>
      <point x="110" y="79" identifier="w3tMIP2bJa"/>
      <point x="110" y="219" type="curve" smooth="yes" identifier="VKwi55pvA9"/>
      <point x="110" y="253" identifier="NiihT1W01V"/>
      <point x="111" y="291" identifier="KRqOO0dhZh"/>
      <point x="118" y="331" type="curve" smooth="yes" identifier="a4mcqJEaBe"/>
      <point x="128" y="390" type="line" smooth="yes" identifier="SvlFbpinF0"/>
      <point x="161" y="582" identifier="lc21LUV69i"/>
      <point x="249" y="690" identifier="ima5GwoG5P"/>
      <point x="376" y="690" type="curve" smooth="yes" identifier="IybpmNfGU4"/>
      <point x="468" y="690" identifier="EchgmKOz0B"/>
      <point x="517" y="642" identifier="ASjUCEYLm3"/>
      <point x="540" y="563" type="curve" identifier="hcaqCXo53h"/>
      <point x="560" y="569" type="line" identifier="6J8JjsZIoE"/>
      <point x="535" y="656" identifier="EjhLLpUmwA"/>
      <point x="479" y="710" identifier="J9p03VJaAL"/>
      <point x="376" y="710" type="curve" smooth="yes" identifier="bttdMaXpp4"/>
      <point x="172" y="710" identifier="jqP5mJCddI"/>
      <point x="89" y="461" identifier="37ZZNEYtJJ"/>
      <point x="89" y="219" type="curve" smooth="yes" identifier="GeI4rmjjGr"/>
      <point x="89" y="58" identifier="MTITlBA7hU"/>
      <point x="156" y="-12" identifier="hsFCJCALu4"/>
      <point x="284" y="-12" type="curve" smooth="yes" identifier="enTonlgEyx"/>
      <point x="378" y="-12" identifier="uRRu6stuWA"/>
      <point x="426" y="39" identifier="dNSCnbO5vt"/>
      <point x="463" y="103" type="curve" identifier="MZjxHKOZIy"/>
      <point x="466" y="103" type="line" identifier="zZgDQl6UUE"/>
    </contour>
  </outline>
</glyph>
<glyph name="H" format="2">
  <advance width="600"/>
  <unicode hex="0048"/>
  <anchor x="259.0" y="0.0" name="bottom"/>
  <anchor x="374.0" y="698.0" name="top"/>
  <outline>
    <contour>
      <point x="437" y="0" type="line" identifier="IMfjW0dcXb"/>
      <point x="459" y="0" type="line" identifier="fFqXTgQtbe"/>
      <point x="575" y="698" type="line" identifier="lCzTPkYkkP"/>
      <point x="553" y="698" type="line" identifier="ZMyJwfNaJs"/>
      <point x="498" y="364" type="line" identifier="e5nyehfdlE"/>
      <point x="138" y="364" type="line" identifier="qsGMpNGqad"/>
      <point x="193" y="698" type="line" identifier="gNoPTUjzhY"/>
      <point x="171" y="698" type="line" identifier="9WxuhJPIYa"/>
      <point x="55" y="0" type="line" identifier="wgWZGOsoo5"/>
      <point x="77" y="0" type="line" identifier="6ndPk1W1YJ"/>
      <point x="134" y="344" type="line" identifier="VN4xpNvONm"/>
      <point x="494" y="344" type="line" identifier="2GSa9eUKcT"/>
    </contour>
  </outline>
</glyph>
<glyph name="I" format="2">
  <advance width="600"/>
  <unicode hex="0049"/>
  <anchor x="257.0" y="0.0" name="bottom"/>
  <anchor x="465.0" y="0.0" name="bottomright"/>
  <anchor x="374.0" y="698.0" name="top"/>
  <outline>
    <contour>
      <point x="465" y="0" type="line" identifier="KH1zhVbyWj"/>
      <point x="468" y="19" type="line" identifier="gtAGCMTBiO"/>
      <point x="271" y="19" type="line" identifier="lo22RuCL0U"/>
      <point x="381" y="679" type="line" identifier="6hjqLsoCWB"/>
      <point x="578" y="679" type="line" identifier="BH13E7mzC9"/>
      <point x="581" y="698" type="line" identifier="TqqCNuhttF"/>
      <point x="165" y="698" type="line" identifier="YZsCmTZYsr"/>
      <point x="162" y="679" type="line" identifier="WPgbfe6D75"/>
      <point x="359" y="679" type="line" identifier="6mVJCXCto2"/>
      <point x="249" y="19" type="line" identifier="elvgb60FoR"/>
      <point x="52" y="19" type="line" identifier="tqmJK0qPFo"/>
      <point x="49" y="0" type="line" identifier="mAjFSCZm4H"/>
    </contour>
  </outline>
</glyph>
<glyph name="J" format="2">
  <advance width="600"/>
  <unicode hex="004A"/>
  <anchor x="236.0" y="0.0" name="bottom"/>
  <anchor x="387.0" y="698.0" name="top"/>
  <outline>
    <contour>
      <point x="230" y="698" type="line" identifier="FkkB7NlkW5"/>
      <point x="227" y="678" type="line" identifier="onZ6de6jBE"/>
      <point x="510" y="678" type="line" identifier="afhmMgaTTg"/>
      <point x="429" y="193" type="line" smooth="yes" identifier="lHZUdiWGaI"/>
      <point x="409" y="75" identifier="7y8LIKb0VW"/>
      <point x="339" y="8" identifier="FrdryuFkRJ"/>
      <point x="233" y="8" type="curve" smooth="yes" identifier="uz6FWvASUl"/>
      <point x="155" y="8" identifier="dJgqn18QEt"/>
      <point x="99" y="45" identifier="0aPlaVh4v5"/>
      <point x="94" y="123" type="curve" identifier="OoXOPzvOlQ"/>
      <point x="73" y="119" type="line" identifier="Osk79l7QSQ"/>
      <point x="77" y="42" identifier="W7KtsfxbiI"/>
      <point x="134" y="-12" identifier="f4jRIosnVc"/>
      <point x="234" y="-12" type="curve" smooth="yes" identifier="CnVg0PHTHz"/>
      <point x="348" y="-12" identifier="rPgy4Bbjy5"/>
      <point x="429" y="60" identifier="MBLuzpWvCe"/>
      <point x="450" y="187" type="curve" smooth="yes" identifier="rogqTSvPtx"/>
      <point x="535" y="698" type="line" identifier="PlFtVvtoTm"/>
    </contour>
  </outline>
</glyph>
<glyph name="K" format="2">
  <advance width="600"/>
  <unicode hex="004B"/>
  <anchor x="268.0" y="0.0" name="bottom"/>
  <anchor x="374.0" y="698.0" name="top"/>
  <outline>
    <contour>
      <point x="479" y="0" type="line" identifier="lvvcIRv7Ag"/>
      <point x="503" y="0" type="line" identifier="PysKX63Stn"/>
      <point x="302" y="402" type="line" identifier="12GYe8bYqA"/>
      <point x="618" y="698" type="line" identifier="KuMujzCbgW"/>
      <point x="590" y="698" type="line" identifier="hiIsotPChe"/>
      <point x="295" y="423" type="line" identifier="OhR71LWAdr"/>
      <point x="135" y="273" type="line" identifier="XyWQYJkgBj"/>
      <point x="132" y="273" type="line" identifier="GxjeMPwJQl"/>
      <point x="203" y="698" type="line" identifier="vkrd5OS7Dr"/>
      <point x="181" y="698" type="line" identifier="YCVPzbZ0MR"/>
      <point x="65" y="0" type="line" identifier="d88zzztXmu"/>
      <point x="87" y="0" type="line" identifier="XliFjUYGSo"/>
      <point x="127" y="240" type="line" identifier="yD0fq25Nct"/>
      <point x="285" y="387" type="line" identifier="UyzCRWE5iX"/>
    </contour>
  </outline>
</glyph>
<glyph name="L" format="2">
  <advance width="600"/>
  <unicode hex="004C"/>
  <anchor x="298.0" y="0.0" name="bottom"/>
  <anchor x="230.0" y="698.0" name="top"/>
  <anchor x="355.0" y="740.0" name="topright"/>
  <outline>
    <contour>
      <point x="485" y="0" type="line" identifier="cxemwfqdqX"/>
      <point x="488" y="20" type="line" identifier="Y5v9gPYauu"/>
      <point x="128" y="20" type="line" identifier="0qs4oCUaGu"/>
      <point x="241" y="698" type="line" identifier="47HY7bWUBq"/>
      <point x="219" y="698" type="line" identifier="PJin5lAFYO"/>
      <point x="103" y="0" type="line" identifier="x5mjLxOOzy"/>
    </contour>
  </outline>
</glyph>
<glyph name="M" format="2">
  <advance width="600"/>
  <unicode hex="004D"/>
  <anchor x="257.0" y="0.0" name="bottom"/>
  <anchor x="375.0" y="698.0" name="top"/>
  <outline>
    <contour>
      <point x="451" y="0" type="line" identifier="WSdPUpiQEZ"/>
      <point x="472" y="0" type="line" identifier="yVQYEB1BGC"/>
      <point x="588" y="698" type="line" identifier="HXe5uhjyTI"/>
      <point x="555" y="698" type="line" identifier="8f8n57MBWj"/>
      <point x="306" y="295" type="line" identifier="5WykrgkhOm"/>
      <point x="303" y="295" type="line" identifier="GNrdnS0CgT"/>
      <point x="189" y="698" type="line" identifier="IQOm5FlGJK"/>
      <point x="158" y="698" type="line" identifier="bAGL0irCTi"/>
      <point x="42" y="0" type="line" identifier="MlpksXJlOo"/>
      <point x="63" y="0" type="line" identifier="VPblS4WBAr"/>
      <point x="174" y="667" type="line" identifier="xCIqhXGSUA"/>
      <point x="177" y="667" type="line" identifier="rDCNpsIici"/>
      <point x="298" y="245" type="line" identifier="z4g8SSDTvp"/>
      <point x="559" y="667" type="line" identifier="JnuDXnICwj"/>
      <point x="562" y="667" type="line" identifier="QGBjrGQM9E"/>
    </contour>
  </outline>
</glyph>
<glyph name="N" format="2">
  <advance width="600"/>
  <unicode hex="004E"/>
  <anchor x="258.0" y="0.0" name="bottom"/>
  <anchor x="374.0" y="698.0" name="top"/>
  <outline>
    <contour>
      <point x="426" y="0" type="line" identifier="1AHYXHNBNU"/>
      <point x="459" y="0" type="line" identifier="pSZlyUtjZK"/>
      <point x="575" y="698" type="line" identifier="jZPX3H2OBo"/>
      <point x="554" y="698" type="line" identifier="HlIzzh63dU"/>
      <point x="442" y="26" type="line" identifier="zIFDgZwqhi"/>
      <point x="439" y="26" type="line" identifier="j1qDvkqwvY"/>
      <point x="204" y="698" type="line" identifier="NtlnJSVfCp"/>
      <point x="171" y="698" type="line" identifier="hpaBIHx2Pt"/>
      <point x="55" y="0" type="line" identifier="ZZdVK1Vilt"/>
      <point x="76" y="0" type="line" identifier="epq6H3F3w5"/>
      <point x="188" y="672" type="line" identifier="gWB0bttzWx"/>
      <point x="191" y="672" type="line" identifier="C8XY6esDfe"/>
    </contour>
  </outline>
</glyph>
<glyph name="O" format="2">
  <advance width="600"/>
  <unicode hex="004F"/>
  <anchor x="262.0" y="0.0" name="bottom"/>
  <anchor x="369.0" y="698.0" name="top"/>
  <outline>
    <contour>
      <point x="262" y="-12" type="curve" smooth="yes" identifier="glLmctXr0K"/>
      <point x="466" y="-12" identifier="GjRiY99QLB"/>
      <point x="550" y="237" identifier="x759aIDaKO"/>
      <point x="550" y="479" type="curve" smooth="yes" identifier="C2PD8AE76a"/>
      <point x="550" y="640" identifier="UzsB4UXuMI"/>
      <point x="485" y="710" identifier="qe4HzOJKdV"/>
      <point x="364" y="710" type="curve" smooth="yes" identifier="H19rE8DSMY"/>
      <point x="160" y="710" identifier="pqsECrVqYB"/>
      <point x="76" y="461" identifier="yldIbEnG9r"/>
      <point x="76" y="219" type="curve" smooth="yes" identifier="xFFjHM5GLf"/>
      <point x="76" y="58" identifier="rG3L1Xzmc4"/>
      <point x="141" y="-12" identifier="variW2Fff6"/>
    </contour>
    <contour>
      <point x="262" y="8" type="curve" smooth="yes" identifier="PdAsrpoxQS"/>
      <point x="146" y="8" identifier="jZTFngl71r"/>
      <point x="97" y="79" identifier="eMe6bM0Kif"/>
      <point x="97" y="219" type="curve" smooth="yes" identifier="h81qb2IiQZ"/>
      <point x="97" y="253" identifier="gHeLwVMGlK"/>
      <point x="98" y="291" identifier="XaEjvFRxHT"/>
      <point x="105" y="331" type="curve" smooth="yes" identifier="NTYyz0llQ6"/>
      <point x="115" y="390" type="line" smooth="yes" identifier="Uxw1BlfCr4"/>
      <point x="148" y="582" identifier="sF2ji9Q5zH"/>
      <point x="237" y="690" identifier="kq3MR8o0cA"/>
      <point x="364" y="690" type="curve" smooth="yes" identifier="wNxRc7awTJ"/>
      <point x="480" y="690" identifier="5BwKrIq2mW"/>
      <point x="529" y="619" identifier="j5VDLv2vDj"/>
      <point x="529" y="479" type="curve" smooth="yes" identifier="zkFh5p0FfP"/>
      <point x="529" y="445" identifier="NQMDHhcrme"/>
      <point x="528" y="407" identifier="wNIyFTGJEo"/>
      <point x="521" y="367" type="curve" smooth="yes" identifier="Cv7M71hTri"/>
      <point x="511" y="308" type="line" smooth="yes" identifier="qCW5Zao5X3"/>
      <point x="478" y="116" identifier="T4MqswPf4b"/>
      <point x="389" y="8" identifier="YOKgWW8VGB"/>
    </contour>
  </outline>
</glyph>
<glyph name="P" format="2">
  <advance width="600"/>
  <unicode hex="0050"/>
  <anchor x="76.0" y="0.0" name="bottom"/>
  <anchor x="376.0" y="698.0" name="top"/>
  <outline>
    <contour>
      <point x="87" y="0" type="line" identifier="NDqmKl5JCU"/>
      <point x="141" y="322" type="line" identifier="bDEUPTq0KO"/>
      <point x="371" y="322" type="line" smooth="yes" identifier="ATnzZVff19"/>
      <point x="502" y="322" identifier="K2m9kSxLqZ"/>
      <point x="572" y="411" identifier="IrwWUwmtd3"/>
      <point x="572" y="547" type="curve" smooth="yes" identifier="f2NTPqc2hg"/>
      <point x="572" y="633" identifier="9ON69nPVwk"/>
      <point x="513" y="698" identifier="Q52K1lr1RL"/>
      <point x="415" y="698" type="curve" smooth="yes" identifier="XYgDGtVz36"/>
      <point x="181" y="698" type="line" identifier="owfuzznOb3"/>
      <point x="65" y="0" type="line" identifier="xqPXPJSfwR"/>
    </contour>
    <contour>
      <point x="200" y="678" type="line" identifier="ILF4CEoIOE"/>
      <point x="415" y="678" type="line" smooth="yes" identifier="q0HJiI3ppL"/>
      <point x="508" y="678" identifier="otlSPd0qlF"/>
      <point x="550" y="616" identifier="jmO6GdSuO6"/>
      <point x="550" y="547" type="curve" smooth="yes" identifier="yrObMVTPT3"/>
      <point x="550" y="538" identifier="bnETMAOAss"/>
      <point x="549" y="530" identifier="THuudNFjkL"/>
      <point x="548" y="521" type="curve" smooth="yes" identifier="Vtevx7Omne"/>
      <point x="542" y="484" type="line" smooth="yes" identifier="230PYucNt5"/>
      <point x="529" y="402" identifier="ONgRImjK1n"/>
      <point x="474" y="342" identifier="d0U4k2Yy73"/>
      <point x="371" y="342" type="curve" smooth="yes" identifier="uZ4rAlJerQ"/>
      <point x="144" y="342" type="line" identifier="wqULN06dh9"/>
    </contour>
  </outline>
</glyph>
<glyph name="Q" format="2">
  <advance width="600"/>
  <unicode hex="0051"/>
  <anchor x="369.0" y="698.0" name="top"/>
  <outline>
    <contour>
      <point x="375" y="-169" type="curve" smooth="yes" identifier="M1tQv6IDCF"/>
      <point x="381" y="-169" identifier="1fT6RmbD2v"/>
      <point x="388" y="-167" identifier="5zPHWXBz6B"/>
      <point x="395" y="-161" type="curve" smooth="yes" identifier="yjVDFSp1tB"/>
      <point x="514" y="-59" type="line" identifier="gQQ2T46PwB"/>
      <point x="501" y="-47" type="line" identifier="tGWJXrRLls"/>
      <point x="378" y="-150" type="line" identifier="HYR5iO0m6Y"/>
      <point x="375" y="-150" type="line" identifier="ZwxXFBPkO0"/>
      <point x="281" y="-11" type="line" identifier="X5knyIqRbj"/>
      <point x="471" y="3" identifier="HGuEDJCDV2"/>
      <point x="550" y="245" identifier="Ndp8hURCgM"/>
      <point x="550" y="479" type="curve" smooth="yes" identifier="fHBPUtOS4s"/>
      <point x="550" y="640" identifier="WHg0ngzMT1"/>
      <point x="485" y="710" identifier="RAih4O26gQ"/>
      <point x="364" y="710" type="curve" smooth="yes" identifier="PWp0bsz4q8"/>
      <point x="160" y="710" identifier="BXprmfWabZ"/>
      <point x="76" y="461" identifier="4qVS9dhAPy"/>
      <point x="76" y="219" type="curve" smooth="yes" identifier="fTKBAfJlBv"/>
      <point x="76" y="61" identifier="HbkSMzg1gD"/>
      <point x="139" y="-10" identifier="3Z9gwJuPfx"/>
      <point x="256" y="-12" type="curve" identifier="ko2TDmFyeK"/>
      <point x="354" y="-156" type="line" smooth="yes" identifier="tQLTBWL9NI"/>
      <point x="360" y="-165" identifier="fECB43m77F"/>
      <point x="367" y="-169" identifier="sjLg8cmTiS"/>
    </contour>
    <contour>
      <point x="262" y="8" type="curve" smooth="yes" identifier="bKir2lZAJx"/>
      <point x="146" y="8" identifier="gsD6KqVUed"/>
      <point x="97" y="79" identifier="ijg44Q3qvz"/>
      <point x="97" y="219" type="curve" smooth="yes" identifier="wubjN9l3vN"/>
      <point x="97" y="253" identifier="aYVxXji4pX"/>
      <point x="98" y="291" identifier="5N35IA53Ur"/>
      <point x="105" y="331" type="curve" smooth="yes" identifier="crkxPa69b9"/>
      <point x="115" y="390" type="line" smooth="yes" identifier="WGiPJC9Fyy"/>
      <point x="148" y="582" identifier="lfPMkZaRWc"/>
      <point x="237" y="690" identifier="Xb8q2Nin3Q"/>
      <point x="364" y="690" type="curve" smooth="yes" identifier="ZUiIbCwckj"/>
      <point x="480" y="690" identifier="sRQSDcRyfd"/>
      <point x="529" y="619" identifier="tEa1PCsSvA"/>
      <point x="529" y="479" type="curve" smooth="yes" identifier="keFV07HYr3"/>
      <point x="529" y="445" identifier="GL5UsiSXEL"/>
      <point x="528" y="407" identifier="DKlwWW7UPw"/>
      <point x="521" y="367" type="curve" smooth="yes" identifier="UR0BtmyWEf"/>
      <point x="511" y="308" type="line" smooth="yes" identifier="NI22z5GJ6X"/>
      <point x="478" y="116" identifier="ARF7gz8NWA"/>
      <point x="389" y="8" identifier="JJRjxYCUak"/>
    </contour>
  </outline>
</glyph>
<glyph name="R" format="2">
  <advance width="600"/>
  <unicode hex="0052"/>
  <anchor x="258.0" y="0.0" name="bottom"/>
  <anchor x="364.0" y="698.0" name="top"/>
  <outline>
    <contour>
      <point x="141" y="322" type="line" identifier="v9ZIigWkai"/>
      <point x="303" y="322" type="line" identifier="nRygUE6CV1"/>
      <point x="455" y="0" type="line" identifier="3SlyOsfeFV"/>
      <point x="478" y="0" type="line" identifier="N0uQ1BPbYe"/>
      <point x="325" y="322" type="line" identifier="f8c71oJEss"/>
      <point x="371" y="322" type="line" smooth="yes" identifier="VswaeJG3yQ"/>
      <point x="502" y="322" identifier="FmstxlO8nf"/>
      <point x="572" y="411" identifier="KWPAZY1b4I"/>
      <point x="572" y="547" type="curve" smooth="yes" identifier="4ZNFapsPdg"/>
      <point x="572" y="633" identifier="q1BUwEeDQ3"/>
      <point x="513" y="698" identifier="UuMpUMzls3"/>
      <point x="415" y="698" type="curve" smooth="yes" identifier="qHClDcc6KE"/>
      <point x="181" y="698" type="line" identifier="UJwoSwlrpy"/>
      <point x="65" y="0" type="line" identifier="eGyIdhdRS1"/>
      <point x="87" y="0" type="line" identifier="2yC6AfNJxG"/>
    </contour>
    <contour>
      <point x="144" y="342" type="line" identifier="eCgFTbyPfM"/>
      <point x="200" y="678" type="line" identifier="F8eVFWsVof"/>
      <point x="415" y="678" type="line" smooth="yes" identifier="qpJZ3Mxenv"/>
      <point x="508" y="678" identifier="vMOLTnBQaJ"/>
      <point x="550" y="616" identifier="GImbsZAIh3"/>
      <point x="550" y="547" type="curve" smooth="yes" identifier="bdIgjw2CTg"/>
      <point x="550" y="538" identifier="3WTptSC2u7"/>
      <point x="549" y="530" identifier="qpmZu8JmkF"/>
      <point x="548" y="521" type="curve" smooth="yes" identifier="VkLv2WneId"/>
      <point x="542" y="484" type="line" smooth="yes" identifier="5Xd6ZkKcds"/>
      <point x="529" y="402" identifier="Xda0N3DHD2"/>
      <point x="474" y="342" identifier="4iNRMEdmLD"/>
      <point x="371" y="342" type="curve" smooth="yes" identifier="L8ewaUTeG1"/>
    </contour>
  </outline>
</glyph>
<glyph name="S" format="2">
  <advance width="600"/>
  <unicode hex="0053"/>
  <anchor x="256.0" y="0.0" name="bottom"/>
  <anchor x="351.0" y="698.0" name="top"/>
  <outline>
    <contour>
      <point x="274" y="-12" type="curve" smooth="yes" identifier="VsGRU0MXiT"/>
      <point x="414" y="-12" identifier="4H7qmfXlCj"/>
      <point x="506" y="61" identifier="b9JiwRGqiY"/>
      <point x="506" y="196" type="curve" smooth="yes" identifier="2SK0XmHILU"/>
      <point x="506" y="281" identifier="816htzwWBb"/>
      <point x="459" y="335" identifier="ayw4jghWwQ"/>
      <point x="359" y="358" type="curve" smooth="yes" identifier="JyLAr1BAXY"/>
      <point x="273" y="378" type="line" smooth="yes" identifier="JExwnRn0R0"/>
      <point x="183" y="399" identifier="2r4VKrzQdj"/>
      <point x="144" y="441" identifier="gTXlPnz3PA"/>
      <point x="144" y="519" type="curve" smooth="yes" identifier="9SJwy9qcWa"/>
      <point x="144" y="632" identifier="vTFZDmpryd"/>
      <point x="222" y="690" identifier="7dibjiIcVm"/>
      <point x="344" y="690" type="curve" smooth="yes" identifier="k8cBYmre4N"/>
      <point x="454" y="690" identifier="oQ9YSurXmW"/>
      <point x="509" y="666" identifier="Qv0zTQ8DcA"/>
      <point x="547" y="601" type="curve" identifier="spc95SC2K1"/>
      <point x="565" y="612" type="line" identifier="aN3K4qYZl6"/>
      <point x="529" y="675" identifier="Zsn823HbL9"/>
      <point x="470" y="710" identifier="DMTlvjkPLF"/>
      <point x="345" y="710" type="curve" smooth="yes" identifier="O1UbkvHZvz"/>
      <point x="214" y="710" identifier="UlEdxpNPmt"/>
      <point x="122" y="645" identifier="2Z00R3IeCZ"/>
      <point x="122" y="519" type="curve" smooth="yes" identifier="86nitHJPrI"/>
      <point x="122" y="434" identifier="hxwKP8we0W"/>
      <point x="167" y="381" identifier="rlclc8v427"/>
      <point x="266" y="358" type="curve" smooth="yes" identifier="sXUqvl5C62"/>
      <point x="352" y="338" type="line" smooth="yes" identifier="rg2TJdPFYH"/>
      <point x="444" y="317" identifier="v9DLiCS0XK"/>
      <point x="483" y="274" identifier="OlLQERxR5L"/>
      <point x="483" y="196" type="curve" smooth="yes" identifier="jBI11N7DZx"/>
      <point x="483" y="76" identifier="cWBdmxcxne"/>
      <point x="405" y="8" identifier="FYcP6SlDSS"/>
      <point x="275" y="8" type="curve" smooth="yes" identifier="7TC6lQCujQ"/>
      <point x="153" y="8" identifier="lSCxTfjcc1"/>
      <point x="96" y="48" identifier="JRub5ARolU"/>
      <point x="54" y="114" type="curve" identifier="bX0Pub8O2g"/>
      <point x="37" y="101" type="line" identifier="7DTdj9JklW"/>
      <point x="80" y="33" identifier="Yyw7L16r6r"/>
      <point x="145" y="-12" identifier="pz0NTfeibV"/>
    </contour>
  </outline>
</glyph>
<glyph name="T" format="2">
  <advance width="600"/>
  <unicode hex="0054"/>
  <anchor x="257.0" y="0.0" name="bottom"/>
  <anchor x="373.0" y="698.0" name="top"/>
  <outline>
    <contour>
      <point x="629" y="678" type="line" identifier="YiMf2naZST"/>
      <point x="632" y="698" type="line" identifier="q5USeCbKdj"/>
      <point x="114" y="698" type="line" identifier="dZHV0ub1j1"/>
      <point x="111" y="678" type="line" identifier="RKcVkYz4zz"/>
      <point x="359" y="678" type="line" identifier="9RQWSd8mhL"/>
      <point x="246" y="0" type="line" identifier="cXvAoSUeTn"/>
      <point x="268" y="0" type="line" identifier="2sj9V1awpO"/>
      <point x="381" y="678" type="line" identifier="V73ox5mwDe"/>
    </contour>
  </outline>
</glyph>
<glyph name="U" format="2">
  <advance width="600"/>
  <unicode hex="0055"/>
  <anchor x="256.0" y="0.0" name="bottom"/>
  <anchor x="348.0" y="0.0" name="bottomright"/>
  <anchor x="373.0" y="698.0" name="top"/>
  <outline>
    <contour>
      <point x="171" y="698" type="line" identifier="jNu7ecem5y"/>
      <point x="101" y="276" type="line" smooth="yes" identifier="ZDFjs6xR4o"/>
      <point x="93" y="228" identifier="le7pkCMmtP"/>
      <point x="87" y="184" identifier="zVUKGkfPw2"/>
      <point x="87" y="149" type="curve" smooth="yes" identifier="nRDLw3WzMH"/>
      <point x="87" y="32" identifier="DGuu3SCBcp"/>
      <point x="142" y="-12" identifier="EllDmTQEks"/>
      <point x="259" y="-12" type="curve" smooth="yes" identifier="SkhonLdZ9i"/>
      <point x="412" y="-12" identifier="CvUmZry2K7"/>
      <point x="469" y="57" identifier="h527Rjz5fP"/>
      <point x="504" y="270" type="curve" smooth="yes" identifier="GN4bIm4S17"/>
      <point x="575" y="698" type="line" identifier="EZXbUdIOOv"/>
      <point x="553" y="698" type="line" identifier="krTn3ThdWJ"/>
      <point x="482" y="271" type="line" smooth="yes" identifier="jk4bSgRw1T"/>
      <point x="449" y="73" identifier="kWr0kAb0Zk"/>
      <point x="401" y="8" identifier="iHjAETqavs"/>
      <point x="261" y="8" type="curve" smooth="yes" identifier="mNhhaeauKD"/>
      <point x="154" y="8" identifier="6AqaY59v50"/>
      <point x="108" y="44" identifier="Lat5x4t7yR"/>
      <point x="108" y="149" type="curve" smooth="yes" identifier="Qa8zS1RCnc"/>
      <point x="108" y="183" identifier="ko4h2UVA57"/>
      <point x="114" y="221" identifier="lb3oxXyaw2"/>
      <point x="122" y="271" type="curve" smooth="yes" identifier="TAryAKtaA6"/>
      <point x="193" y="698" type="line" identifier="0CrNQomEX2"/>
    </contour>
  </outline>
</glyph>
<glyph name="V" format="2">
  <advance width="600"/>
  <unicode hex="0056"/>
  <anchor x="257.0" y="0.0" name="bottom"/>
  <anchor x="374.0" y="698.0" name="top"/>
  <outline>
    <contour>
      <point x="272" y="0" type="line" identifier="YbBKUKdKfL"/>
      <point x="618" y="698" type="line" identifier="IXJy1WC2DO"/>
      <point x="594" y="698" type="line" identifier="HnSh5HzPUy"/>
      <point x="262" y="26" type="line" identifier="O8lE3wxhnu"/>
      <point x="259" y="26" type="line" identifier="0d7xjBtORL"/>
      <point x="151" y="698" type="line" identifier="p3hWIg2EP2"/>
      <point x="128" y="698" type="line" identifier="lFunUsM5J0"/>
      <point x="242" y="0" type="line" identifier="hQfxb9LD33"/>
    </contour>
  </outline>
</glyph>
<glyph name="W" format="2">
  <advance width="600"/>
  <unicode hex="0057"/>
  <anchor x="257.0" y="0.0" name="bottom"/>
  <anchor x="373.0" y="698.0" name="top"/>
  <outline>
    <contour>
      <point x="121" y="0" type="line" identifier="3gFtq0DYCY"/>
      <point x="331" y="454" type="line" identifier="pI3zhAnqF9"/>
      <point x="334" y="454" type="line" identifier="69qN7htpOx"/>
      <point x="393" y="0" type="line" identifier="cxNKDqOnGG"/>
      <point x="431" y="0" type="line" identifier="LJ9Mg76MBK"/>
      <point x="615" y="698" type="line" identifier="hYj9joq1T8"/>
      <point x="595" y="698" type="line" identifier="Wp3bj1lycR"/>
      <point x="415" y="22" type="line" identifier="rc4eB27ikr"/>
      <point x="411" y="22" type="line" identifier="EnbSLbS482"/>
      <point x="351" y="484" type="line" identifier="TlqwXmDnDR"/>
      <point x="323" y="484" type="line" identifier="fsc1DMtWvB"/>
      <point x="109" y="22" type="line" identifier="uGk7QcWFFd"/>
      <point x="105" y="22" type="line" identifier="U7wsyx9NTa"/>
      <point x="151" y="698" type="line" identifier="DrBm9jaEot"/>
      <point x="131" y="698" type="line" identifier="yJMQCt30vj"/>
      <point x="83" y="0" type="line" identifier="lXdVh1DlEE"/>
    </contour>
  </outline>
</glyph>
<glyph name="X" format="2">
  <advance width="600"/>
  <unicode hex="0058"/>
  <anchor x="258.0" y="0.0" name="bottom"/>
  <anchor x="374.0" y="698.0" name="top"/>
  <outline>
    <contour>
      <point x="332" y="355" type="line" identifier="CdBbGW8utH"/>
      <point x="617" y="698" type="line" identifier="bqUFgKbin6"/>
      <point x="589" y="698" type="line" identifier="uM6JkX2JgP"/>
      <point x="322" y="375" type="line" identifier="DS267WIUfF"/>
      <point x="319" y="375" type="line" identifier="YhCMcczt4i"/>
      <point x="157" y="698" type="line" identifier="e3Uw48FYRu"/>
      <point x="133" y="698" type="line" identifier="bWWUbsxwME"/>
      <point x="305" y="356" type="line" identifier="27ijUuoOED"/>
      <point x="8" y="0" type="line" identifier="H5BImeWQat"/>
      <point x="36" y="0" type="line" identifier="RRtC86jxTO"/>
      <point x="315" y="336" type="line" identifier="wchPuOvSBS"/>
      <point x="318" y="336" type="line" identifier="Jj88K7lAFl"/>
      <point x="486" y="0" type="line" identifier="TVApJ3n1Gn"/>
      <point x="510" y="0" type="line" identifier="FWXQbS2jJ1"/>
    </contour>
  </outline>
</glyph>
<glyph name="Y" format="2">
  <advance width="600"/>
  <unicode hex="0059"/>
  <anchor x="257.0" y="0.0" name="bottom"/>
  <anchor x="374.0" y="698.0" name="top"/>
  <outline>
    <contour>
      <point x="268" y="0" type="line" identifier="EKGu8yIjb7"/>
      <point x="317" y="294" type="line" identifier="XzsrD1nTYn"/>
      <point x="645" y="698" type="line" identifier="rTuDIgX7AW"/>
      <point x="619" y="698" type="line" identifier="gzI14bYwTA"/>
      <point x="310" y="317" type="line" identifier="crVzMoKIO9"/>
      <point x="307" y="317" type="line" identifier="F2WQkhuyPe"/>
      <point x="124" y="698" type="line" identifier="IZtp24mt5A"/>
      <point x="101" y="698" type="line" identifier="T2ZLmdvRbi"/>
      <point x="295" y="294" type="line" identifier="pT2d7xcCXi"/>
      <point x="246" y="0" type="line" identifier="yEoQu87ktz"/>
    </contour>
  </outline>
</glyph>
<glyph name="Z" format="2">
  <advance width="600"/>
  <unicode hex="005A"/>
  <anchor x="257.0" y="0.0" name="bottom"/>
  <anchor x="374.0" y="698.0" name="top"/>
  <outline>
    <contour>
      <point x="512" y="20" type="line" identifier="iGRiVb7v3D"/>
      <point x="35" y="20" type="line" identifier="balPDJwYwO"/>
      <point x="599" y="676" type="line" identifier="pfac3jANYs"/>
      <point x="603" y="698" type="line" identifier="vbrG9wugZX"/>
      <point x="144" y="698" type="line" identifier="LKpMvefPTa"/>
      <point x="141" y="678" type="line" identifier="abLKqxYT48"/>
      <point x="573" y="678" type="line" identifier="HanWBWHXCw"/>
      <point x="9" y="22" type="line" identifier="5oeR6ZDC05"/>
      <point x="5" y="0" type="line" identifier="1UDnTwLBJr"/>
      <point x="509" y="0" type="line" identifier="BL6eqoGOq7"/>
    </contour>
  </outline>
</glyph>
<glyph name="bracketleft" format="2">
  <advance width="600"/>
  <unicode hex="005B"/>
  <outline>
    <contour>
      <point x="436" y="-138" type="line" identifier="MEJtqH9hEg"/>
      <point x="439" y="-120" type="line" identifier="WJw1Ya0xwP"/>
      <point x="221" y="-120" type="line" identifier="pwM155rFSK"/>
      <point x="365" y="742" type="line" identifier="vzprZW8JUH"/>
      <point x="583" y="742" type="line" identifier="lnsYAFUWEh"/>
      <point x="586" y="760" type="line" identifier="g0lVxgJMly"/>
      <point x="348" y="760" type="line" identifier="Dqj443hBvV"/>
      <point x="198" y="-138" type="line" identifier="aIE5WuD2Um"/>
    </contour>
  </outline>
</glyph>
<glyph name="backslash" format="2">
  <advance width="600"/>
  <unicode hex="005C"/>
  <outline>
    <contour>
      <point x="427" y="-138" type="line" identifier="BLZ31JsAVy"/>
      <point x="216" y="760" type="line" identifier="kCDtbhlxhi"/>
      <point x="199" y="760" type="line" identifier="oedEfG7lgO"/>
      <point x="410" y="-138" type="line" identifier="ekvAccGMOB"/>
    </contour>
  </outline>
</glyph>
<glyph name="bracketright" format="2">
  <advance width="600"/>
  <unicode hex="005D"/>
  <outline>
    <contour>
      <point x="181" y="760" type="line" identifier="8EMWX0xuH2"/>
      <point x="178" y="742" type="line" identifier="vNyDnmPvQn"/>
      <point x="396" y="742" type="line" identifier="LTXkW4HtON"/>
      <point x="252" y="-120" type="line" identifier="a8jMy26uCE"/>
      <point x="34" y="-120" type="line" identifier="MG82WSmoss"/>
      <point x="31" y="-138" type="line" identifier="z3TWCg7ywO"/>
      <point x="269" y="-138" type="line" identifier="9vEO69t8Uk"/>
      <point x="419" y="760" type="line" identifier="hNJy4WPULw"/>
    </contour>
  </outline>
</glyph>
<glyph name="asciicircum" format="2">
  <advance width="600"/>
  <unicode hex="005E"/>
  <outline>
    <contour>
      <point x="545" y="331" type="line" identifier="jLP3PDegAf"/>
      <point x="384" y="698" type="line" identifier="yvfpnk25gk"/>
      <point x="362" y="698" type="line" identifier="Lh0A6YGyvK"/>
      <point x="82" y="332" type="line" identifier="spg3VihH9N"/>
      <point x="98" y="321" type="line" identifier="zdX1UgatpB"/>
      <point x="370" y="676" type="line" identifier="IJC9U1poM8"/>
      <point x="372" y="676" type="line" identifier="29qaxyuxIA"/>
      <point x="527" y="322" type="line" identifier="ASgUr5THUj"/>
    </contour>
  </outline>
</glyph>
<glyph name="underscore" format="2">
  <advance width="600"/>
  <unicode hex="005F"/>
  <outline>
    <contour>
      <point x="474" y="-141" type="line" identifier="LAO8spX5IJ"/>
      <point x="477" y="-122" type="line" identifier="EAVCDzuAR4"/>
      <point x="-3" y="-122" type="line" identifier="MEU977Dff3"/>
      <point x="-6" y="-141" type="line" identifier="PmDcVQJDmJ"/>
    </contour>
  </outline>
</glyph>
<glyph name="grave" format="2">
  <advance width="600"/>
  <unicode hex="0060"/>
  <anchor x="300.0" y="516.0" name="_top"/>
  <outline>
    <contour>
      <point x="331" y="597" type="line" identifier="dpLJCxQ3ir"/>
      <point x="347" y="606" type="line" identifier="w4ARDKPUnj"/>
      <point x="262" y="761" type="line" identifier="RjdHFFCE8d"/>
      <point x="242" y="750" type="line" identifier="g5DTSkcvMN"/>
    </contour>
  </outline>
</glyph>
<glyph name="a" format="2">
  <advance width="600"/>
  <unicode hex="0061"/>
  <anchor x="235.0" y="0.0" name="bottom"/>
  <anchor x="517.0" y="0.0" name="bottomright"/>
  <anchor x="321.0" y="516.0" name="top"/>
  <outline>
    <contour>
      <point x="244" y="-12" type="curve" smooth="yes" identifier="k3z9ZrS0Zz"/>
      <point x="335" y="-12" identifier="V9sCDMA2tL"/>
      <point x="389" y="40" identifier="JMestwSkDk"/>
      <point x="428" y="115" type="curve" identifier="QHAX0LMq0a"/>
      <point x="431" y="115" type="line" identifier="M7cvso7K5i"/>
      <point x="417" y="30" type="line" smooth="yes" identifier="w2vx4harre"/>
      <point x="414" y="10" identifier="Tb6utTNF4j"/>
      <point x="420" y="0" identifier="hyyYo72NNX"/>
      <point x="440" y="0" type="curve" smooth="yes" identifier="CnU9tuCKT2"/>
      <point x="517" y="0" type="line" identifier="CyQaTX0k8n"/>
      <point x="521" y="19" type="line" identifier="34nkNZBy2E"/>
      <point x="436" y="19" type="line" identifier="9dF1GfeMhH"/>
      <point x="519" y="516" type="line" identifier="8dJsWHG9px"/>
      <point x="498" y="516" type="line" identifier="YLJUHHNSqE"/>
      <point x="483" y="423" type="line" identifier="vla5EBsSkF"/>
      <point x="480" y="423" type="line" identifier="je7yzuz4Z5"/>
      <point x="460" y="484" identifier="wEP6I1LrdL"/>
      <point x="404" y="528" identifier="w7CR0aNWEH"/>
      <point x="313" y="528" type="curve" smooth="yes" identifier="V03vezHQ9l"/>
      <point x="167" y="528" identifier="rdW1zjS8V2"/>
      <point x="71" y="384" identifier="UvMQd85pRp"/>
      <point x="71" y="186" type="curve" smooth="yes" identifier="7VOn5vv4My"/>
      <point x="71" y="72" identifier="BT73GEeOzh"/>
      <point x="130" y="-12" identifier="WXPWXzE2xj"/>
    </contour>
    <contour>
      <point x="244" y="7" type="curve" smooth="yes" identifier="DbHdUm9iOi"/>
      <point x="135" y="7" identifier="RxGr8VfOFQ"/>
      <point x="91" y="89" identifier="bE9vWWLYcu"/>
      <point x="91" y="186" type="curve" smooth="yes" identifier="H4lOzz8vZp"/>
      <point x="91" y="203" identifier="SpsOfThe8Z"/>
      <point x="92" y="220" identifier="62IAvB8ROA"/>
      <point x="95" y="237" type="curve" smooth="yes" identifier="8At1zjyuyG"/>
      <point x="103" y="286" type="line" smooth="yes" identifier="NfE2EdDVEL"/>
      <point x="124" y="412" identifier="6sVv5C8jZU"/>
      <point x="199" y="509" identifier="azdSDaOJqP"/>
      <point x="313" y="509" type="curve" smooth="yes" identifier="p6r61lPGKE"/>
      <point x="441" y="509" identifier="pYLVfGgiLI"/>
      <point x="482" y="424" identifier="Kk3VDe5faG"/>
      <point x="471" y="355" type="curve" smooth="yes" identifier="ZyU6qasII1"/>
      <point x="446" y="204" type="line" smooth="yes" identifier="UbrgQCXmLi"/>
      <point x="435" y="138" identifier="tpgEgxCgkQ"/>
      <point x="397" y="83" identifier="NzDvG8H9JR"/>
      <point x="358" y="48" type="curve" smooth="yes" identifier="w3znQsqRzR"/>
      <point x="325" y="19" identifier="NoxtXihwtV"/>
      <point x="288" y="7" identifier="VJcUtzkGK4"/>
    </contour>
  </outline>
</glyph>
<glyph name="b" format="2">
  <advance width="600"/>
  <unicode hex="0062"/>
  <anchor x="286.0" y="0.0" name="bottom"/>
  <outline>
    <contour>
      <point x="80" y="0" type="line" identifier="HxC2ro29ph"/>
      <point x="101" y="0" type="line" identifier="j1yWBh3vHM"/>
      <point x="116" y="93" type="line" identifier="BwYhqMQz9B"/>
      <point x="119" y="93" type="line" identifier="HZl9jSaH8V"/>
      <point x="139" y="32" identifier="RdP0CE7fkS"/>
      <point x="195" y="-12" identifier="EANfYODGVC"/>
      <point x="286" y="-12" type="curve" smooth="yes" identifier="T31Rl03Zaa"/>
      <point x="432" y="-12" identifier="1N2IubOIHx"/>
      <point x="528" y="132" identifier="gzOYUhZqj3"/>
      <point x="528" y="330" type="curve" smooth="yes" identifier="iT4ChqbKPN"/>
      <point x="528" y="444" identifier="FRpYq4A6Wi"/>
      <point x="469" y="528" identifier="LwgFQ67Rfh"/>
      <point x="355" y="528" type="curve" smooth="yes" identifier="qx7k1KQQYc"/>
      <point x="264" y="528" identifier="AD9ePhjCpT"/>
      <point x="210" y="476" identifier="vjrBXPIr5d"/>
      <point x="171" y="401" type="curve" identifier="mwrmwuqgga"/>
      <point x="168" y="401" type="line" identifier="QuAPrtg4Z0"/>
      <point x="224" y="740" type="line" identifier="T2pZS8a1GG"/>
      <point x="203" y="740" type="line" identifier="B6Oye76sKU"/>
    </contour>
    <contour>
      <point x="286" y="7" type="curve" smooth="yes" identifier="2dAPvNkOog"/>
      <point x="158" y="7" identifier="bZqDOBaZxV"/>
      <point x="117" y="92" identifier="LAFeanli3t"/>
      <point x="128" y="161" type="curve" smooth="yes" identifier="6THf228XYv"/>
      <point x="153" y="312" type="line" smooth="yes" identifier="7uiBhxVK8d"/>
      <point x="164" y="378" identifier="qo6fmkRjwC"/>
      <point x="202" y="433" identifier="jnRRPPl0fx"/>
      <point x="241" y="468" type="curve" smooth="yes" identifier="IFcdDXgZ7A"/>
      <point x="274" y="497" identifier="9HcIBDRWQM"/>
      <point x="311" y="509" identifier="2vlFvWWIb8"/>
      <point x="355" y="509" type="curve" smooth="yes" identifier="7M1t0b7tIW"/>
      <point x="464" y="509" identifier="RPGWKdwYsx"/>
      <point x="508" y="427" identifier="7mxVUaTBEa"/>
      <point x="508" y="330" type="curve" smooth="yes" identifier="Su0za7HTd5"/>
      <point x="508" y="313" identifier="ITYKetk0Qo"/>
      <point x="507" y="296" identifier="0tktaNKEtG"/>
      <point x="504" y="279" type="curve" smooth="yes" identifier="MBl20YlVPt"/>
      <point x="496" y="230" type="line" smooth="yes" identifier="y5Emwnk1GO"/>
      <point x="475" y="104" identifier="wUFHlwZYPP"/>
      <point x="400" y="7" identifier="smzLZv7B5e"/>
    </contour>
  </outline>
</glyph>
<glyph name="c" format="2">
  <advance width="600"/>
  <unicode hex="0063"/>
  <anchor x="260.0" y="0.0" name="bottom"/>
  <anchor x="326.0" y="516.0" name="top"/>
  <outline>
    <contour>
      <point x="265" y="-12" type="curve" smooth="yes" identifier="ueXaRqT37G"/>
      <point x="361" y="-12" identifier="82Cm0ks0yk"/>
      <point x="426" y="49" identifier="v7kLEA4PxC"/>
      <point x="481" y="139" type="curve" identifier="KtZKDjj3wO"/>
      <point x="463" y="147" type="line" identifier="5hvwLA8iN3"/>
      <point x="410" y="62" identifier="bkQntzwFy3"/>
      <point x="351" y="7" identifier="28qjPS5Jdx"/>
      <point x="264" y="7" type="curve" smooth="yes" identifier="5kyVkB7wU5"/>
      <point x="152" y="7" identifier="EfAdfFPMfJ"/>
      <point x="103" y="94" identifier="C0TfGMPAtd"/>
      <point x="103" y="201" type="curve" smooth="yes" identifier="0yqE03IAdK"/>
      <point x="103" y="221" identifier="CnSPJa9CdA"/>
      <point x="104" y="233" identifier="e4WRDNyEA0"/>
      <point x="107" y="253" type="curve" smooth="yes" identifier="EDCPe5TZh7"/>
      <point x="115" y="302" type="line" smooth="yes" identifier="XO53QbVkpv"/>
      <point x="136" y="429" identifier="0mB9408pUq"/>
      <point x="220" y="509" identifier="F8y5F6ecTb"/>
      <point x="334" y="509" type="curve" smooth="yes" identifier="x44KHWiaY7"/>
      <point x="404" y="509" identifier="HzTGMHUlnS"/>
      <point x="458" y="473" identifier="4yJ7Ugj4Jh"/>
      <point x="475" y="408" type="curve" identifier="s3GBkOwexr"/>
      <point x="494" y="413" type="line" identifier="vcs9kzHLYe"/>
      <point x="478" y="481" identifier="B8dCmR2T6j"/>
      <point x="417" y="528" identifier="JLxHW5RjJu"/>
      <point x="335" y="528" type="curve" smooth="yes" identifier="9SibcFwEu5"/>
      <point x="188" y="528" identifier="9B7oQ5Qh6A"/>
      <point x="83" y="409" identifier="ExO9CMsCHn"/>
      <point x="83" y="201" type="curve" smooth="yes" identifier="2LghY81exp"/>
      <point x="83" y="77" identifier="0SKmTCzCFw"/>
      <point x="144" y="-12" identifier="j8uWBGGEoZ"/>
    </contour>
  </outline>
</glyph>
<glyph name="d" format="2">
  <advance width="600"/>
  <unicode hex="0064"/>
  <anchor x="244.0" y="0.0" name="bottom"/>
  <anchor x="626.0" y="740.0" name="topright"/>
  <outline>
    <contour>
      <point x="412" y="0" type="line" identifier="nUSuFFUaOX"/>
      <point x="433" y="0" type="line" identifier="59ddPGXiJU"/>
      <point x="556" y="740" type="line" identifier="0CQHfwmVxw"/>
      <point x="535" y="740" type="line" identifier="fnyJ64g8Ns"/>
      <point x="483" y="423" type="line" identifier="NLgefujX9l"/>
      <point x="480" y="423" type="line" identifier="LFlGqHJCBD"/>
      <point x="460" y="484" identifier="WViefm8wTJ"/>
      <point x="404" y="528" identifier="UcSOo0Mc2j"/>
      <point x="313" y="528" type="curve" smooth="yes" identifier="UhaTRCpfPu"/>
      <point x="167" y="528" identifier="wgBPc8TRie"/>
      <point x="71" y="384" identifier="ALhKERSKsQ"/>
      <point x="71" y="186" type="curve" smooth="yes" identifier="dkQx7ZZyOT"/>
      <point x="71" y="72" identifier="YrHHrDLv1b"/>
      <point x="130" y="-12" identifier="3fLWHgRcCe"/>
      <point x="244" y="-12" type="curve" smooth="yes" identifier="cf4HuySGhc"/>
      <point x="335" y="-12" identifier="Ph2NIeoKhg"/>
      <point x="389" y="40" identifier="LpWb4jwly2"/>
      <point x="428" y="115" type="curve" identifier="HY6sueQT72"/>
      <point x="431" y="115" type="line" identifier="TEwFRqWrqr"/>
    </contour>
    <contour>
      <point x="244" y="7" type="curve" smooth="yes" identifier="uBvCeLQa86"/>
      <point x="135" y="7" identifier="bDtMKJKPKP"/>
      <point x="91" y="89" identifier="REy4t97fGn"/>
      <point x="91" y="186" type="curve" smooth="yes" identifier="ZHlW3514h7"/>
      <point x="91" y="203" identifier="vbo4Bvkpow"/>
      <point x="92" y="220" identifier="eNOjcn3i9l"/>
      <point x="95" y="237" type="curve" smooth="yes" identifier="h98cv9LerH"/>
      <point x="103" y="286" type="line" smooth="yes" identifier="5zhu0IIiiv"/>
      <point x="124" y="412" identifier="pQo9oveehb"/>
      <point x="199" y="509" identifier="DiHBURUoSS"/>
      <point x="313" y="509" type="curve" smooth="yes" identifier="16rSmkSian"/>
      <point x="441" y="509" identifier="RflwL6hok5"/>
      <point x="482" y="424" identifier="vg9eXiNzUS"/>
      <point x="471" y="355" type="curve" smooth="yes" identifier="oJJvipnsAo"/>
      <point x="446" y="204" type="line" smooth="yes" identifier="EaaLuV1mMf"/>
      <point x="435" y="138" identifier="ntygamEjGu"/>
      <point x="397" y="83" identifier="HID9peouO9"/>
      <point x="358" y="48" type="curve" smooth="yes" identifier="wzmHnZd9nC"/>
      <point x="325" y="19" identifier="NkI9wQqBB7"/>
      <point x="288" y="7" identifier="OYzloxtKZY"/>
    </contour>
  </outline>
</glyph>
<glyph name="e" format="2">
  <advance width="600"/>
  <unicode hex="0065"/>
  <anchor x="271.0" y="0.0" name="bottom"/>
  <anchor x="346.0" y="0.0" name="bottomright"/>
  <anchor x="341.0" y="516.0" name="top"/>
  <outline>
    <contour>
      <point x="273" y="-12" type="curve" smooth="yes" identifier="vX51Hu3vmb"/>
      <point x="365" y="-12" identifier="O9jiZR5QkK"/>
      <point x="433" y="36" identifier="PeCs2ZtsBP"/>
      <point x="488" y="141" type="curve" identifier="sZqfnuipmF"/>
      <point x="470" y="150" type="line" identifier="E4yKBmszpt"/>
      <point x="426" y="61" identifier="REs3BT6Re2"/>
      <point x="362" y="7" identifier="smqCDeW53m"/>
      <point x="273" y="7" type="curve" smooth="yes" identifier="mT0KGmUIZ9"/>
      <point x="149" y="7" identifier="h8gTQQlCpG"/>
      <point x="103" y="95" identifier="TDOGjlfXbK"/>
      <point x="103" y="205" type="curve" smooth="yes" identifier="neEgf4rWFh"/>
      <point x="103" y="206" identifier="aEjBCSCGrR"/>
      <point x="103" y="220" identifier="0ZZEPZVGGO"/>
      <point x="104" y="231" type="curve" identifier="tc9krqNmof"/>
      <point x="461" y="238" identifier="gELo3LHK8y"/>
      <point x="505" y="338" identifier="nu9iR0TCuM"/>
      <point x="505" y="405" type="curve" smooth="yes" identifier="QQ9CBr15Rl"/>
      <point x="505" y="481" identifier="z062wVB8pj"/>
      <point x="444" y="528" identifier="s9FKNRzUjG"/>
      <point x="343" y="528" type="curve" smooth="yes" identifier="JsMUOqjyA6"/>
      <point x="189" y="528" identifier="QmLcdqfqoV"/>
      <point x="83" y="382" identifier="vx3bPRxisu"/>
      <point x="83" y="212" type="curve" smooth="yes" identifier="EL8mapvTCT"/>
      <point x="83" y="66" identifier="B9zu6VUlHh"/>
      <point x="149" y="-12" identifier="teX9gne8iY"/>
    </contour>
    <contour>
      <point x="341" y="509" type="curve" smooth="yes" identifier="ff91yQMMlW"/>
      <point x="443" y="509" identifier="7toA38sG2y"/>
      <point x="483" y="464" identifier="0Tz884iXDp"/>
      <point x="483" y="405" type="curve" smooth="yes" identifier="oSRHwdZeTs"/>
      <point x="483" y="332" identifier="wqpN1zeRJb"/>
      <point x="422" y="255" identifier="HewXrn04uy"/>
      <point x="106" y="250" type="curve" identifier="TW5GUpBleK"/>
      <point x="111" y="281" type="line" smooth="yes" identifier="lWUDclZOc2"/>
      <point x="134" y="425" identifier="aH3Cbu2dHm"/>
      <point x="233" y="509" identifier="WxkuWWWD7V"/>
    </contour>
  </outline>
</glyph>
<glyph name="f" format="2">
  <advance width="600"/>
  <unicode hex="0066"/>
  <outline>
    <contour>
      <point x="209" y="-212" type="curve" smooth="yes" identifier="htqaLquNaH"/>
      <point x="225" y="-212" identifier="7TSLoxfRpF"/>
      <point x="231" y="-201" identifier="lLwOdgQT2G"/>
      <point x="235" y="-178" type="curve" smooth="yes" identifier="6yrJXHAXpw"/>
      <point x="348" y="497" type="line" identifier="0plyTSOOsA"/>
      <point x="573" y="497" type="line" identifier="MC5QHEybq7"/>
      <point x="576" y="516" type="line" identifier="vLePKm8rnB"/>
      <point x="351" y="516" type="line" identifier="IhVMvvdMMv"/>
      <point x="385" y="721" type="line" identifier="xb3OxypRuA"/>
      <point x="610" y="721" type="line" identifier="UtAfC6E9Ug"/>
      <point x="613" y="740" type="line" identifier="3yj7VzBpci"/>
      <point x="394" y="740" type="line" smooth="yes" identifier="cOkq4IFTSs"/>
      <point x="374" y="740" identifier="M9Er1a9MV4"/>
      <point x="365" y="732" identifier="7nu86olQGe"/>
      <point x="362" y="711" type="curve" smooth="yes" identifier="mQSHB7DYc7"/>
      <point x="330" y="516" type="line" identifier="lCMfKzGfKT"/>
      <point x="137" y="516" type="line" identifier="zn7NbhCas6"/>
      <point x="134" y="497" type="line" identifier="iFWm3ACn4D"/>
      <point x="327" y="497" type="line" identifier="GpSno6OOxA"/>
      <point x="212" y="-191" type="line" identifier="3J0Mk39cdF"/>
      <point x="206" y="-193" type="line" identifier="IWewLAgbWi"/>
      <point x="4" y="-12" type="line" identifier="XNiNXrPEkh"/>
      <point x="-10" y="-26" type="line" identifier="KVVoGL8oHT"/>
      <point x="178" y="-195" type="line" smooth="yes" identifier="Qi2fPWp5lg"/>
      <point x="191" y="-206" identifier="QIcmlhUKNb"/>
      <point x="199" y="-212" identifier="vtfBMp9o19"/>
    </contour>
  </outline>
</glyph>
<glyph name="g" format="2">
  <advance width="600"/>
  <unicode hex="0067"/>
  <anchor x="321.0" y="516.0" name="top"/>
  <outline>
    <contour>
      <point x="207" y="-212" type="curve" smooth="yes" identifier="gyjPpjfPiK"/>
      <point x="330" y="-212" identifier="uoLG92K3rF"/>
      <point x="408" y="-150" identifier="dhIjVxJiX7"/>
      <point x="430" y="-18" type="curve" smooth="yes" identifier="9XB1zUiec7"/>
      <point x="519" y="516" type="line" identifier="2L5EUUdqxW"/>
      <point x="498" y="516" type="line" identifier="ResS1HCI1W"/>
      <point x="483" y="423" type="line" identifier="PL1lc4F7yH"/>
      <point x="480" y="423" type="line" identifier="pIZIqFoCpN"/>
      <point x="460" y="484" identifier="JhXXn3NYT0"/>
      <point x="404" y="528" identifier="NLbMZzKgSU"/>
      <point x="313" y="528" type="curve" smooth="yes" identifier="XZAVwFoO0H"/>
      <point x="167" y="528" identifier="pW4zZe6l9B"/>
      <point x="71" y="384" identifier="B8xFH0f0Lw"/>
      <point x="71" y="186" type="curve" smooth="yes" identifier="vgeTG4nXU9"/>
      <point x="71" y="72" identifier="2NgAohQOHO"/>
      <point x="130" y="-12" identifier="i8A3oodtTk"/>
      <point x="244" y="-12" type="curve" smooth="yes" identifier="6i8cDqcD3C"/>
      <point x="335" y="-12" identifier="ct4r6O2KEx"/>
      <point x="389" y="40" identifier="VKClY4NSOK"/>
      <point x="428" y="115" type="curve" identifier="27U71DIFAV"/>
      <point x="431" y="115" type="line" identifier="wZZRI1itCJ"/>
      <point x="410" y="-13" type="line" smooth="yes" identifier="J0vmjxXFei"/>
      <point x="389" y="-140" identifier="adHNmSpf8H"/>
      <point x="317" y="-193" identifier="SEPTjECcOz"/>
      <point x="207" y="-193" type="curve" smooth="yes" identifier="9wrHiA527S"/>
      <point x="137" y="-193" identifier="6h4GVGxjRa"/>
      <point x="94" y="-169" identifier="B98B700DNM"/>
      <point x="65" y="-131" type="curve" identifier="fU3E68ctj3"/>
      <point x="49" y="-145" type="line" identifier="g2lzKOYG6A"/>
      <point x="82" y="-186" identifier="KA0kv2yvwg"/>
      <point x="132" y="-212" identifier="xlczqrSygV"/>
    </contour>
    <contour>
      <point x="244" y="7" type="curve" smooth="yes" identifier="ERSOPkbjuk"/>
      <point x="135" y="7" identifier="TitBfSE3xU"/>
      <point x="91" y="89" identifier="OZwoOkre2d"/>
      <point x="91" y="186" type="curve" smooth="yes" identifier="IXKkZzsJiO"/>
      <point x="91" y="203" identifier="LUHjQ89UZL"/>
      <point x="92" y="220" identifier="fWhfrJHckj"/>
      <point x="95" y="237" type="curve" smooth="yes" identifier="fbF7Ku5IrK"/>
      <point x="103" y="286" type="line" smooth="yes" identifier="6GgMQukzfe"/>
      <point x="124" y="412" identifier="TjFxuyoUEv"/>
      <point x="199" y="509" identifier="VZYUWgER5m"/>
      <point x="313" y="509" type="curve" smooth="yes" identifier="VvQVdikFAb"/>
      <point x="441" y="509" identifier="A2S2zm52XU"/>
      <point x="482" y="424" identifier="xpLWJvSS7j"/>
      <point x="471" y="355" type="curve" smooth="yes" identifier="HDyynFMdoD"/>
      <point x="446" y="204" type="line" smooth="yes" identifier="zEvy4Wyo2b"/>
      <point x="435" y="138" identifier="eQaBk4oHA6"/>
      <point x="397" y="83" identifier="UeOkDXhMqa"/>
      <point x="358" y="48" type="curve" smooth="yes" identifier="w6sEncgyjY"/>
      <point x="325" y="19" identifier="vQt56bj6fD"/>
      <point x="288" y="7" identifier="MbYnKwP5RA"/>
    </contour>
  </outline>
</glyph>
<glyph name="h" format="2">
  <advance width="600"/>
  <unicode hex="0068"/>
  <anchor x="262.0" y="0.0" name="bottom"/>
  <anchor x="215.0" y="698.0" name="top"/>
  <outline>
    <contour>
      <point x="88" y="0" type="line" identifier="49fEWXVo72"/>
      <point x="109" y="0" type="line" identifier="u8HXgjKA0x"/>
      <point x="161" y="312" type="line" smooth="yes" identifier="CMmWIJLUMD"/>
      <point x="171" y="370" identifier="HQ8nmidgdT"/>
      <point x="202" y="418" identifier="MuQoHw74tZ"/>
      <point x="223" y="444" type="curve" smooth="yes" identifier="tNBIT532r8"/>
      <point x="261" y="492" identifier="J98XrGKgZ3"/>
      <point x="310" y="509" identifier="CnbmHQtkwD"/>
      <point x="357" y="509" type="curve" smooth="yes" identifier="2KJP13sNXF"/>
      <point x="435" y="509" identifier="nrEovxP3oI"/>
      <point x="477" y="468" identifier="7bl8AmARMl"/>
      <point x="477" y="386" type="curve" smooth="yes" identifier="CZHzxlL4Jg"/>
      <point x="477" y="367" identifier="XMDxNvcDbT"/>
      <point x="475" y="346" identifier="nE1DEPDLlN"/>
      <point x="472" y="329" type="curve" smooth="yes" identifier="LFlIOv1Js5"/>
      <point x="417" y="0" type="line" identifier="msuaB5FWas"/>
      <point x="438" y="0" type="line" identifier="FW9Wt7ZRPl"/>
      <point x="493" y="330" type="line" smooth="yes" identifier="NLoI46NThb"/>
      <point x="496" y="349" identifier="F7LsnFQpgA"/>
      <point x="498" y="368" identifier="ANN0WvfTln"/>
      <point x="498" y="387" type="curve" smooth="yes" identifier="IzScbGJEJk"/>
      <point x="498" y="476" identifier="AISyLZOeSH"/>
      <point x="449" y="528" identifier="7rdYIeM49c"/>
      <point x="360" y="528" type="curve" smooth="yes" identifier="OuZagbcekk"/>
      <point x="272" y="528" identifier="IOjr27KFmu"/>
      <point x="218" y="480" identifier="GOwf9Qwjj9"/>
      <point x="179" y="402" type="curve" identifier="WWimrvmO5j"/>
      <point x="176" y="402" type="line" identifier="TlVgS4lnmw"/>
      <point x="232" y="740" type="line" identifier="iDQlGWB7hd"/>
      <point x="211" y="740" type="line" identifier="VEUHdy6jS6"/>
    </contour>
  </outline>
</glyph>
<glyph name="i" format="2">
  <advance width="600"/>
  <unicode hex="0069"/>
  <anchor x="222.0" y="0.0" name="bottom"/>
  <anchor x="250.0" y="0.0" name="bottomright"/>
  <outline>
    <contour>
      <point x="350" y="691" type="curve" smooth="yes" identifier="57ilUkV6E6"/>
      <point x="368" y="691" identifier="YPzX2s4i2I"/>
      <point x="377" y="699" identifier="dP3X924RJi"/>
      <point x="380" y="713" type="curve" smooth="yes" identifier="HesbhdL66S"/>
      <point x="381" y="719" identifier="2O243HclFk"/>
      <point x="382" y="723" identifier="lG1asnFHYJ"/>
      <point x="382" y="727" type="curve" smooth="yes" identifier="PjlAdAmFJs"/>
      <point x="382" y="736" identifier="8yBuBhtPXZ"/>
      <point x="376" y="745" identifier="ZCgKYKRPl3"/>
      <point x="356" y="745" type="curve" smooth="yes" identifier="GNAJkNRmkT"/>
      <point x="338" y="745" identifier="8io06rXPAU"/>
      <point x="329" y="737" identifier="zhLGVc0qRi"/>
      <point x="326" y="723" type="curve" smooth="yes" identifier="nVzcPL4FPX"/>
      <point x="325" y="717" identifier="hH1xUufkCu"/>
      <point x="324" y="713" identifier="Mr5dLJAH1W"/>
      <point x="324" y="709" type="curve" smooth="yes" identifier="25oBEIU8r5"/>
      <point x="324" y="700" identifier="6mtUIJdHJ2"/>
      <point x="330" y="691" identifier="AzCrFwLWmm"/>
    </contour>
    <contour>
      <point x="223" y="-12" type="curve" smooth="yes" identifier="E3yv4ihm21"/>
      <point x="235" y="-12" identifier="yTm1AHRehz"/>
      <point x="247" y="-2" identifier="cpwbMOFW4t"/>
      <point x="264" y="9" type="curve" smooth="yes" identifier="FvfcVjRKdh"/>
      <point x="507" y="174" type="line" identifier="EB9s6hgt4v"/>
      <point x="496" y="189" type="line" identifier="13cDSWXZYB"/>
      <point x="231" y="10" type="line" identifier="oIADL6GtbH"/>
      <point x="226" y="13" type="line" identifier="vv3qcZUszt"/>
      <point x="324" y="516" type="line" identifier="JLNCHZlVFJ"/>
      <point x="94" y="516" type="line" identifier="aEB88X6mMT"/>
      <point x="91" y="497" type="line" identifier="ebnjdY2xvL"/>
      <point x="299" y="497" type="line" identifier="BAS4ex9Ah3"/>
      <point x="211" y="42" type="line" smooth="yes" identifier="s2ZrUWla1P"/>
      <point x="206" y="17" identifier="shMH6OeZ55"/>
      <point x="205" y="11" identifier="EPcJ7oV3Xu"/>
      <point x="205" y="7" type="curve" smooth="yes" identifier="afcpI9Uj2R"/>
      <point x="205" y="-4" identifier="Ir8bVQKn20"/>
      <point x="211" y="-12" identifier="BG5n7CKbQR"/>
    </contour>
  </outline>
</glyph>
<glyph name="j" format="2">
  <advance width="600"/>
  <unicode hex="006A"/>
  <outline>
    <contour>
      <point x="329" y="-212" type="curve" smooth="yes" identifier="594PxJln22"/>
      <point x="345" y="-212" identifier="qDMTfZj9Ra"/>
      <point x="351" y="-201" identifier="fLZfVgt8sb"/>
      <point x="355" y="-178" type="curve" smooth="yes" identifier="lXJWvQ0uRb"/>
      <point x="470" y="516" type="line" identifier="mkrIC9Hzln"/>
      <point x="139" y="516" type="line" identifier="jvlp4JYzj3"/>
      <point x="136" y="497" type="line" identifier="RuFxfRVURv"/>
      <point x="446" y="497" type="line" identifier="OYDHVrTmwa"/>
      <point x="332" y="-190" type="line" identifier="bmxfpCAy28"/>
      <point x="326" y="-192" type="line" identifier="O7TuVWj9eS"/>
      <point x="124" y="-12" type="line" identifier="I1pR6tqJN9"/>
      <point x="110" y="-26" type="line" identifier="g0q3JQJbqH"/>
      <point x="298" y="-195" type="line" smooth="yes" identifier="HwstT1hMlK"/>
      <point x="311" y="-206" identifier="YMeVBvkCZ9"/>
      <point x="319" y="-212" identifier="4rlaaFzCaZ"/>
    </contour>
    <contour>
      <point x="487" y="691" type="curve" smooth="yes" identifier="CdZVTO9mtc"/>
      <point x="505" y="691" identifier="PtmPR9KxTM"/>
      <point x="514" y="699" identifier="JVJQnfPVsy"/>
      <point x="517" y="713" type="curve" smooth="yes" identifier="5EEMv1CF0l"/>
      <point x="518" y="719" identifier="Eb1OJt64vR"/>
      <point x="519" y="723" identifier="e3cFZTqzc4"/>
      <point x="519" y="727" type="curve" smooth="yes" identifier="dahNOk56Hv"/>
      <point x="519" y="736" identifier="3QyHbixaoQ"/>
      <point x="513" y="745" identifier="35AU4kto6N"/>
      <point x="493" y="745" type="curve" smooth="yes" identifier="JWmIx3Fehk"/>
      <point x="475" y="745" identifier="t9vRxEbLnD"/>
      <point x="466" y="737" identifier="JmFwfctawF"/>
      <point x="463" y="723" type="curve" smooth="yes" identifier="TF6wavdSZa"/>
      <point x="462" y="717" identifier="GLhfusTMhq"/>
      <point x="461" y="713" identifier="nwx36T1MI2"/>
      <point x="461" y="709" type="curve" smooth="yes" identifier="cggULWzuE3"/>
      <point x="461" y="700" identifier="NvvojkGVDt"/>
      <point x="467" y="691" identifier="0TaaD1R8hq"/>
    </contour>
  </outline>
</glyph>
<glyph name="k" format="2">
  <advance width="600"/>
  <unicode hex="006B"/>
  <anchor x="233.0" y="0.0" name="bottom"/>
  <outline>
    <contour>
      <point x="79" y="0" type="line" identifier="pr4X0SZ2oO"/>
      <point x="100" y="0" type="line" identifier="eYlt00BCIH"/>
      <point x="152" y="312" type="line" smooth="yes" identifier="zxVYiUpBfx"/>
      <point x="162" y="369" identifier="vDF2AbeIEq"/>
      <point x="191" y="425" identifier="vnoen8iobc"/>
      <point x="237" y="464" type="curve" smooth="yes" identifier="q98Xyi5N5G"/>
      <point x="273" y="495" identifier="7DqoV1zWKh"/>
      <point x="319" y="509" identifier="t7xjqMwNCI"/>
      <point x="368" y="509" type="curve" smooth="yes" identifier="BuyNla1qfN"/>
      <point x="452" y="509" identifier="rbUuZlHTFq"/>
      <point x="484" y="469" identifier="S8QB5bZRdL"/>
      <point x="484" y="411" type="curve" smooth="yes" identifier="T5hO3PnbfV"/>
      <point x="484" y="340" identifier="LLHuj5GLlS"/>
      <point x="429" y="277" identifier="kcr6uIK5bz"/>
      <point x="231" y="231" type="curve" identifier="50XJqCKZDz"/>
      <point x="355" y="13" type="line" smooth="yes" identifier="DcOJZSDgC4"/>
      <point x="365" y="-4" identifier="usa2AA1iyw"/>
      <point x="370" y="-12" identifier="SmQXqRYHh3"/>
      <point x="382" y="-12" type="curve" smooth="yes" identifier="RCWVJFonkC"/>
      <point x="395" y="-12" identifier="TLCKRZADYo"/>
      <point x="403" y="-3" identifier="7AbGWtVgJJ"/>
      <point x="434" y="26" type="curve" smooth="yes" identifier="zHotXEoQsB"/>
      <point x="574" y="158" type="line" identifier="6MH9SoSNPJ"/>
      <point x="562" y="171" type="line" identifier="Jrn09ZTkMJ"/>
      <point x="386" y="9" type="line" identifier="5wtzUJkEFQ"/>
      <point x="381" y="9" type="line" identifier="FOH9nSZY4K"/>
      <point x="259" y="222" type="line" identifier="M6W88nmEYy"/>
      <point x="460" y="268" identifier="lwpvgyoTTE"/>
      <point x="506" y="344" identifier="XQYag0Y07P"/>
      <point x="506" y="411" type="curve" smooth="yes" identifier="bQvLf5C7vT"/>
      <point x="506" y="478" identifier="XB2iMbQtkh"/>
      <point x="464" y="528" identifier="kRLdNhZBPt"/>
      <point x="369" y="528" type="curve" smooth="yes" identifier="xtAEOCa6lQ"/>
      <point x="291" y="528" identifier="swByxvjpGx"/>
      <point x="218" y="494" identifier="VyncNyZECn"/>
      <point x="170" y="402" type="curve" identifier="GUMQ5nYb64"/>
      <point x="167" y="402" type="line" identifier="fRPZx0JuGA"/>
      <point x="223" y="740" type="line" identifier="HMowDexkIf"/>
      <point x="202" y="740" type="line" identifier="ZexKYCzHEj"/>
    </contour>
  </outline>
</glyph>
<glyph name="l" format="2">
  <advance width="600"/>
  <unicode hex="006C"/>
  <anchor x="216.0" y="0.0" name="bottom"/>
  <anchor x="339.0" y="698.0" name="top"/>
  <anchor x="462.0" y="740.0" name="topright"/>
  <outline>
    <contour>
      <point x="214" y="-12" type="curve" smooth="yes" identifier="zgOr06NKfA"/>
      <point x="226" y="-12" identifier="Q7JCJGmbAR"/>
      <point x="238" y="-3" identifier="uGCrWeYKuf"/>
      <point x="255" y="9" type="curve" smooth="yes" identifier="XD4c8x7faU"/>
      <point x="498" y="174" type="line" identifier="yt4d45k7Tq"/>
      <point x="487" y="189" type="line" identifier="XSVeBuoGCb"/>
      <point x="222" y="10" type="line" identifier="8nnFe1tsOC"/>
      <point x="217" y="13" type="line" identifier="46yMWgPSqi"/>
      <point x="358" y="740" type="line" identifier="e8NHgM6jJK"/>
      <point x="128" y="740" type="line" identifier="1tmjY5UZ2W"/>
      <point x="125" y="721" type="line" identifier="ERAJBv5ATe"/>
      <point x="333" y="721" type="line" identifier="IE0D7VSOMT"/>
      <point x="201" y="42" type="line" smooth="yes" identifier="buZyjvnH0p"/>
      <point x="197" y="21" identifier="FgRS5iWAxC"/>
      <point x="196" y="11" identifier="rxGTyDwE9l"/>
      <point x="196" y="7" type="curve" smooth="yes" identifier="UNBlsU4i2j"/>
      <point x="196" y="-4" identifier="ksQyk4x0SS"/>
      <point x="202" y="-12" identifier="7x067p3Dxz"/>
    </contour>
  </outline>
</glyph>
<glyph name="m" format="2">
  <advance width="600"/>
  <unicode hex="006D"/>
  <anchor x="269.0" y="0.0" name="bottom"/>
  <anchor x="359.0" y="516.0" name="top"/>
  <outline>
    <contour>
      <point x="63" y="0" type="line" identifier="EFFDp2cXcN"/>
      <point x="123" y="360" type="line" smooth="yes" identifier="z1OKaFP4kS"/>
      <point x="131" y="406" identifier="YQaWRht3xD"/>
      <point x="154" y="441" identifier="dxrhh2wT53"/>
      <point x="174" y="466" type="curve" smooth="yes" identifier="4YL4J37B7y"/>
      <point x="195" y="492" identifier="7GqHFIGGe6"/>
      <point x="221" y="509" identifier="J5U9AMhkfP"/>
      <point x="259" y="509" type="curve" smooth="yes" identifier="8N3D5GiNEJ"/>
      <point x="303" y="509" identifier="4mivy5v68l"/>
      <point x="329" y="485" identifier="thIsUHuaDH"/>
      <point x="329" y="438" type="curve" smooth="yes" identifier="xeTRbRv3VG"/>
      <point x="329" y="423" identifier="nbudGSgGZ0"/>
      <point x="326" y="404" identifier="PQXn0PaIkD"/>
      <point x="323" y="384" type="curve" smooth="yes" identifier="OUANkqGdV6"/>
      <point x="259" y="0" type="line" identifier="7vWYpLKtSI"/>
      <point x="280" y="0" type="line" identifier="DyXvEJ4tOp"/>
      <point x="341" y="366" type="line" smooth="yes" identifier="tE0XKqs9Go"/>
      <point x="348" y="406" identifier="8TPQYE4hJN"/>
      <point x="367" y="441" identifier="TjmwoHM2MV"/>
      <point x="387" y="464" type="curve" smooth="yes" identifier="cAdHXClUII"/>
      <point x="415" y="496" identifier="4EyTtZM7iv"/>
      <point x="441" y="509" identifier="FmqAi4JnL5"/>
      <point x="474" y="509" type="curve" smooth="yes" identifier="gQzPRA5Duz"/>
      <point x="521" y="509" identifier="QkyCMNKNeo"/>
      <point x="545" y="478" identifier="yfChLfhzuT"/>
      <point x="545" y="431" type="curve" smooth="yes" identifier="qGvPFsAfEX"/>
      <point x="545" y="418" identifier="HQk2GzD8Jp"/>
      <point x="543" y="401" identifier="QlNuNpGb7J"/>
      <point x="540" y="384" type="curve" smooth="yes" identifier="6UzxkUMtLl"/>
      <point x="476" y="0" type="line" identifier="eD0kksuyTQ"/>
      <point x="497" y="0" type="line" identifier="Xy3iZYzmHB"/>
      <point x="562" y="390" type="line" smooth="yes" identifier="fFnfTOFq6W"/>
      <point x="564" y="404" identifier="eBRmDoKMK8"/>
      <point x="566" y="419" identifier="nrGUI7iu9H"/>
      <point x="566" y="431" type="curve" smooth="yes" identifier="VK0ZyEIGcO"/>
      <point x="566" y="487" identifier="MbU2MEmXBz"/>
      <point x="533" y="528" identifier="Ynt7dBQ30a"/>
      <point x="477" y="528" type="curve" smooth="yes" identifier="qoah2VG8Ae"/>
      <point x="418" y="528" identifier="yRPKhgx9XX"/>
      <point x="374" y="484" identifier="BwlpKiWRR6"/>
      <point x="350" y="433" type="curve" identifier="ZbmMFsGTko"/>
      <point x="347" y="433" type="line" identifier="lPoO2wrxGB"/>
      <point x="351" y="493" identifier="Yl2qtXr80L"/>
      <point x="319" y="528" identifier="1Oert8kIKl"/>
      <point x="262" y="528" type="curve" smooth="yes" identifier="PKq00IG4TF"/>
      <point x="200" y="528" identifier="OytH2dXu5I"/>
      <point x="161" y="481" identifier="Vnkzh5F3Km"/>
      <point x="139" y="438" type="curve" identifier="rw4T9Nox8V"/>
      <point x="136" y="438" type="line" identifier="pgKFnSMLcF"/>
      <point x="149" y="516" type="line" identifier="kGfqSO4u29"/>
      <point x="128" y="516" type="line" identifier="kb94ObeEDU"/>
      <point x="42" y="0" type="line" identifier="qugB7b4p0b"/>
    </contour>
  </outline>
</glyph>
<glyph name="n" format="2">
  <advance width="600"/>
  <unicode hex="006E"/>
  <anchor x="262.0" y="0.0" name="bottom"/>
  <anchor x="349.0" y="516.0" name="top"/>
  <outline>
    <contour>
      <point x="109" y="0" type="line" identifier="jhm67PndZI"/>
      <point x="161" y="312" type="line" smooth="yes" identifier="h0s0zHwvc1"/>
      <point x="171" y="370" identifier="DKRMWZgI4N"/>
      <point x="202" y="418" identifier="eFBmEUEzzX"/>
      <point x="223" y="444" type="curve" smooth="yes" identifier="bE4CjpRrVQ"/>
      <point x="261" y="492" identifier="yTL6pdmaPZ"/>
      <point x="310" y="509" identifier="M2zaM69xgj"/>
      <point x="357" y="509" type="curve" smooth="yes" identifier="QHZVDbZEVk"/>
      <point x="435" y="509" identifier="S95fdW0Xca"/>
      <point x="477" y="468" identifier="ZPqRfeIeU3"/>
      <point x="477" y="386" type="curve" smooth="yes" identifier="knVbD5c4Io"/>
      <point x="477" y="367" identifier="sYmf0A0Od0"/>
      <point x="475" y="346" identifier="9OM3pQ8Fju"/>
      <point x="472" y="329" type="curve" smooth="yes" identifier="jmpSqvqC2i"/>
      <point x="417" y="0" type="line" identifier="D24DHWDJTf"/>
      <point x="438" y="0" type="line" identifier="772dVuoMi9"/>
      <point x="493" y="330" type="line" smooth="yes" identifier="rOBm3tzIYU"/>
      <point x="496" y="349" identifier="G0svX7VicF"/>
      <point x="498" y="368" identifier="wW1mZapAyf"/>
      <point x="498" y="387" type="curve" smooth="yes" identifier="NqxqdaaM1F"/>
      <point x="498" y="476" identifier="QSjB5yVxTM"/>
      <point x="449" y="528" identifier="14iprI3Fur"/>
      <point x="360" y="528" type="curve" smooth="yes" identifier="ydrICCojtJ"/>
      <point x="272" y="528" identifier="MIVPyLL6ll"/>
      <point x="218" y="480" identifier="mkNxvi2hnt"/>
      <point x="179" y="402" type="curve" identifier="nC0y7zu4vH"/>
      <point x="176" y="402" type="line" identifier="8IuesKmbsA"/>
      <point x="195" y="516" type="line" identifier="mIJ9NpqxSK"/>
      <point x="174" y="516" type="line" identifier="nnWffWEdcf"/>
      <point x="88" y="0" type="line" identifier="AtttHx8xYI"/>
    </contour>
  </outline>
</glyph>
<glyph name="o" format="2">
  <advance width="600"/>
  <unicode hex="006F"/>
  <anchor x="266.0" y="0.0" name="bottom"/>
  <anchor x="333.0" y="516.0" name="top"/>
  <outline>
    <contour>
      <point x="266" y="-12" type="curve" smooth="yes" identifier="v4tmsZTdp1"/>
      <point x="420" y="-12" identifier="NVYGEasYPP"/>
      <point x="518" y="118" identifier="swPNEBCGrJ"/>
      <point x="518" y="335" type="curve" smooth="yes" identifier="uAg2UlmMSh"/>
      <point x="518" y="445" identifier="SpA2no4L0X"/>
      <point x="453" y="528" identifier="0WTphleU2N"/>
      <point x="334" y="528" type="curve" smooth="yes" identifier="oVY3QWMi7N"/>
      <point x="180" y="528" identifier="rZZuspYsQn"/>
      <point x="82" y="398" identifier="V6Y7J0MZdc"/>
      <point x="82" y="181" type="curve" smooth="yes" identifier="DdNbF2CO5O"/>
      <point x="82" y="71" identifier="qDzkjsoSci"/>
      <point x="147" y="-12" identifier="c7nGZdQksM"/>
    </contour>
    <contour>
      <point x="268" y="7" type="curve" smooth="yes" identifier="bk3RPInm2h"/>
      <point x="151" y="7" identifier="dmoCh9hFZ9"/>
      <point x="102" y="86" identifier="HvVtKx9YJx"/>
      <point x="102" y="183" type="curve" smooth="yes" identifier="YDy1XgTGhI"/>
      <point x="102" y="208" identifier="el96tKlUf5"/>
      <point x="103" y="218" identifier="dByTHHCI1h"/>
      <point x="106" y="237" type="curve" smooth="yes" identifier="Mt55imBW4l"/>
      <point x="114" y="286" type="line" smooth="yes" identifier="6O2KEfgySz"/>
      <point x="137" y="425" identifier="CmjTaR1MJ8"/>
      <point x="213" y="509" identifier="ll722jeUE9"/>
      <point x="332" y="509" type="curve" smooth="yes" identifier="bb8eE6pKdN"/>
      <point x="449" y="509" identifier="rzRzba1N2f"/>
      <point x="498" y="430" identifier="mm0m8mRBdH"/>
      <point x="498" y="333" type="curve" smooth="yes" identifier="XrWx9xDz6O"/>
      <point x="498" y="308" identifier="MvlY4HEkra"/>
      <point x="497" y="298" identifier="r7UsHDvsWJ"/>
      <point x="494" y="279" type="curve" smooth="yes" identifier="ISN9FRzU3k"/>
      <point x="486" y="230" type="line" smooth="yes" identifier="sTSgqxvsAx"/>
      <point x="463" y="91" identifier="xT5P1bi05t"/>
      <point x="387" y="7" identifier="BDOybT2MXS"/>
    </contour>
  </outline>
</glyph>
<glyph name="p" format="2">
  <advance width="600"/>
  <unicode hex="0070"/>
  <anchor x="355.0" y="516.0" name="top"/>
  <outline>
    <contour>
      <point x="47" y="-200" type="line" identifier="L0dVGAUITH"/>
      <point x="68" y="-200" type="line" identifier="F4KiLH9x7b"/>
      <point x="116" y="93" type="line" identifier="jAgt6EQdcr"/>
      <point x="119" y="93" type="line" identifier="Z89Bw8V0Nc"/>
      <point x="139" y="32" identifier="hRUsHZ1v9J"/>
      <point x="195" y="-12" identifier="TLLVU1Bkbv"/>
      <point x="286" y="-12" type="curve" smooth="yes" identifier="Sp2Y2aYX3f"/>
      <point x="432" y="-12" identifier="SqKE6t9TAI"/>
      <point x="528" y="132" identifier="nWNBnCMI1Y"/>
      <point x="528" y="330" type="curve" smooth="yes" identifier="mOMTkXZsKw"/>
      <point x="528" y="444" identifier="CYAc6Qnzu9"/>
      <point x="469" y="528" identifier="oW19uLk7AJ"/>
      <point x="355" y="528" type="curve" smooth="yes" identifier="Ak8NMvmNUV"/>
      <point x="264" y="528" identifier="kjlX3XOQtF"/>
      <point x="210" y="476" identifier="UmDAbZdP8O"/>
      <point x="171" y="401" type="curve" identifier="eJxlmo3YJj"/>
      <point x="168" y="401" type="line" identifier="4Atyt9yIwE"/>
      <point x="187" y="516" type="line" identifier="eeEnw1kzVP"/>
      <point x="166" y="516" type="line" identifier="Ws0F1OarFy"/>
    </contour>
    <contour>
      <point x="286" y="7" type="curve" smooth="yes" identifier="z65DFTwFN1"/>
      <point x="158" y="7" identifier="bqfyEjQKnY"/>
      <point x="117" y="92" identifier="RH400wApMQ"/>
      <point x="128" y="161" type="curve" smooth="yes" identifier="aB1sGx6cBt"/>
      <point x="153" y="312" type="line" smooth="yes" identifier="Sy9nwOzpaA"/>
      <point x="164" y="378" identifier="OOE8t7Yj7V"/>
      <point x="202" y="433" identifier="HjZOIxv7Yq"/>
      <point x="241" y="468" type="curve" smooth="yes" identifier="LeVugWqLD0"/>
      <point x="274" y="497" identifier="tw4wUIEj8T"/>
      <point x="311" y="509" identifier="IepCD0pni4"/>
      <point x="355" y="509" type="curve" smooth="yes" identifier="2Wtqqw55rH"/>
      <point x="464" y="509" identifier="s1uMUbLJZL"/>
      <point x="508" y="427" identifier="Ig1ShDFdhs"/>
      <point x="508" y="330" type="curve" smooth="yes" identifier="j9Sj1VNws1"/>
      <point x="508" y="313" identifier="YWW4WBwSnq"/>
      <point x="507" y="296" identifier="N22PgI4OwK"/>
      <point x="504" y="279" type="curve" smooth="yes" identifier="SEUs87wZyj"/>
      <point x="496" y="230" type="line" smooth="yes" identifier="ucmX7DCuTd"/>
      <point x="475" y="104" identifier="3wHXq3e00e"/>
      <point x="400" y="7" identifier="HCYJYZoAAw"/>
    </contour>
  </outline>
</glyph>
<glyph name="q" format="2">
  <advance width="600"/>
  <unicode hex="0071"/>
  <anchor x="313.0" y="516.0" name="top"/>
  <outline>
    <contour>
      <point x="379" y="-200" type="line" identifier="hESwFD7ppx"/>
      <point x="400" y="-200" type="line" identifier="soBihbxGb3"/>
      <point x="519" y="516" type="line" identifier="O026CcUayB"/>
      <point x="498" y="516" type="line" identifier="Jkxa72i5ET"/>
      <point x="483" y="423" type="line" identifier="WXGIgywAo4"/>
      <point x="480" y="423" type="line" identifier="SdgokenG7Q"/>
      <point x="460" y="484" identifier="KMCIaaabW3"/>
      <point x="404" y="528" identifier="RUprcX4cat"/>
      <point x="313" y="528" type="curve" smooth="yes" identifier="hfHsWneaLG"/>
      <point x="167" y="528" identifier="m9Jm4HvALJ"/>
      <point x="71" y="384" identifier="G76uO94nrC"/>
      <point x="71" y="186" type="curve" smooth="yes" identifier="wSCEvKE0rv"/>
      <point x="71" y="72" identifier="5bnle2pr6f"/>
      <point x="130" y="-12" identifier="EqwJjYSWGL"/>
      <point x="244" y="-12" type="curve" smooth="yes" identifier="TPJ674hOyM"/>
      <point x="335" y="-12" identifier="6NkHkUgZLg"/>
      <point x="389" y="40" identifier="9ThHaESdDt"/>
      <point x="428" y="115" type="curve" identifier="Pyh69B9xvy"/>
      <point x="431" y="115" type="line" identifier="jl0KGCUJ3i"/>
    </contour>
    <contour>
      <point x="244" y="7" type="curve" smooth="yes" identifier="jiOPs7iLJB"/>
      <point x="135" y="7" identifier="kzCTZ5UtwT"/>
      <point x="91" y="89" identifier="75lv29eg7a"/>
      <point x="91" y="186" type="curve" smooth="yes" identifier="s1Ho5Gza4a"/>
      <point x="91" y="203" identifier="Z07BJNQCwJ"/>
      <point x="92" y="220" identifier="SVs8okdnEk"/>
      <point x="95" y="237" type="curve" smooth="yes" identifier="r04KxuOBFO"/>
      <point x="103" y="286" type="line" smooth="yes" identifier="7Z1Y9tqSzV"/>
      <point x="124" y="412" identifier="xEhbTtAXIX"/>
      <point x="199" y="509" identifier="IfuiU6oigl"/>
      <point x="313" y="509" type="curve" smooth="yes" identifier="UlBpV2dcAo"/>
      <point x="441" y="509" identifier="KrvSQB9Twl"/>
      <point x="482" y="424" identifier="YsCwCyMye0"/>
      <point x="471" y="355" type="curve" smooth="yes" identifier="OWRHOrhT6W"/>
      <point x="446" y="204" type="line" smooth="yes" identifier="cYTnBjGAVD"/>
      <point x="435" y="138" identifier="3S8u50k8Zh"/>
      <point x="397" y="83" identifier="CAITwOT5pB"/>
      <point x="358" y="48" type="curve" smooth="yes" identifier="iccU47NVdO"/>
      <point x="325" y="19" identifier="uoH2CV2B3i"/>
      <point x="288" y="7" identifier="IbXS7yUfgI"/>
    </contour>
  </outline>
</glyph>
<glyph name="r" format="2">
  <advance width="600"/>
  <unicode hex="0072"/>
  <anchor x="225.0" y="0.0" name="bottom"/>
  <anchor x="365.0" y="516.0" name="top"/>
  <outline>
    <contour>
      <point x="236" y="0" type="line" identifier="xILrHwcp4g"/>
      <point x="296" y="359" type="line" smooth="yes" identifier="yGm30Nf0F3"/>
      <point x="304" y="408" identifier="vDIvpJueVg"/>
      <point x="331" y="443" identifier="tdN4Phbmaj"/>
      <point x="367" y="466" type="curve" smooth="yes" identifier="hcSf7BLghI"/>
      <point x="399" y="487" identifier="i7C3u5zdAG"/>
      <point x="438" y="497" identifier="OKsP48qbr5"/>
      <point x="477" y="497" type="curve" smooth="yes" identifier="BxLevApPeo"/>
      <point x="596" y="497" type="line" identifier="ebMCJhIE2k"/>
      <point x="599" y="516" type="line" identifier="dSSkiQJAGW"/>
      <point x="480" y="516" type="line" smooth="yes" identifier="7GUzKkvxTZ"/>
      <point x="388" y="516" identifier="A6xuMkjFMB"/>
      <point x="348" y="483" identifier="URXKdZ3YgH"/>
      <point x="310" y="429" type="curve" identifier="8b1yG4p4b7"/>
      <point x="307" y="429" type="line" identifier="d1rnIIAXJQ"/>
      <point x="322" y="516" type="line" identifier="tQ2F7Pxo2l"/>
      <point x="123" y="516" type="line" identifier="06HMQtkblX"/>
      <point x="120" y="497" type="line" identifier="36c8elzgjC"/>
      <point x="298" y="497" type="line" identifier="EOMbzSKwlf"/>
      <point x="215" y="0" type="line" identifier="l9zPf9EEeR"/>
    </contour>
  </outline>
</glyph>
<glyph name="s" format="2">
  <advance width="600"/>
  <unicode hex="0073"/>
  <anchor x="275.0" y="0.0" name="bottom"/>
  <anchor x="334.0" y="516.0" name="top"/>
  <outline>
    <contour>
      <point x="285" y="-12" type="curve" smooth="yes" identifier="1Z40ijTO3s"/>
      <point x="404" y="-12" identifier="o9CjtrVRMS"/>
      <point x="499" y="41" identifier="wu4IWnho4C"/>
      <point x="499" y="154" type="curve" smooth="yes" identifier="oNsWlkdZ0n"/>
      <point x="499" y="236" identifier="XTfjRZdmm6"/>
      <point x="440" y="266" identifier="GYldtYVsbs"/>
      <point x="358" y="273" type="curve" smooth="yes" identifier="6Z8kGrspdO"/>
      <point x="280" y="280" type="line" smooth="yes" identifier="k9IDSoD7LZ"/>
      <point x="200" y="287" identifier="NBdEkR6r10"/>
      <point x="156" y="312" identifier="60TyjIy7in"/>
      <point x="156" y="380" type="curve" smooth="yes" identifier="hZJ4mkncA0"/>
      <point x="156" y="468" identifier="Uw7ZCWlaSS"/>
      <point x="224" y="509" identifier="gWE6QIeGNZ"/>
      <point x="329" y="509" type="curve" smooth="yes" identifier="eXug3TJ2Yn"/>
      <point x="431" y="509" identifier="bN8LB13CzR"/>
      <point x="481" y="474" identifier="zewJvmH8dk"/>
      <point x="510" y="433" type="curve" identifier="76bGqKDMjr"/>
      <point x="526" y="447" type="line" identifier="IeJvHlHOD8"/>
      <point x="494" y="489" identifier="qBRZKY70gN"/>
      <point x="438" y="528" identifier="6foeT0Toef"/>
      <point x="330" y="528" type="curve" smooth="yes" identifier="IE84ALNwtW"/>
      <point x="224" y="528" identifier="uTwRyAfrpC"/>
      <point x="135" y="486" identifier="51xnHqECE0"/>
      <point x="135" y="380" type="curve" smooth="yes" identifier="7yAwRq1D4N"/>
      <point x="135" y="298" identifier="y05kDcoUIz"/>
      <point x="193" y="268" identifier="bS2d5rIULh"/>
      <point x="275" y="261" type="curve" smooth="yes" identifier="fvlfjwUJRI"/>
      <point x="353" y="254" type="line" smooth="yes" identifier="zLVWvzTuRw"/>
      <point x="433" y="247" identifier="rmVUMKEAZj"/>
      <point x="478" y="221" identifier="OXU47lRDmr"/>
      <point x="478" y="153" type="curve" smooth="yes" identifier="Msa1pibqIR"/>
      <point x="478" y="56" identifier="PJbV6WY13g"/>
      <point x="401" y="7" identifier="VEiLtiuAiU"/>
      <point x="285" y="7" type="curve" smooth="yes" identifier="9AqUQK1pSX"/>
      <point x="190" y="7" identifier="UCXKOwnF47"/>
      <point x="122" y="34" identifier="6vPK1m3lmB"/>
      <point x="80" y="102" type="curve" identifier="eQClsnfOd3"/>
      <point x="63" y="90" type="line" identifier="sfWcIIIK2S"/>
      <point x="108" y="21" identifier="BPl2egrJN9"/>
      <point x="182" y="-12" identifier="LTyEyCxVHa"/>
    </contour>
  </outline>
</glyph>
<glyph name="t" format="2">
  <advance width="600"/>
  <unicode hex="0074"/>
  <anchor x="213.0" y="0.0" name="bottom"/>
  <anchor x="473.0" y="760.0" name="topright"/>
  <outline>
    <contour>
      <point x="213" y="-12" type="curve" smooth="yes" identifier="eOkEvfAwHH"/>
      <point x="226" y="-12" identifier="VpgJyots6y"/>
      <point x="238" y="-2" identifier="1rycgWtgnd"/>
      <point x="256" y="9" type="curve" smooth="yes" identifier="iW0DSH8x2n"/>
      <point x="512" y="167" type="line" identifier="fb7UqCyDIf"/>
      <point x="502" y="183" type="line" identifier="oLNfh4MzTH"/>
      <point x="221" y="10" type="line" identifier="fhdKKALbEx"/>
      <point x="216" y="13" type="line" identifier="AuFNgJQ3Zm"/>
      <point x="298" y="497" type="line" identifier="NnW9xTHUky"/>
      <point x="562" y="497" type="line" identifier="ehm3xKsA9d"/>
      <point x="565" y="516" type="line" identifier="kwZjZIY11X"/>
      <point x="301" y="516" type="line" identifier="5wFZtZUWis"/>
      <point x="331" y="698" type="line" identifier="SAJ9rwLgjh"/>
      <point x="310" y="698" type="line" identifier="oaJGFQL4sU"/>
      <point x="285" y="545" type="line" smooth="yes" identifier="EnEFekQ4m1"/>
      <point x="282" y="525" identifier="2KpP4d6k93"/>
      <point x="271" y="516" identifier="7dVNw22uGH"/>
      <point x="251" y="516" type="curve" smooth="yes" identifier="cuei7uDQfJ"/>
      <point x="79" y="516" type="line" identifier="o3yGd5zbIV"/>
      <point x="76" y="497" type="line" identifier="WOhkBJBRVc"/>
      <point x="277" y="497" type="line" identifier="TYgh2xDWFp"/>
      <point x="200" y="42" type="line" smooth="yes" identifier="5afFScssvS"/>
      <point x="196" y="18" identifier="HuY8TLCjxI"/>
      <point x="195" y="11" identifier="kCuK2cc46l"/>
      <point x="195" y="6" type="curve" smooth="yes" identifier="AhYgDxO7VO"/>
      <point x="195" y="-4" identifier="CAoopPoYSf"/>
      <point x="201" y="-12" identifier="z0G4lB0ZOA"/>
    </contour>
  </outline>
</glyph>
<glyph name="u" format="2">
  <advance width="600"/>
  <unicode hex="0075"/>
  <anchor x="252.0" y="0.0" name="bottom"/>
  <anchor x="426.0" y="0.0" name="bottomright"/>
  <anchor x="338.0" y="516.0" name="top"/>
  <outline>
    <contour>
      <point x="405" y="0" type="line" identifier="eRty5fTf6M"/>
      <point x="426" y="0" type="line" identifier="A5mlhofrWp"/>
      <point x="512" y="516" type="line" identifier="dpaQBJHT3G"/>
      <point x="491" y="516" type="line" identifier="2Iw6qLVfAM"/>
      <point x="439" y="204" type="line" smooth="yes" identifier="OMzkn6CzPB"/>
      <point x="429" y="146" identifier="X1w97D6YWo"/>
      <point x="398" y="98" identifier="QUtWSnfABH"/>
      <point x="377" y="72" type="curve" smooth="yes" identifier="ega83cdsJ9"/>
      <point x="339" y="24" identifier="W8l81XNx1u"/>
      <point x="290" y="7" identifier="jObmx2GjOa"/>
      <point x="243" y="7" type="curve" smooth="yes" identifier="RnJxpyxtKo"/>
      <point x="165" y="7" identifier="IMHPtVF6on"/>
      <point x="123" y="48" identifier="nagZo9ChEb"/>
      <point x="123" y="130" type="curve" smooth="yes" identifier="38X1fN4TwA"/>
      <point x="123" y="149" identifier="hwPbdZfftl"/>
      <point x="125" y="170" identifier="F6AByXVQbs"/>
      <point x="128" y="187" type="curve" smooth="yes" identifier="kqxfBoHjbr"/>
      <point x="183" y="516" type="line" identifier="5IuEv8uYuS"/>
      <point x="162" y="516" type="line" identifier="47Z0LTV8R2"/>
      <point x="107" y="186" type="line" smooth="yes" identifier="tKl6S23zIe"/>
      <point x="104" y="167" identifier="jZopMG3lkl"/>
      <point x="102" y="148" identifier="1vk9j9SxJG"/>
      <point x="102" y="129" type="curve" smooth="yes" identifier="KN6zvJdUH3"/>
      <point x="102" y="40" identifier="0dLbL3zGb7"/>
      <point x="151" y="-12" identifier="E47KeN2YtI"/>
      <point x="240" y="-12" type="curve" smooth="yes" identifier="X5FYtKneHp"/>
      <point x="328" y="-12" identifier="BtUOhOJRZ6"/>
      <point x="382" y="36" identifier="OiUVvSysDO"/>
      <point x="421" y="114" type="curve" identifier="RojcAgD1U8"/>
      <point x="424" y="114" type="line" identifier="xLkwfTCvWY"/>
    </contour>
  </outline>
</glyph>
<glyph name="v" format="2">
  <advance width="600"/>
  <unicode hex="0076"/>
  <anchor x="242.0" y="0.0" name="bottom"/>
  <anchor x="337.0" y="516.0" name="top"/>
  <outline>
    <contour>
      <point x="87" y="516" type="line" identifier="35eQaFToQJ"/>
      <point x="84" y="497" type="line" identifier="VlNlcLNaTx"/>
      <point x="211" y="497" type="line" identifier="MAZ0Jccj0U"/>
      <point x="146" y="42" type="line" smooth="yes" identifier="XVH1mi9Szx"/>
      <point x="144" y="29" identifier="VPVMSmUbp2"/>
      <point x="143" y="22" identifier="BOmICRyPig"/>
      <point x="143" y="17" type="curve" smooth="yes" identifier="4SRldsctUl"/>
      <point x="143" y="4" identifier="o67Fd1IdCl"/>
      <point x="154" y="-4" identifier="1fQe7CH4QC"/>
      <point x="176" y="-4" type="curve" smooth="yes" identifier="eXro7OucFC"/>
      <point x="372" y="-4" identifier="z3JvVHt74o"/>
      <point x="530" y="184" identifier="OmjhaPXTNZ"/>
      <point x="530" y="406" type="curve" smooth="yes" identifier="DcgrXdhOBk"/>
      <point x="530" y="441" identifier="fg5b0kuZrU"/>
      <point x="524" y="488" identifier="63MtlxzsdD"/>
      <point x="512" y="520" type="curve" identifier="yXQtSpvGRH"/>
      <point x="492" y="512" type="line" identifier="CN1rDRgoGj"/>
      <point x="503" y="483" identifier="3rwodKjmPF"/>
      <point x="510" y="445" identifier="o4ik0NSAoc"/>
      <point x="510" y="406" type="curve" smooth="yes" identifier="d9ZezgSiCy"/>
      <point x="510" y="205" identifier="3Pa56yDHWJ"/>
      <point x="370" y="13" identifier="7H2MK0pr7F"/>
      <point x="170" y="13" type="curve" identifier="kBBLZvpofg"/>
      <point x="163" y="19" type="line" identifier="GqI2ww2mgV"/>
      <point x="234" y="516" type="line" identifier="quYllD8Nya"/>
    </contour>
  </outline>
</glyph>
<glyph name="w" format="2">
  <advance width="600"/>
  <unicode hex="0077"/>
  <anchor x="275.0" y="0.0" name="bottom"/>
  <anchor x="362.0" y="516.0" name="top"/>
  <outline>
    <contour>
      <point x="160" y="-12" type="curve" smooth="yes" identifier="nfntVcRv6O"/>
      <point x="221" y="-12" identifier="0sD8tf43mZ"/>
      <point x="265" y="30" identifier="Xud3khXmoN"/>
      <point x="288" y="98" type="curve" identifier="7mnQdNFiHQ"/>
      <point x="291" y="98" type="line" identifier="YhS8qPL2v6"/>
      <point x="287" y="23" identifier="ARUgxosDOy"/>
      <point x="327" y="-12" identifier="as9S1RaQut"/>
      <point x="379" y="-12" type="curve" smooth="yes" identifier="LwoTy2YxcA"/>
      <point x="434" y="-12" identifier="JO8Z83aeQQ"/>
      <point x="476" y="19" identifier="nM9vF6PjVK"/>
      <point x="506" y="67" type="curve" smooth="yes" identifier="1dsVIufSuW"/>
      <point x="548" y="133" identifier="NKDQcpZvUD"/>
      <point x="566" y="232" identifier="Td0RcnEB2v"/>
      <point x="566" y="336" type="curve" smooth="yes" identifier="OZTzAGYPX9"/>
      <point x="566" y="410" identifier="CywfKbU6Rk"/>
      <point x="553" y="476" identifier="nn2cDs0N3Y"/>
      <point x="534" y="519" type="curve" identifier="OvEqk3Nxf9"/>
      <point x="514" y="513" type="line" identifier="VNvE3JnVZl"/>
      <point x="534" y="471" identifier="CLCl2gcDq1"/>
      <point x="545" y="402" identifier="OjqqDzHczP"/>
      <point x="545" y="336" type="curve" smooth="yes" identifier="li2aYRhIwG"/>
      <point x="545" y="156" identifier="JZytfU0Jg3"/>
      <point x="486" y="7" identifier="zTx68NUFCP"/>
      <point x="380" y="7" type="curve" smooth="yes" identifier="iMBGPfNqAX"/>
      <point x="332" y="7" identifier="EP33Vxxkpu"/>
      <point x="308" y="42" identifier="UXwp0WwGCF"/>
      <point x="308" y="90" type="curve" smooth="yes" identifier="1obbHJnVSD"/>
      <point x="308" y="115" identifier="VntTbtDl2A"/>
      <point x="311" y="144" identifier="atkM4NAkpT"/>
      <point x="315" y="169" type="curve" smooth="yes" identifier="uYf1p3J93k"/>
      <point x="373" y="516" type="line" identifier="BVENvrZplR"/>
      <point x="352" y="516" type="line" identifier="uB8wdDbNGq"/>
      <point x="294" y="168" type="line" smooth="yes" identifier="DOVyaZ22ho"/>
      <point x="288" y="131" identifier="KAXhhGOoKk"/>
      <point x="275" y="94" identifier="aJnqVjzDa4"/>
      <point x="256" y="65" type="curve" smooth="yes" identifier="FzuAHoagPo"/>
      <point x="234" y="31" identifier="isZxd3AB1b"/>
      <point x="202" y="7" identifier="P3bDmjWEO8"/>
      <point x="162" y="7" type="curve" smooth="yes" identifier="qo8Xt1n99C"/>
      <point x="122" y="7" identifier="pkwVP5slFW"/>
      <point x="94" y="33" identifier="801wG0bRVr"/>
      <point x="94" y="79" type="curve" smooth="yes" identifier="AMCI6sRyDo"/>
      <point x="94" y="103" identifier="dTijBs8PiJ"/>
      <point x="96" y="120" identifier="GeqZaKC26s"/>
      <point x="102" y="158" type="curve" smooth="yes" identifier="QCTumcnTjf"/>
      <point x="162" y="516" type="line" identifier="3Lx2Ttm3fy"/>
      <point x="141" y="516" type="line" identifier="y7LQCON7Mo"/>
      <point x="82" y="162" type="line" smooth="yes" identifier="cBnz23K1xF"/>
      <point x="78" y="136" identifier="7jegMRQaVP"/>
      <point x="73" y="104" identifier="mkSU4o9R0b"/>
      <point x="73" y="78" type="curve" smooth="yes" identifier="mOKQ7O2Vct"/>
      <point x="73" y="27" identifier="ZhU6MCFZR2"/>
      <point x="103" y="-12" identifier="e4LRRu46q2"/>
    </contour>
  </outline>
</glyph>
<glyph name="x" format="2">
  <advance width="600"/>
  <unicode hex="0078"/>
  <anchor x="261.0" y="0.0" name="bottom"/>
  <anchor x="344.0" y="516.0" name="top"/>
  <outline>
    <contour>
      <point x="119" y="-12" type="curve" smooth="yes" identifier="85CrlE2RkV"/>
      <point x="189" y="-12" identifier="NQfXjXfBaI"/>
      <point x="254" y="52" identifier="1KwAybHIAu"/>
      <point x="286" y="179" type="curve" identifier="0MWJt5Nsd5"/>
      <point x="289" y="179" type="line" identifier="LLnCj8L5Kq"/>
      <point x="294" y="57" identifier="dEUCT0nNnd"/>
      <point x="342" y="-12" identifier="aPLxPdBa2j"/>
      <point x="370" y="-12" type="curve" smooth="yes" identifier="Ubwy1IURv9"/>
      <point x="381" y="-12" identifier="bxrjSuYoz6"/>
      <point x="386" y="-10" identifier="GrbSM1ztau"/>
      <point x="401" y="-2" type="curve" smooth="yes" identifier="sJbfnyYHa6"/>
      <point x="555" y="79" type="line" identifier="O4tfeNY7bL"/>
      <point x="546" y="94" type="line" identifier="sRUVAAKHgp"/>
      <point x="374" y="5" type="line" identifier="qDvUEyapDt"/>
      <point x="367" y="7" type="line" identifier="UVH8m4ZW22"/>
      <point x="338" y="32" identifier="3laVRiZeOY"/>
      <point x="309" y="101" identifier="Jj9yOuYcbH"/>
      <point x="309" y="187" type="curve" smooth="yes" identifier="UppnAedamR"/>
      <point x="309" y="277" identifier="Ke50TkRre8"/>
      <point x="362" y="509" identifier="NyQm7fjY9L"/>
      <point x="485" y="509" type="curve" smooth="yes" identifier="4BhlgEbRak"/>
      <point x="530" y="509" identifier="HKAJzfOY9N"/>
      <point x="562" y="478" identifier="j4GOHYKUHv"/>
      <point x="562" y="414" type="curve" smooth="yes" identifier="sMswoOgWlZ"/>
      <point x="562" y="398" identifier="moWrm6MWAH"/>
      <point x="560" y="369" identifier="Ml7a3GzMiv"/>
      <point x="555" y="344" type="curve" identifier="4eiJUkGyl2"/>
      <point x="576" y="345" type="line" identifier="oQ87imFANf"/>
      <point x="581" y="369" identifier="dZIP70MGwk"/>
      <point x="583" y="397" identifier="J9tiCgRoRF"/>
      <point x="583" y="414" type="curve" smooth="yes" identifier="25zep3GH7g"/>
      <point x="583" y="488" identifier="z09L6aYRsi"/>
      <point x="543" y="528" identifier="a9cy4KN1Ob"/>
      <point x="488" y="528" type="curve" smooth="yes" identifier="9TpuC2OuHs"/>
      <point x="418" y="528" identifier="QZaFt8sq8i"/>
      <point x="353" y="464" identifier="0teQg0SwR1"/>
      <point x="321" y="337" type="curve" identifier="D3li2RcNJZ"/>
      <point x="318" y="337" type="line" identifier="tOy9yrRyN8"/>
      <point x="313" y="459" identifier="XJ0eDzLDOX"/>
      <point x="266" y="528" identifier="DYvPpopJSX"/>
      <point x="238" y="528" type="curve" smooth="yes" identifier="qDbohXmJSk"/>
      <point x="229" y="528" identifier="U2AZdUtLhA"/>
      <point x="221" y="527" identifier="FZnjeaLEhK"/>
      <point x="202" y="518" type="curve" smooth="yes" identifier="Rtcd4CSGqY"/>
      <point x="48" y="446" type="line" identifier="MklzDsLJNW"/>
      <point x="56" y="431" type="line" identifier="92Utq0mICC"/>
      <point x="233" y="511" type="line" identifier="8QC1IWdyyJ"/>
      <point x="240" y="509" type="line" identifier="4qIkChudWV"/>
      <point x="269" y="484" identifier="q0uyVG858E"/>
      <point x="298" y="414" identifier="Xy93CTpWoI"/>
      <point x="298" y="332" type="curve" smooth="yes" identifier="P4kM2LGoaZ"/>
      <point x="298" y="238" identifier="8luzpJ85lL"/>
      <point x="245" y="7" identifier="5Odx70jyVc"/>
      <point x="120" y="7" type="curve" smooth="yes" identifier="GoCPNxb47w"/>
      <point x="77" y="7" identifier="3Hjd5T4n51"/>
      <point x="45" y="38" identifier="OyDG7Sp8iT"/>
      <point x="45" y="102" type="curve" smooth="yes" identifier="xENA0HdkfW"/>
      <point x="45" y="118" identifier="6iH2l6SoZz"/>
      <point x="47" y="147" identifier="m5740CY8Tr"/>
      <point x="52" y="172" type="curve" identifier="fUcpq0zalj"/>
      <point x="31" y="171" type="line" identifier="qisbwcyweX"/>
      <point x="26" y="147" identifier="1ts7w4rjSE"/>
      <point x="24" y="119" identifier="RCNEf0So0R"/>
      <point x="24" y="102" type="curve" smooth="yes" identifier="yG1XrnUWg4"/>
      <point x="24" y="28" identifier="RTVUKIRBnG"/>
      <point x="64" y="-12" identifier="ZfjPaEH2kn"/>
    </contour>
  </outline>
</glyph>
<glyph name="y" format="2">
  <advance width="600"/>
  <unicode hex="0079"/>
  <anchor x="242.0" y="0.0" name="bottom"/>
  <anchor x="338.0" y="516.0" name="top"/>
  <outline>
    <contour>
      <point x="199" y="-212" type="curve" smooth="yes" identifier="eu8tSDwkS8"/>
      <point x="322" y="-212" identifier="E5dHnzy9TV"/>
      <point x="401" y="-150" identifier="BQtWx2QQff"/>
      <point x="423" y="-18" type="curve" smooth="yes" identifier="s7guPI9LIu"/>
      <point x="512" y="516" type="line" identifier="R95C5LGYRP"/>
      <point x="491" y="516" type="line" identifier="hFdGtJZzA1"/>
      <point x="438" y="201" type="line" smooth="yes" identifier="VdHlZJNOnu"/>
      <point x="428" y="143" identifier="lqcCDRJUM4"/>
      <point x="398" y="98" identifier="GVb3ATgmG2"/>
      <point x="377" y="72" type="curve" smooth="yes" identifier="co57j2qwpi"/>
      <point x="339" y="24" identifier="wPL41h2XYm"/>
      <point x="290" y="7" identifier="ZqyxKkEgWS"/>
      <point x="243" y="7" type="curve" smooth="yes" identifier="DgLyeSwUaJ"/>
      <point x="165" y="7" identifier="6Yxw6bsNqI"/>
      <point x="123" y="48" identifier="R8mdVXGzzI"/>
      <point x="123" y="130" type="curve" smooth="yes" identifier="VEbbk5TF4o"/>
      <point x="123" y="149" identifier="NCdboSomPs"/>
      <point x="125" y="170" identifier="wOOmXLoqbh"/>
      <point x="128" y="187" type="curve" smooth="yes" identifier="Dea7fnUHUv"/>
      <point x="183" y="516" type="line" identifier="5HQ3w5bHn1"/>
      <point x="162" y="516" type="line" identifier="Qn9wsSQIgH"/>
      <point x="107" y="186" type="line" smooth="yes" identifier="TZOQTBLNLT"/>
      <point x="104" y="167" identifier="d1gXI7u4Nh"/>
      <point x="102" y="148" identifier="A4DFrhmXfv"/>
      <point x="102" y="129" type="curve" smooth="yes" identifier="ReQSMFFmJv"/>
      <point x="102" y="40" identifier="Lbuf0MPSwL"/>
      <point x="151" y="-12" identifier="ojU0j56ogw"/>
      <point x="240" y="-12" type="curve" smooth="yes" identifier="dY8GQueWsh"/>
      <point x="328" y="-12" identifier="9Khc1kcIal"/>
      <point x="382" y="36" identifier="sVcaGYeZZC"/>
      <point x="421" y="114" type="curve" identifier="Cb1osBNeEC"/>
      <point x="424" y="114" type="line" identifier="UkeJGKxLhk"/>
      <point x="403" y="-13" type="line" smooth="yes" identifier="nlWsS49LBP"/>
      <point x="382" y="-140" identifier="BSfYyPFp2N"/>
      <point x="309" y="-193" identifier="PDtd97BlQI"/>
      <point x="199" y="-193" type="curve" smooth="yes" identifier="uk97BXK4Je"/>
      <point x="129" y="-193" identifier="id6j2baIXm"/>
      <point x="86" y="-169" identifier="6fmutt18PJ"/>
      <point x="57" y="-131" type="curve" identifier="WleZZNcbmP"/>
      <point x="41" y="-145" type="line" identifier="j4OAMbYiqJ"/>
      <point x="74" y="-186" identifier="kCbUKQR5fw"/>
      <point x="124" y="-212" identifier="cGfAm2M8El"/>
    </contour>
  </outline>
</glyph>
<glyph name="z" format="2">
  <advance width="600"/>
  <unicode hex="007A"/>
  <anchor x="264.0" y="0.0" name="bottom"/>
  <anchor x="341.0" y="516.0" name="top"/>
  <outline>
    <contour>
      <point x="458" y="-12" type="curve" smooth="yes" identifier="ahGEuJCGBt"/>
      <point x="475" y="-12" identifier="xJ8hvHYJNT"/>
      <point x="485" y="1" identifier="lyRtqFeuEQ"/>
      <point x="485" y="13" type="curve" smooth="yes" identifier="j9eTSpyPCm"/>
      <point x="485" y="24" identifier="afo7NPFjbr"/>
      <point x="481" y="46" identifier="4sgRLRfFVv"/>
      <point x="473" y="92" type="curve" smooth="yes" identifier="NBi9pkgIkA"/>
      <point x="456" y="196" type="line" identifier="NTJSa0V3Tp"/>
      <point x="439" y="193" type="line" identifier="XRYwknEit9"/>
      <point x="465" y="10" type="line" identifier="8pElv8Sh90"/>
      <point x="459" y="5" type="line" identifier="1RFODwQpab"/>
      <point x="100" y="77" type="line" identifier="aM5lsXGlZv"/>
      <point x="527" y="444" type="line" identifier="CQMmGuvHGR"/>
      <point x="540" y="516" type="line" identifier="Bv20z4Yoq0"/>
      <point x="519" y="516" type="line" identifier="UIKXCLdh3t"/>
      <point x="506" y="452" type="line" identifier="SQ5iAeCx8Y"/>
      <point x="503" y="449" type="line" identifier="395NhXclH8"/>
      <point x="459" y="467" type="line" smooth="yes" identifier="9NTeOCLJx8"/>
      <point x="375" y="501" identifier="DrzfTdNUto"/>
      <point x="299" y="528" identifier="ckf4jwufb7"/>
      <point x="246" y="528" type="curve" smooth="yes" identifier="ZGA1DNwMIg"/>
      <point x="152" y="528" identifier="gHWzeAhV1l"/>
      <point x="115" y="477" identifier="Y7oI7EPLLb"/>
      <point x="110" y="369" type="curve" smooth="yes" identifier="TFefTdIhOW"/>
      <point x="109" y="348" type="line" identifier="3vWiynS1Vt"/>
      <point x="128" y="347" type="line" identifier="mTovFBYXhO"/>
      <point x="131" y="477" identifier="4dxRZl1aB0"/>
      <point x="171" y="509" identifier="DqqWpV0njy"/>
      <point x="246" y="509" type="curve" smooth="yes" identifier="oeMmxOHdoY"/>
      <point x="302" y="509" identifier="whcYcQi2t1"/>
      <point x="368" y="485" identifier="1Bsxy6zo52"/>
      <point x="488" y="436" type="curve" identifier="t5dkvqbgM4"/>
      <point x="65" y="72" type="line" identifier="9m8kPu5MbI"/>
      <point x="52" y="0" type="line" identifier="pdUYNbm0Ok"/>
      <point x="73" y="0" type="line" identifier="gPO7lt1mlM"/>
      <point x="84" y="58" type="line" identifier="1WSlOGcL6O"/>
      <point x="87" y="61" type="line" identifier="spWgqeV7zG"/>
      <point x="409" y="-5" type="line" smooth="yes" identifier="Snyz8wVbyU"/>
      <point x="432" y="-10" identifier="i51CYka5zF"/>
      <point x="444" y="-12" identifier="wsURTXLfOt"/>
    </contour>
  </outline>
</glyph>
<glyph name="braceleft" format="2">
  <advance width="600"/>
  <unicode hex="007B"/>
  <outline>
    <contour>
      <point x="418" y="-138" type="line" identifier="UsTxIdto09"/>
      <point x="421" y="-120" type="line" identifier="unNJb3f8Zf"/>
      <point x="221" y="-120" type="line" identifier="wdI4yGtxGn"/>
      <point x="241" y="-1" type="line" smooth="yes" identifier="KR1d3xIiCt"/>
      <point x="254" y="75" identifier="4Ea8T2FmbT"/>
      <point x="289" y="103" identifier="3wJIqwTXJb"/>
      <point x="306" y="121" type="curve" smooth="yes" identifier="JDcPcbkW05"/>
      <point x="347" y="163" identifier="h5yXkOqqZd"/>
      <point x="364" y="184" identifier="UiOUIfrz3y"/>
      <point x="364" y="223" type="curve" smooth="yes" identifier="8RLY2UFuI7"/>
      <point x="364" y="275" identifier="svdTPkx0E8"/>
      <point x="320" y="304" identifier="i9hQls2S04"/>
      <point x="261" y="309" type="curve" identifier="A4aKRhpAmB"/>
      <point x="261" y="311" type="line" identifier="VLik7vAsvW"/>
      <point x="346" y="317" identifier="efybAFDibG"/>
      <point x="398" y="356" identifier="pIuiaX1TKI"/>
      <point x="398" y="423" type="curve" smooth="yes" identifier="hOs328r7fc"/>
      <point x="398" y="444" identifier="0HEealLNZI"/>
      <point x="388" y="468" identifier="jzPS2SKtPb"/>
      <point x="367" y="502" type="curve" smooth="yes" identifier="0yHfDB4nRl"/>
      <point x="358" y="516" identifier="60ElaJedpm"/>
      <point x="341" y="536" identifier="CCDDIuBu2q"/>
      <point x="341" y="582" type="curve" smooth="yes" identifier="QSf0CYQ6be"/>
      <point x="341" y="593" identifier="Y2S8TMNIgP"/>
      <point x="341" y="607" identifier="6ubY0NDZXP"/>
      <point x="365" y="742" type="curve" identifier="nC6FuyM3x7"/>
      <point x="565" y="742" type="line" identifier="8P6g8OQ32z"/>
      <point x="568" y="760" type="line" identifier="kZAtFN1n3W"/>
      <point x="377" y="760" type="line" smooth="yes" identifier="nCJgKHd3sk"/>
      <point x="357" y="760" identifier="AT0RDNIKXz"/>
      <point x="346" y="750" identifier="WeqkcIXKCr"/>
      <point x="343" y="730" type="curve" smooth="yes" identifier="eXqk0Jr0re"/>
      <point x="322" y="608" identifier="nxtmfT9Psg"/>
      <point x="321" y="595" identifier="Ydd0oxTsl0"/>
      <point x="321" y="584" type="curve" smooth="yes" identifier="0nJ9zyOeTr"/>
      <point x="321" y="533" identifier="eCwvbCQcE7"/>
      <point x="341" y="509" identifier="iXNlyyAceD"/>
      <point x="351" y="494" type="curve" smooth="yes" identifier="PJMWqprN73"/>
      <point x="371" y="462" identifier="ddyLcT9HBb"/>
      <point x="378" y="441" identifier="O54qDp60IL"/>
      <point x="378" y="423" type="curve" smooth="yes" identifier="lkrLykw79B"/>
      <point x="378" y="354" identifier="MKabDWFdoE"/>
      <point x="313" y="320" identifier="Xh8JAeVsPc"/>
      <point x="194" y="320" type="curve" smooth="yes" identifier="IkXYHNM1rK"/>
      <point x="126" y="320" type="line" identifier="bVccc9u5ZX"/>
      <point x="123" y="302" type="line" identifier="p64AQEdMNz"/>
      <point x="191" y="302" type="line" smooth="yes" identifier="Da5cWI3aV2"/>
      <point x="290" y="302" identifier="gd7QQe7rK2"/>
      <point x="344" y="276" identifier="ZpfZZDgmXe"/>
      <point x="344" y="222" type="curve" smooth="yes" identifier="ob7tybKORE"/>
      <point x="344" y="186" identifier="fPPHGlYXKi"/>
      <point x="329" y="171" identifier="4tGbB4yTiv"/>
      <point x="290" y="131" type="curve" smooth="yes" identifier="87EpGd00ox"/>
      <point x="272" y="112" identifier="EkFkkFaKzT"/>
      <point x="234" y="80" identifier="75OdiHI1y9"/>
      <point x="221" y="-1" type="curve" smooth="yes" identifier="668yFhxOF6"/>
      <point x="204" y="-104" identifier="iPYz66dDGZ"/>
      <point x="202" y="-114" identifier="TMmf9zVHy1"/>
      <point x="202" y="-117" type="curve" smooth="yes" identifier="jaqyuukOAk"/>
      <point x="202" y="-131" identifier="s4uNBX92UU"/>
      <point x="211" y="-138" identifier="Q6uaEpMtjz"/>
      <point x="228" y="-138" type="curve" smooth="yes" identifier="FD78wxWblg"/>
    </contour>
  </outline>
</glyph>
<glyph name="bar" format="2">
  <advance width="600"/>
  <unicode hex="007C"/>
  <outline>
    <contour>
      <point x="244" y="-138" type="line" identifier="o0ubF65ciP"/>
      <point x="394" y="760" type="line" identifier="R7yHw9j3VP"/>
      <point x="374" y="760" type="line" identifier="7WyX39AA8G"/>
      <point x="224" y="-138" type="line" identifier="8tExzLP1Wb"/>
    </contour>
  </outline>
</glyph>
<glyph name="braceright" format="2">
  <advance width="600"/>
  <unicode hex="007D"/>
  <outline>
    <contour>
      <point x="198" y="760" type="line" identifier="BOc4cHgsBG"/>
      <point x="195" y="742" type="line" identifier="kh7xoPkCoP"/>
      <point x="395" y="742" type="line" identifier="3mv88X0RKF"/>
      <point x="375" y="623" type="line" smooth="yes" identifier="mcIv1LgaCx"/>
      <point x="362" y="547" identifier="mCdRGKOuv8"/>
      <point x="327" y="519" identifier="Lh87Zvhtwx"/>
      <point x="310" y="501" type="curve" smooth="yes" identifier="aCO8MtnaCz"/>
      <point x="269" y="458" identifier="N9dk2kOlaT"/>
      <point x="252" y="438" identifier="KusJZ6fjCo"/>
      <point x="252" y="399" type="curve" smooth="yes" identifier="yGs1S6eOkb"/>
      <point x="252" y="347" identifier="F0BpV1c6Hq"/>
      <point x="296" y="318" identifier="r9vQcQL62d"/>
      <point x="355" y="313" type="curve" identifier="OvyTWwcrTg"/>
      <point x="355" y="311" type="line" identifier="ljIKx4r8aM"/>
      <point x="270" y="305" identifier="qyxw5xBzk2"/>
      <point x="218" y="266" identifier="0vNXkoKN8B"/>
      <point x="218" y="199" type="curve" smooth="yes" identifier="1Ubvx4tO9p"/>
      <point x="218" y="178" identifier="bp7ujDwzTX"/>
      <point x="228" y="154" identifier="8P8Hw1KGBF"/>
      <point x="249" y="120" type="curve" smooth="yes" identifier="2NTc0qGhF0"/>
      <point x="258" y="106" identifier="cPO18Ld3Of"/>
      <point x="275" y="86" identifier="64FelujW0f"/>
      <point x="275" y="40" type="curve" smooth="yes" identifier="Dc7A91l80Z"/>
      <point x="275" y="29" identifier="j7zKr6K5sY"/>
      <point x="275" y="16" identifier="V23EqlgO7G"/>
      <point x="251" y="-120" type="curve" identifier="85xpvHaBgI"/>
      <point x="51" y="-120" type="line" identifier="izaroVTFP6"/>
      <point x="48" y="-138" type="line" identifier="DzQOAmR1PZ"/>
      <point x="239" y="-138" type="line" smooth="yes" identifier="Xdj2tThuUP"/>
      <point x="259" y="-138" identifier="PxrQRirTR7"/>
      <point x="270" y="-128" identifier="TVlCIffZiN"/>
      <point x="273" y="-108" type="curve" smooth="yes" identifier="jtrM3VUL1W"/>
      <point x="293" y="13" identifier="ACCsqVPr9l"/>
      <point x="294" y="26" identifier="SyYFlH5c9z"/>
      <point x="294" y="38" type="curve" smooth="yes" identifier="IMvwdztnST"/>
      <point x="294" y="88" identifier="MV5ULVp6d4"/>
      <point x="275" y="112" identifier="hF83y6MV5V"/>
      <point x="265" y="128" type="curve" smooth="yes" identifier="0B9vtx0srq"/>
      <point x="245" y="160" identifier="bpkueUnpMn"/>
      <point x="238" y="181" identifier="HOsbxQpg6i"/>
      <point x="238" y="199" type="curve" smooth="yes" identifier="rn0F0uCpCA"/>
      <point x="238" y="268" identifier="42rtOt8Ev9"/>
      <point x="303" y="302" identifier="ge70e9bvcn"/>
      <point x="422" y="302" type="curve" smooth="yes" identifier="CZeGqy9qeI"/>
      <point x="490" y="302" type="line" identifier="cTcd9xQ3Tv"/>
      <point x="493" y="320" type="line" identifier="XGs9eaZ4JS"/>
      <point x="425" y="320" type="line" smooth="yes" identifier="d4OojMioDk"/>
      <point x="326" y="320" identifier="LLJVdKGPx3"/>
      <point x="272" y="346" identifier="lZ6lW2qkw1"/>
      <point x="272" y="400" type="curve" smooth="yes" identifier="RDJdG8UDz5"/>
      <point x="272" y="436" identifier="L8WLT3Qq2x"/>
      <point x="287" y="451" identifier="mleMwILqqj"/>
      <point x="326" y="491" type="curve" smooth="yes" identifier="LeTuuJkVuc"/>
      <point x="344" y="510" identifier="NUioPSrgim"/>
      <point x="382" y="542" identifier="Ksh5aLVxZz"/>
      <point x="395" y="623" type="curve" smooth="yes" identifier="65CC2buHD2"/>
      <point x="412" y="726" identifier="bFi5Pdl1zW"/>
      <point x="414" y="736" identifier="9yms2GOHkY"/>
      <point x="414" y="739" type="curve" smooth="yes" identifier="NqqeY8vNpT"/>
      <point x="414" y="753" identifier="LuOc2xV4q6"/>
      <point x="405" y="760" identifier="BPao168Lce"/>
      <point x="388" y="760" type="curve" smooth="yes" identifier="WgS6ur9Utg"/>
    </contour>
  </outline>
</glyph>
<glyph name="asciitilde" format="2">
  <advance width="600"/>
  <unicode hex="007E"/>
  <outline>
    <contour>
      <point x="414" y="217" type="curve" smooth="yes" identifier="FEz3IboD66"/>
      <point x="466" y="217" identifier="dE7okpE10l"/>
      <point x="523" y="260" identifier="vf4DXexM9V"/>
      <point x="563" y="380" type="curve" identifier="grTXk7D1K9"/>
      <point x="545" y="385" type="line" identifier="FKzcQZIMEb"/>
      <point x="508" y="275" identifier="lOi4Qc7Eex"/>
      <point x="459" y="237" identifier="DZUx2iStJw"/>
      <point x="415" y="237" type="curve" smooth="yes" identifier="atEaTAbAeK"/>
      <point x="378" y="237" identifier="tFdo2HorGO"/>
      <point x="351" y="262" identifier="sTw8yoRpp3"/>
      <point x="317" y="310" type="curve" smooth="yes" identifier="OyvYeKX2e5"/>
      <point x="274" y="369" identifier="YLjtWkHMsk"/>
      <point x="246" y="391" identifier="4sBe2c7jSw"/>
      <point x="203" y="391" type="curve" smooth="yes" identifier="xVEMNCFpTp"/>
      <point x="151" y="391" identifier="SiXi1yd9IY"/>
      <point x="94" y="348" identifier="SwlyaP3gwB"/>
      <point x="54" y="228" type="curve" identifier="Pu6yRCgya2"/>
      <point x="72" y="223" type="line" identifier="Vbyh2823MY"/>
      <point x="109" y="333" identifier="h1NAq1K38z"/>
      <point x="158" y="371" identifier="jgEorXd4oM"/>
      <point x="202" y="371" type="curve" smooth="yes" identifier="60bdoce0ov"/>
      <point x="239" y="371" identifier="STodvi4Gc6"/>
      <point x="266" y="346" identifier="0UbyLSeDYR"/>
      <point x="300" y="298" type="curve" smooth="yes" identifier="G4RWFYauhb"/>
      <point x="343" y="239" identifier="9IyrCKG7Cs"/>
      <point x="371" y="217" identifier="HMTBmPj4nr"/>
    </contour>
  </outline>
</glyph>
<glyph name="exclamdown" format="2">
  <advance width="600"/>
  <unicode hex="00A1"/>
  <outline>
    <contour>
      <point x="238" y="-182" type="line" identifier="415IoiLj6i"/>
      <point x="285" y="101" type="line" identifier="EKXLcZQgqZ"/>
      <point x="320" y="340" type="line" identifier="mljPGjxTiZ"/>
      <point x="308" y="340" type="line" identifier="xRPuXWHf4c"/>
      <point x="263" y="101" type="line" identifier="nPoLXXIAUw"/>
      <point x="216" y="-182" type="line" identifier="wSxtWGT0Wp"/>
    </contour>
    <contour>
      <point x="334" y="459" type="curve" smooth="yes" identifier="7NVaQcNk5S"/>
      <point x="355" y="459" identifier="v4urwH5WGO"/>
      <point x="368" y="469" identifier="OUO3NkJN2Z"/>
      <point x="371" y="485" type="curve" smooth="yes" identifier="xfxIRP5W16"/>
      <point x="372" y="490" identifier="IaCwVXUrnM"/>
      <point x="373" y="495" identifier="ZTHy3N4e53"/>
      <point x="373" y="499" type="curve" smooth="yes" identifier="2brkXFQsin"/>
      <point x="373" y="513" identifier="8F8pogEVY3"/>
      <point x="364" y="521" identifier="XGcsFQxwwJ"/>
      <point x="344" y="521" type="curve" smooth="yes" identifier="DNrHNXxxIQ"/>
      <point x="323" y="521" identifier="cfyqrTgyq6"/>
      <point x="310" y="511" identifier="ED1DWVp5hg"/>
      <point x="307" y="495" type="curve" smooth="yes" identifier="3QIyqI1vIu"/>
      <point x="306" y="490" identifier="IkgszVH9Eh"/>
      <point x="305" y="485" identifier="zhL19nrTsh"/>
      <point x="305" y="481" type="curve" smooth="yes" identifier="t6WgE6P4Pe"/>
      <point x="305" y="467" identifier="8Qzutg2kkR"/>
      <point x="314" y="459" identifier="oJn0TBlZfE"/>
    </contour>
  </outline>
</glyph>
<glyph name="cent" format="2">
  <advance width="600"/>
  <unicode hex="00A2"/>
  <outline>
    <contour>
      <point x="213" y="-114" type="line" identifier="K6gNWmoWy9"/>
      <point x="233" y="-114" type="line" identifier="ezgyMe0DlH"/>
      <point x="250" y="-12" type="line" identifier="ByYx1Ki5Q4"/>
      <point x="255" y="-12" identifier="JYOCXtUowu"/>
      <point x="260" y="-12" identifier="YZ63l251Rx"/>
      <point x="265" y="-12" type="curve" smooth="yes" identifier="vmRmbbcvBj"/>
      <point x="361" y="-12" identifier="mTzz9H8vq5"/>
      <point x="426" y="49" identifier="UBrIeOFgc2"/>
      <point x="481" y="139" type="curve" identifier="wXtI9lI9jW"/>
      <point x="463" y="147" type="line" identifier="mzGGf1UEvR"/>
      <point x="410" y="62" identifier="TFvpF3DywG"/>
      <point x="351" y="6" identifier="6Nr6CZa8Rn"/>
      <point x="264" y="6" type="curve" smooth="yes" identifier="lRTxn3UqBp"/>
      <point x="260" y="6" identifier="aLS02hKOPT"/>
      <point x="257" y="6" identifier="ncHUIBhBIE"/>
      <point x="253" y="6" type="curve" identifier="BBqvIuijqn"/>
      <point x="337" y="509" type="line" identifier="EA5HHsm8qh"/>
      <point x="404" y="509" identifier="PFxMIrADgN"/>
      <point x="458" y="473" identifier="YYdtfTPjTd"/>
      <point x="475" y="408" type="curve" identifier="gQAKgTQivY"/>
      <point x="494" y="413" type="line" identifier="wh9k0gZZMg"/>
      <point x="478" y="480" identifier="DrfJ73S1hm"/>
      <point x="419" y="526" identifier="E3hafgkGaX"/>
      <point x="340" y="528" type="curve" identifier="lHcn2lvmpG"/>
      <point x="357" y="630" type="line" identifier="XG56frxn6C"/>
      <point x="337" y="630" type="line" identifier="Pl6r9JljNM"/>
      <point x="320" y="528" type="line" identifier="Qr1HR9i0Kx"/>
      <point x="181" y="520" identifier="MdaL2d8LHA"/>
      <point x="83" y="402" identifier="pCJSjvbvh8"/>
      <point x="83" y="201" type="curve" smooth="yes" identifier="o3AoVueuAQ"/>
      <point x="83" y="89" identifier="lfPHd5HVkR"/>
      <point x="132" y="5" identifier="T8KGQj9GP5"/>
      <point x="230" y="-10" type="curve" identifier="miYoLt3ktm"/>
    </contour>
    <contour>
      <point x="103" y="201" type="curve" smooth="yes" identifier="G85pzoRmB6"/>
      <point x="103" y="221" identifier="5pbgOMlJcJ"/>
      <point x="104" y="233" identifier="9EMlWXh3p0"/>
      <point x="107" y="253" type="curve" smooth="yes" identifier="EZWnVQMFm3"/>
      <point x="115" y="302" type="line" smooth="yes" identifier="4ZVhjUYZmU"/>
      <point x="135" y="422" identifier="26C40wJTbm"/>
      <point x="212" y="501" identifier="hNNwleVziY"/>
      <point x="317" y="508" type="curve" identifier="h08OlntOkZ"/>
      <point x="234" y="8" type="line" identifier="qpctafxxKg"/>
      <point x="143" y="23" identifier="0dhB0jAovT"/>
      <point x="103" y="104" identifier="1T3dMwNDRO"/>
    </contour>
  </outline>
</glyph>
<glyph name="sterling" format="2">
  <advance width="600"/>
  <unicode hex="00A3"/>
  <outline>
    <contour>
      <point x="503" y="-12" type="curve" smooth="yes" identifier="woqbcuhNaB"/>
      <point x="517" y="-12" identifier="WdqTznASDi"/>
      <point x="525" y="0" identifier="yjO77QnBA4"/>
      <point x="525" y="11" type="curve" smooth="yes" identifier="9RBrmxkzfh"/>
      <point x="525" y="22" identifier="VQ92i6cDtf"/>
      <point x="521" y="45" identifier="imQNj6fTY1"/>
      <point x="513" y="92" type="curve" smooth="yes" identifier="cmkEG530Ck"/>
      <point x="496" y="196" type="line" identifier="Yra7Xo366V"/>
      <point x="478" y="193" type="line" identifier="CMx6zLSEvy"/>
      <point x="505" y="10" type="line" identifier="S0O6y4SdJx"/>
      <point x="500" y="6" type="line" identifier="SsdsW1jEc1"/>
      <point x="89" y="73" type="line" identifier="VQGahuo1cy"/>
      <point x="89" y="76" type="line" identifier="vaTFQ8Lrkc"/>
      <point x="171" y="113" identifier="HFFNkz8dJQ"/>
      <point x="205" y="188" identifier="DE18Bv8fsY"/>
      <point x="205" y="265" type="curve" smooth="yes" identifier="ktniVKZIiP"/>
      <point x="205" y="288" identifier="eBfl9FPusS"/>
      <point x="203" y="310" identifier="U1yKk9rMHU"/>
      <point x="200" y="331" type="curve" identifier="TOqy0MBO8C"/>
      <point x="407" y="331" type="line" identifier="LwIDvBMAko"/>
      <point x="410" y="351" type="line" identifier="Eh1xhIqDeb"/>
      <point x="196" y="351" type="line" identifier="TWt9Np2tDm"/>
      <point x="187" y="401" identifier="zRZp3nEbgq"/>
      <point x="174" y="446" identifier="mLROeHJtez"/>
      <point x="174" y="497" type="curve" smooth="yes" identifier="hQvbtGTvH2"/>
      <point x="174" y="620" identifier="ItrPEK3mqc"/>
      <point x="248" y="690" identifier="pmnRrMApin"/>
      <point x="357" y="690" type="curve" smooth="yes" identifier="rlk3UDHvni"/>
      <point x="437" y="690" identifier="j7NzP0ZeCy"/>
      <point x="494" y="659" identifier="Uf3wI0ph3I"/>
      <point x="527" y="582" type="curve" identifier="DHgH51uD8m"/>
      <point x="546" y="592" type="line" identifier="inWARUnsQq"/>
      <point x="511" y="672" identifier="mfHLbMy7eG"/>
      <point x="444" y="710" identifier="UHShIS0dRe"/>
      <point x="358" y="710" type="curve" smooth="yes" identifier="TEklG44zx2"/>
      <point x="238" y="710" identifier="nhGVxzgCWP"/>
      <point x="152" y="631" identifier="1YrkirxHM5"/>
      <point x="152" y="497" type="curve" smooth="yes" identifier="LVDisoyXtA"/>
      <point x="152" y="446" identifier="rsJw4RkpQx"/>
      <point x="165" y="401" identifier="QW113Pqegn"/>
      <point x="174" y="351" type="curve" identifier="yX2IjkDOHq"/>
      <point x="76" y="351" type="line" identifier="hX6qBvBq75"/>
      <point x="73" y="331" type="line" identifier="QVJp8t4sZX"/>
      <point x="178" y="331" type="line" identifier="TL9BzRl6Qa"/>
      <point x="181" y="310" identifier="nK82DClXhb"/>
      <point x="183" y="288" identifier="fEK5bpkMhh"/>
      <point x="183" y="265" type="curve" smooth="yes" identifier="wWBGbJNSXp"/>
      <point x="183" y="157" identifier="Ek5R5jq1NM"/>
      <point x="131" y="111" identifier="BYM0cc6EZm"/>
      <point x="57" y="76" type="curve" identifier="WM4upMkf1u"/>
      <point x="45" y="0" type="line" identifier="qtlBnwtn4h"/>
      <point x="66" y="0" type="line" identifier="SDxLPDDyiG"/>
      <point x="75" y="57" type="line" identifier="IKs0RdYQ16"/>
      <point x="441" y="-3" type="line" smooth="yes" identifier="nxmhz8oPmE"/>
      <point x="479" y="-9" identifier="o8cKzEnrPu"/>
      <point x="492" y="-12" identifier="01fJXWI4n8"/>
    </contour>
  </outline>
</glyph>
<glyph name="currency" format="2">
  <advance width="600"/>
  <unicode hex="00A4"/>
  <outline>
    <contour>
      <point x="278" y="129" type="curve" smooth="yes" identifier="vhaUO3J5nq"/>
      <point x="322" y="129" identifier="cGnm0rdgw7"/>
      <point x="360" y="140" identifier="QZdl6Spe4a"/>
      <point x="391" y="161" type="curve" identifier="PARlH7N5l3"/>
      <point x="462" y="47" type="line" identifier="PWzQfvDhSR"/>
      <point x="480" y="60" type="line" identifier="DcvMsfGAXV"/>
      <point x="409" y="174" type="line" identifier="rdbHNmIzfK"/>
      <point x="449" y="210" identifier="kIhsLkAln5"/>
      <point x="477" y="267" identifier="6Knxmvlnew"/>
      <point x="490" y="346" type="curve" smooth="yes" identifier="uRsTqixUUP"/>
      <point x="494" y="369" identifier="xZgztOlAAC"/>
      <point x="496" y="390" identifier="jJneBpa5jS"/>
      <point x="496" y="409" type="curve" smooth="yes" identifier="QKuNee4MJ6"/>
      <point x="496" y="457" identifier="v0iaSU1uGo"/>
      <point x="485" y="494" identifier="hdJQUA1h4P"/>
      <point x="464" y="521" type="curve" identifier="Kuh6daytxN"/>
      <point x="576" y="638" type="line" identifier="UwKP7hw6b6"/>
      <point x="559" y="651" type="line" identifier="BBz9nOCSFq"/>
      <point x="450" y="536" type="line" identifier="lqNi9iZdPX"/>
      <point x="425" y="558" identifier="LVcEiNWju7"/>
      <point x="390" y="569" identifier="LORA5OQZOb"/>
      <point x="346" y="569" type="curve" smooth="yes" identifier="1m4f7KPtJK"/>
      <point x="302" y="569" identifier="0pWpifpoT3"/>
      <point x="264" y="558" identifier="juNQXNHQqc"/>
      <point x="233" y="537" type="curve" identifier="uX9ojyte6N"/>
      <point x="162" y="651" type="line" identifier="4T3G9kRowU"/>
      <point x="144" y="638" type="line" identifier="77IvBBoLyx"/>
      <point x="215" y="524" type="line" identifier="egGkEeyMjk"/>
      <point x="175" y="488" identifier="BpsjcQ7wNg"/>
      <point x="147" y="431" identifier="ZJkmaENJ0P"/>
      <point x="134" y="352" type="curve" smooth="yes" identifier="notV3q9a2y"/>
      <point x="130" y="329" identifier="KFYsfiYf7g"/>
      <point x="128" y="308" identifier="OEgDpqD2Fl"/>
      <point x="128" y="289" type="curve" smooth="yes" identifier="3t73kXz8f0"/>
      <point x="128" y="241" identifier="kOIze9BY28"/>
      <point x="139" y="204" identifier="Mqc1rJ3SWh"/>
      <point x="160" y="177" type="curve" identifier="As7lwDy8ir"/>
      <point x="48" y="60" type="line" identifier="Oj7ZcMnx4v"/>
      <point x="65" y="47" type="line" identifier="PYCJHedcnk"/>
      <point x="174" y="162" type="line" identifier="hh8hA8vHEv"/>
      <point x="199" y="140" identifier="9J7hUNI8BX"/>
      <point x="234" y="129" identifier="wAXBCIN0LL"/>
    </contour>
    <contour>
      <point x="278" y="148" type="curve" smooth="yes" identifier="6id2eTWSRn"/>
      <point x="191" y="148" identifier="ranyeCHs8x"/>
      <point x="149" y="198" identifier="NlX6tGk7Qd"/>
      <point x="149" y="282" type="curve" smooth="yes" identifier="kgIIISiYCv"/>
      <point x="149" y="297" identifier="wncEypkF4J"/>
      <point x="150" y="313" identifier="tCkOUbI76q"/>
      <point x="153" y="330" type="curve" smooth="yes" identifier="H7GSztBAPp"/>
      <point x="159" y="368" type="line" smooth="yes" identifier="wdbJcwwSCd"/>
      <point x="177" y="480" identifier="533mh8ekQC"/>
      <point x="245" y="550" identifier="U9nSMwuDLm"/>
      <point x="346" y="550" type="curve" smooth="yes" identifier="AdfReCDaeG"/>
      <point x="433" y="550" identifier="mCaYvwcACj"/>
      <point x="475" y="500" identifier="CnfLLtYvV4"/>
      <point x="475" y="416" type="curve" smooth="yes" identifier="456dbUl2lF"/>
      <point x="475" y="401" identifier="k49V5aK4rc"/>
      <point x="474" y="385" identifier="q8QXUGUIRD"/>
      <point x="471" y="368" type="curve" smooth="yes" identifier="fmfdmSP2GA"/>
      <point x="465" y="330" type="line" smooth="yes" identifier="zgB9XQA2Lo"/>
      <point x="447" y="218" identifier="T3EjgLQm36"/>
      <point x="379" y="148" identifier="ctBuwOy7dC"/>
    </contour>
  </outline>
</glyph>
<glyph name="yen" format="2">
  <advance width="600"/>
  <unicode hex="00A5"/>
  <outline>
    <contour>
      <point x="48" y="0" type="line" identifier="hoeQA0FFsl"/>
      <point x="466" y="0" type="line" identifier="8bG72efA82"/>
      <point x="469" y="19" type="line" identifier="QVg2ImkIFY"/>
      <point x="271" y="19" type="line" identifier="eUYWAZ2qeB"/>
      <point x="317" y="294" type="line" identifier="tCLOfVbFMw"/>
      <point x="515" y="294" type="line" identifier="qmOnHwTL7c"/>
      <point x="518" y="313" type="line" identifier="rKfVt8x5Ox"/>
      <point x="332" y="313" type="line" identifier="0YYb4vOz3G"/>
      <point x="645" y="698" type="line" identifier="iHisXmuaiV"/>
      <point x="619" y="698" type="line" identifier="9Wbe8ilBU7"/>
      <point x="310" y="317" type="line" identifier="Eh9il84Z0y"/>
      <point x="307" y="317" type="line" identifier="JI8CgwPW1t"/>
      <point x="124" y="698" type="line" identifier="Jkvxx9jdDK"/>
      <point x="101" y="698" type="line" identifier="QJURWwR3aM"/>
      <point x="286" y="313" type="line" identifier="PhckKiWxsd"/>
      <point x="100" y="313" type="line" identifier="TWAARPPe7m"/>
      <point x="97" y="294" type="line" identifier="fzfnWEzKp4"/>
      <point x="295" y="294" type="line" identifier="BmkysC0R29"/>
      <point x="249" y="19" type="line" identifier="09jrQDo9rg"/>
      <point x="51" y="19" type="line" identifier="yyE5lz9W9U"/>
    </contour>
  </outline>
</glyph>
<glyph name="brokenbar" format="2">
  <advance width="600"/>
  <unicode hex="00A6"/>
  <outline>
    <contour>
      <point x="334" y="401" type="line" identifier="w0o66sHYbM"/>
      <point x="394" y="760" type="line" identifier="zk34QIUCl1"/>
      <point x="374" y="760" type="line" identifier="ovdMNi2jrf"/>
      <point x="314" y="401" type="line" identifier="FNNDYPAbNT"/>
    </contour>
    <contour>
      <point x="244" y="-138" type="line" identifier="il1WrjxlVv"/>
      <point x="304" y="221" type="line" identifier="YqTUTA3JuE"/>
      <point x="284" y="221" type="line" identifier="dXJC66tbGH"/>
      <point x="224" y="-138" type="line" identifier="tlrReXVM5y"/>
    </contour>
  </outline>
</glyph>
<glyph name="section" format="2">
  <advance width="600"/>
  <unicode hex="00A7"/>
  <outline>
    <contour>
      <point x="428" y="3" type="curve" smooth="yes" identifier="cTFZ12vowE"/>
      <point x="428" y="55" identifier="fXYrlqGUkr"/>
      <point x="405" y="94" identifier="ZxYdymyRvr"/>
      <point x="363" y="120" type="curve" identifier="2xBTPvlMwU"/>
      <point x="363" y="123" type="line" identifier="n0Qaa80Uqx"/>
      <point x="453" y="152" identifier="FyruSKlAxH"/>
      <point x="506" y="201" identifier="q2k4srKuNF"/>
      <point x="506" y="283" type="curve" smooth="yes" identifier="OtRRlVsZjo"/>
      <point x="506" y="353" identifier="WfNLgaeime"/>
      <point x="467" y="390" identifier="0eXAHHHU9l"/>
      <point x="394" y="411" type="curve" smooth="yes" identifier="nHjfRWb2iP"/>
      <point x="317" y="433" type="line" smooth="yes" identifier="dWEnIqUVIh"/>
      <point x="256" y="450" identifier="wqNliVAirK"/>
      <point x="217" y="486" identifier="eqU952eCrK"/>
      <point x="217" y="553" type="curve" smooth="yes" identifier="Wl1WFI0bqI"/>
      <point x="217" y="643" identifier="wLMiq1VOSt"/>
      <point x="278" y="691" identifier="O52ICpJ7yO"/>
      <point x="381" y="691" type="curve" smooth="yes" identifier="eqInw8Fgjc"/>
      <point x="441" y="691" identifier="s9NlVKqhae"/>
      <point x="483" y="673" identifier="y5Vx7joJIQ"/>
      <point x="515" y="643" type="curve" identifier="h6OCYRS6Ru"/>
      <point x="529" y="657" type="line" identifier="ht2q6Mf6Ja"/>
      <point x="495" y="689" identifier="ymPToaLsrl"/>
      <point x="448" y="710" identifier="vKdOwQg5rJ"/>
      <point x="381" y="710" type="curve" smooth="yes" identifier="QxaC8UNsgC"/>
      <point x="269" y="710" identifier="6TPb9EIBSN"/>
      <point x="196" y="655" identifier="V4qH1iExpL"/>
      <point x="196" y="553" type="curve" smooth="yes" identifier="QQ4S6Z3WPV"/>
      <point x="196" y="501" identifier="Tgb6joQ6LF"/>
      <point x="219" y="462" identifier="GxI3hKEJpD"/>
      <point x="261" y="436" type="curve" identifier="ECXHwvZccO"/>
      <point x="261" y="433" type="line" identifier="3S4eyqYlNw"/>
      <point x="171" y="404" identifier="hS8C9pUzbS"/>
      <point x="118" y="355" identifier="rdAuE2f6Vv"/>
      <point x="118" y="273" type="curve" smooth="yes" identifier="ySFgHMXmia"/>
      <point x="118" y="203" identifier="bPNmHvNSPN"/>
      <point x="157" y="166" identifier="wc5YEgwOkq"/>
      <point x="230" y="145" type="curve" smooth="yes" identifier="gsPyGbhx73"/>
      <point x="307" y="123" type="line" smooth="yes" identifier="a9PCjYb6I6"/>
      <point x="368" y="106" identifier="krqtl39Twq"/>
      <point x="407" y="70" identifier="ZtkjJKs0Qp"/>
      <point x="407" y="3" type="curve" smooth="yes" identifier="EBMjdHXkVP"/>
      <point x="407" y="-87" identifier="GtyAPxu9gP"/>
      <point x="346" y="-135" identifier="4gUbmoPUNd"/>
      <point x="243" y="-135" type="curve" smooth="yes" identifier="2tPfU38haI"/>
      <point x="183" y="-135" identifier="uObhkcofJV"/>
      <point x="141" y="-117" identifier="yKX3lUvX4x"/>
      <point x="109" y="-87" type="curve" identifier="rqCS0IEcnE"/>
      <point x="95" y="-101" type="line" identifier="H6PkTMVavF"/>
      <point x="129" y="-133" identifier="QWWD8xIOgv"/>
      <point x="176" y="-154" identifier="FqtYEz6lTr"/>
      <point x="243" y="-154" type="curve" smooth="yes" identifier="aYortI1u4l"/>
      <point x="355" y="-154" identifier="UZA8y0ETdn"/>
      <point x="428" y="-99" identifier="zogzCvosxo"/>
    </contour>
    <contour>
      <point x="485" y="283" type="curve" smooth="yes" identifier="1YJtJ4yWNd"/>
      <point x="485" y="205" identifier="AN9OTzxZLQ"/>
      <point x="432" y="161" identifier="11SkZnF8VJ"/>
      <point x="344" y="130" type="curve" identifier="caeHp9mInG"/>
      <point x="335" y="134" identifier="chK3gsQeQq"/>
      <point x="325" y="137" identifier="cduZFAMq1G"/>
      <point x="315" y="140" type="curve" smooth="yes" identifier="8FTMcRNL2U"/>
      <point x="238" y="162" type="line" smooth="yes" identifier="k90fTrfTaA"/>
      <point x="167" y="182" identifier="9lCZhpm36D"/>
      <point x="139" y="215" identifier="alM1A91CwV"/>
      <point x="139" y="273" type="curve" smooth="yes" identifier="C1wLedIPqj"/>
      <point x="139" y="351" identifier="nDLc9BIhOd"/>
      <point x="192" y="395" identifier="9ejITWMMDM"/>
      <point x="280" y="426" type="curve" identifier="rbs40s4ogi"/>
      <point x="289" y="422" identifier="5b9cRyEguk"/>
      <point x="299" y="419" identifier="cI2K2YiL53"/>
      <point x="309" y="416" type="curve" smooth="yes" identifier="W10tDmhgN9"/>
      <point x="386" y="394" type="line" smooth="yes" identifier="N34JzscD0G"/>
      <point x="457" y="374" identifier="iiGSrU8ErF"/>
      <point x="485" y="341" identifier="GwQrkQamov"/>
    </contour>
  </outline>
</glyph>
